<?xml version="1.0" standalone="no"?>
<!DOCTYPE svg PUBLIC "-//W3C//DTD SVG 1.1//EN" "http://www.w3.org/Graphics/SVG/1.1/DTD/svg11.dtd" >
<svg>
<metadata>
Created by FontForge 20090914 at Mon Apr  7 11:39:55 2014
 By www-data
Copyright (c) 2006 Parachute&#194;&#168;, www.parachute.gr.  All rights reserved.
</metadata>
<defs>
<font id="PFAgoraSansPro-LightItalic" horiz-adv-x="1818" >
  <font-face 
    font-family="PF Agora Sans Pro Light"
    font-weight="300"
    font-style="italic"
    font-stretch="normal"
    units-per-em="1000"
    panose-1="2 0 5 0 0 0 0 9 0 4"
    ascent="750"
    descent="-250"
    x-height="486"
    cap-height="684"
    bbox="-258.001 -252.004 1760 913.002"
    underline-thickness="50"
    underline-position="-50"
    slope="-12"
    unicode-range="U+0020-U+FB05"
  />
<missing-glyph horiz-adv-x="426" 
d="M0 684h426v-684h-426v684zM370 31l-156 283l-157 -283h313zM370 653h-313l157 -282zM31 52l162 290l-162 290v-580zM395 50v587l-162 -295z" />
    <glyph glyph-name="fj" unicode="fj" horiz-adv-x="497" 
d="M413 46c-4 -33.333 -9.50293 -63.832 -16.5029 -91.499s-17.167 -52.5 -30.5 -74.5s-30.833 -40.833 -52.5 -56.5s-49.5 -27.834 -83.5 -36.501l-12 36c27.333 10.667 49.333 23.334 66 38.001s30 31 40 49s17.333 37.5 22 58.5s8.33398 43.5 11.001 67.5l43 409h-226
c0 -1.33301 -1 -10.833 -3 -28.5l-7.5 -65l-9.5 -83.5l-9.5 -83.5l-7.5 -65c-2 -17.667 -3 -26.834 -3 -27.501c-4.66699 -40 -10.167 -78.667 -16.5 -116s-16 -70.333 -29 -99s-30.667 -51.5 -53 -68.5s-51.833 -25.5 -88.5 -25.5c-11.333 0 -24 1 -38 3s-28.333 5 -43 9
l10 38c14 -2.66699 26.167 -4.5 36.5 -5.5s19.833 -1.5 28.5 -1.5c18 0 33.833 3.16699 47.5 9.5s25.667 16.5 36 30.5s19 32.5 26 55.5s12.833 51.5 17.5 85.5l20 160.5l13.5 109.5c3.66699 30.667 6.83398 58.667 9.50098 84l9 84h-75l4 30l77 14l11 84
c4 28.667 11.333 52.667 22 72s24 34.833 40 46.5s34.5 20 55.5 25s43.833 7.5 68.5 7.5c44.667 0 87 -5 127 -15l-9 -42c-19.333 3.33301 -38.666 6.16602 -57.999 8.49902s-37.666 3.5 -54.999 3.5c-22 0 -41 -2 -57 -6s-29.667 -10.667 -41 -20
s-20.333 -21.833 -27 -37.5s-11.334 -35.167 -14.001 -58.5l-9 -73h119c7.33301 0 16.666 0.166992 27.999 0.5s23.833 1 37.5 2s27.834 2.33301 42.501 4s29 3.83398 43 6.50098l11 -6z" />
    <glyph glyph-name="ffj" unicode="ffj" horiz-adv-x="775" 
d="M740 491l-10.5078 -94l-11 -98.5l-11.5 -99l-12 -94.5c-4 -33.333 -9.16699 -65.333 -15.5 -96s-16 -58.5 -29 -83.5s-30.833 -46.833 -53.5 -65.5s-52.334 -32.334 -89.001 -41.001l-11 36c30.667 10.667 54.5 24.167 71.5 40.5s30 34.833 39 55.5s15.333 43 19 67
l11.5 75c2 14 4.83301 36.667 8.5 68l11.5 101l11.5 104.5l8.5 77.5h-221l-12.5 -108l-10 -89c-3 -27.333 -6 -53 -9 -77l-8.5 -71c-4.66699 -38.667 -10.167 -75.834 -16.5 -111.501s-16 -67 -29 -94s-30.333 -48.667 -52 -65s-50.167 -24.5 -85.5 -24.5
c-12 0 -24.667 0.833008 -38 2.5s-27.333 4.5 -42 8.5l11 39c15.333 -3.33301 28 -5.33301 38 -6s18 -1 24 -1c20.667 0 38.334 4.16699 53.001 12.5s26.834 20.333 36.501 36s17.5 34.834 23.5 57.501s10.667 48.667 14 78c2 17.333 4.66699 39 8 65
s6.66602 53.5 9.99902 82.5l10.5 88l10 81.5l7.5 63c2 17.333 3.33301 28.333 4 33h-226c-4 -40.667 -8 -78 -12 -112l-11 -95.5c-3.33301 -29.667 -6.66602 -57.5 -9.99902 -83.5l-10 -76c-5.33301 -42 -11.166 -81 -17.499 -117s-15.833 -67 -28.5 -93
s-29.834 -46.5 -51.501 -61.5s-50.167 -22.5 -85.5 -22.5c-26 0 -53.333 4 -82 12c2 6.66699 3.83301 13.167 5.5 19.5s3.5 12.5 5.5 18.5c14 -2.66699 26 -4.66699 36 -6s19.667 -2 29 -2c20 0 37 4 51 12s25.667 19.5 35 34.5s17 33 23 54s11 44.167 15 69.5l32.5 259.5
c9 73 16.167 136.167 21.5 189.5h-74c0.666992 2.66699 1.33398 7.66699 2.00098 15s1 12 1 14c4 0.666992 9.5 1.66699 16.5 3l21.5 4c7.33301 1.33301 14.5 2.83301 21.5 4.5s12.5 2.83398 16.5 3.50098l6 46c8.66699 58 29.334 102.333 62.001 133s81 46 145 46
c20 0 41.333 -1.5 64 -4.5s43.667 -7.5 63 -13.5c32.667 30 79.667 45 141 45c21.333 0 42.333 -1.5 63 -4.5s40.334 -6.16699 59.001 -9.5l-9 -42c-19.333 3.33301 -38.166 6.16602 -56.499 8.49902s-36.166 3.5 -53.499 3.5c-44 0 -77.167 -9 -99.5 -27
s-36.166 -50 -41.499 -96l-10 -89h115c8 0 17.667 0.166992 29 0.5s23.833 1 37.5 2s27.834 2.33301 42.501 4s29 3.83398 43 6.50098zM343.992 667c-23.333 0 -43.999 -2.16699 -61.999 -6.5s-33.333 -11.833 -46 -22.5s-22.834 -25 -30.501 -43s-13.5 -41 -17.5 -69
l-5 -42h226l6 52.5c2 17.667 4.33301 35.167 7 52.5c4 25.333 10 47.333 18 66c-16.667 4 -34.667 7 -54 9s-33.333 3 -42 3z" />
    <glyph glyph-name="ff" unicode="ff" horiz-adv-x="594" 
d="M177 444c-5.33301 -42.667 -9.83301 -80.8311 -13.5 -114.498s-7.33398 -65.5 -11.001 -95.5l-10.5 -88l-11 -91c-4.66699 -36.667 -10.334 -71.334 -17.001 -104.001s-16.5 -61.5 -29.5 -86.5s-30 -44.833 -51 -59.5s-48.167 -22 -81.5 -22c-12.667 0 -26.167 1 -40.5 3
s-28.5 5 -42.5 9c1.33301 6.66699 3.16602 13.167 5.49902 19.5s4.16602 12.5 5.49902 18.5c14 -2.66699 26 -4.5 36 -5.5s19.667 -1.5 29 -1.5c20 0 37.167 4 51.5 12s26.666 20.667 36.999 38s18.833 40 25.5 68s12.667 62 18 102c8 58.667 14.333 107.667 19 147
l12 102.5c3.33301 29 6.16602 54.667 8.49902 77l7.5 71.5h-75c0 4.66699 0.333008 9.33398 1 14.001s1.33398 9.66699 2.00098 15c13.333 2 26.333 4.33301 39 7l39 8l4 27.5l4 26.5c10.667 60 31.167 103.5 61.5 130.5s76.833 40.5 139.5 40.5
c18.667 0 38.834 -1.33301 60.501 -4s43.834 -7.66699 66.501 -15c13.333 13.333 29.333 23.833 48 31.5s40.667 11.5 66 11.5c26.667 0 54.667 -3.66699 84 -11l-6 -21c-2 -6.66699 -3.66699 -13.667 -5 -21c-11.333 2.66699 -23 4.66699 -35 6s-22.667 2 -32 2
c-29.333 0 -52.833 -5.83301 -70.5 -17.5s-30.167 -32.834 -37.5 -63.501c-4 -17.333 -7.33301 -36.333 -10 -57l-9 -70h138c-0.666992 -7.33301 -1.16699 -14.166 -1.5 -20.499s-1.16602 -12.833 -2.49902 -19.5h-139l-14 -113l-11 -94.5l-10 -86
c-3.33301 -27.667 -6.66602 -57.167 -9.99902 -88.5c-4 -36.667 -9.33301 -70.834 -16 -102.501s-16.5 -59 -29.5 -82s-30.167 -41.167 -51.5 -54.5s-49 -20 -83 -20c-10.667 0 -23 1 -37 3s-27.667 5 -41 9l10 37c12.667 -2 23.834 -3.66699 33.501 -5s18.834 -2 27.501 -2
c18 0 34 2.83301 48 8.5s26.167 15.5 36.5 29.5s19.166 32.667 26.499 56s13.333 52.666 18 87.999l51 417h-225zM344 667.003c-28 0 -51.1699 -2.66602 -69.5029 -7.99902s-33.166 -13.5 -44.499 -24.5s-20.166 -25.167 -26.499 -42.5s-11.5 -38 -15.5 -62l-6 -46h224
c2.66699 18.667 4.83398 36 6.50098 52s4.5 35.667 8.5 59c4 22.667 10.333 41.667 19 57c-17.333 5.33301 -35.5 9.16602 -54.5 11.499s-32.833 3.5 -41.5 3.5z" />
    <glyph glyph-name="fi" unicode="fi" horiz-adv-x="503" 
d="M348 0l53.0059 443h-228c-8.66699 -64 -16.334 -129.833 -23.001 -197.5s-14.334 -133.834 -23.001 -198.501c-5.33301 -36.667 -11.166 -71 -17.499 -103s-15.833 -59.833 -28.5 -83.5s-29.5 -42.334 -50.5 -56.001s-48.167 -20.5 -81.5 -20.5
c-13.333 0.666992 -27 1.83398 -41 3.50098s-27.667 4.5 -41 8.5c1.33301 6.66699 2.83301 13.167 4.5 19.5s3.5 12.833 5.5 19.5c14 -3.33301 26.167 -5.33301 36.5 -6s20.166 -1 29.499 -1c19.333 0 35.833 3 49.5 9s25.5 16.667 35.5 32s18.5 35.833 25.5 61.5
s13.167 58.5 18.5 98.5c8 63.333 14.333 115.5 19 156.5l12 105.5c3.33301 29.333 6.16602 55.333 8.49902 78s5.16602 47.334 8.49902 74.001h-75c0.666992 5.33301 1 10.5 1 15.5s0.666992 10.167 2 15.5c13.333 2 26.166 4.16699 38.499 6.5l38.5 7.5l10 71
c8 60.667 27.833 103.167 59.5 127.5s74.167 36.5 127.5 36.5c21.333 0 43 -1 65 -3s42.667 -6 62 -12l-9 -41c-20 3.33301 -39.5 6 -58.5 8s-37.167 3 -54.5 3c-23.333 0 -43 -2.16699 -59 -6.5s-29.333 -11.166 -40 -20.499s-19.167 -21.833 -25.5 -37.5
s-11.166 -34.834 -14.499 -57.501c-1.33301 -11.333 -2.83301 -21.5 -4.5 -30.5s-3.5 -22.833 -5.5 -41.5h123c7.33301 0 16.666 0.166992 27.999 0.5s23.666 1 36.999 2s27.333 2.16699 42 3.5s29 3.33301 43 6l5 -2.5c2 -1 4 -2.16699 6 -3.5
c-5.33301 -37.333 -13 -98.333 -23 -183l-37 -307h-54z" />
    <glyph glyph-name="fl" unicode="fl" horiz-adv-x="506" 
d="M486 708l-79.999 -661.998l65 2l4 -38c-13.333 -5.33301 -27.5 -9.5 -42.5 -12.5s-27.167 -4.5 -36.5 -4.5c-16 0 -27.333 3 -34 9s-10 15.667 -10 29v10c0 3.33301 0.333008 7.33301 1 12l26.5 213.5l20.5 170.5l15.5 132l11.5 98
c-15.333 3.33301 -32 5.66602 -50 6.99902s-34.667 2 -50 2c-21.333 0 -40 -1.66699 -56 -5s-29.667 -9.5 -41 -18.5s-20.666 -21.5 -27.999 -37.5s-12.666 -36.667 -15.999 -62l-8 -69h149l-6 -41h-149c-3.33301 -34.667 -6.83301 -68 -10.5 -100l-10.5 -95.5
c-3.33301 -31.667 -7 -63.834 -11 -96.501l-13 -104c-4.66699 -36 -10.167 -70 -16.5 -102s-15.833 -59.833 -28.5 -83.5s-29.5 -42.5 -50.5 -56.5s-48.167 -21 -81.5 -21c-26.667 0 -54.334 4 -83.001 12c2 6 3.83301 12.167 5.5 18.5s3.5 12.833 5.5 19.5
c14 -2.66699 26.167 -4.5 36.5 -5.5s20.166 -1.5 29.499 -1.5c18 0 33.833 3.16699 47.5 9.5s25.5 17 35.5 32s18.5 35.167 25.5 60.5s13.167 57.333 18.5 96l19.5 156c5 41.333 9.16699 77 12.5 107s6.16602 56.667 8.49902 80s5.16602 48.333 8.49902 75h-74l3 31
c13.333 2 26.166 4.16699 38.499 6.5s24.833 4.83301 37.5 7.5c2 13.333 3.66699 26.333 5 39s3.33301 27 6 43c4.66699 31.333 13.334 57 26.001 77s27.834 35.5 45.501 46.5s37.667 18.5 60 22.5s45.833 6 70.5 6c17.333 0 35 -1 53 -3s35.667 -4.33301 53 -7l33 4z" />
    <glyph glyph-name="ffi" unicode="ffi" horiz-adv-x="773" 
d="M619 1l53 443.995h-214c-4 -39.333 -7.83301 -74.5 -11.5 -105.5l-10 -86c-3 -26.333 -6 -51.166 -9 -74.499l-8.5 -69c-4.66699 -40 -10.167 -78.667 -16.5 -116s-16 -70.333 -29 -99s-30.667 -51.5 -53 -68.5s-51.833 -25.5 -88.5 -25.5c-10.667 0 -22.834 1 -36.501 3
s-27.5 5 -41.5 9l11 38l34.5 -5c9.66699 -1.33301 18.834 -2 27.501 -2c40.667 0 70.167 16.333 88.5 49s31.166 77.334 38.499 134.001c1.33301 8.66699 3.33301 24.667 6 48l9.5 81l11.5 96l11 92l8.5 70.5c2.33301 19 3.5 29.167 3.5 30.5h-226l-11.5 -108.5l-10.5 -92.5
c-3.33301 -28.667 -6.66602 -55.5 -9.99902 -80.5s-6.33301 -49.5 -9 -73.5c-4 -40 -9.16699 -78.5 -15.5 -115.5s-16 -69.667 -29 -98s-30.5 -51 -52.5 -68s-51.333 -25.5 -88 -25.5c-26.667 0 -54 4 -82 12l10 37c14 -2.66699 26.167 -4.5 36.5 -5.5
s20.166 -1.5 29.499 -1.5c18.667 0 35 3.16699 49 9.5s26 16.833 36 31.5s18.333 33.834 25 57.501s12.334 52.5 17.001 86.5l12 94.5l14.5 116c5 40.333 9.66699 80.333 14 120l11.5 104.5h-74l3 28c4 0.666992 9.33301 1.83398 16 3.50098s13.834 3.16699 21.501 4.5l22 4
c7 1.33301 12.5 2.33301 16.5 3l6 51c4 32 12 59.167 24 81.5s27.167 40.333 45.5 54s39.5 23.667 63.5 30s50.333 9.5 79 9.5c19.333 0 39.833 -1.66699 61.5 -5s41.5 -7.66602 59.5 -12.999c16.667 14.667 37.5 25.667 62.5 33s51.167 11 78.5 11
c21.333 0 42.333 -1.33301 63 -4s40.334 -6 59.001 -10l-9 -42c-18 3.33301 -36 6 -54 8s-35.667 3 -53 3c-43.333 0 -76.833 -8.5 -100.5 -25.5s-38.167 -49.5 -43.5 -97.5l-10 -87h109c7.33301 0 16.666 0.166992 27.999 0.5s23.666 1 36.999 2s27.333 2.16699 42 3.5
s29 3.33301 43 6l11 -6c-5.33301 -37.333 -12.833 -98.333 -22.5 -183l-36.5 -307h-54zM421 589.995c4 25.333 10.667 47 20 65c-17.333 4 -35.5 7.16699 -54.5 9.5s-32.833 3.5 -41.5 3.5c-23.333 0 -44 -2 -62 -6s-33.5 -11.333 -46.5 -22s-23.5 -25.167 -31.5 -43.5
s-13.667 -41.833 -17 -70.5c0 -3.33301 -0.833008 -10.333 -2.5 -21s-2.5 -17.667 -2.5 -21h225z" />
    <glyph glyph-name="ffl" unicode="ffl" horiz-adv-x="790" 
d="M772 731l-41.5 -341.502l-42.5 -341.5l65 2l4 -38c-12.667 -6 -26.5 -10.333 -41.5 -13s-27.5 -4 -37.5 -4c-30 0 -45 12.667 -45 38v10.5c0 3.66699 0.333008 7.83398 1 12.501l80 630c-16 3.33301 -33.333 5.66602 -52 6.99902s-35.667 2 -51 2
c-42 0 -73.833 -8.66699 -95.5 -26s-35.834 -46.666 -42.501 -87.999l-6.5 -48c-2.33301 -16.667 -4.16602 -33 -5.49902 -49h147l-6 -40h-145c-8 -78 -15.667 -144.667 -23 -200s-13.666 -105.666 -18.999 -150.999c-4.66699 -38.667 -9.83398 -75.5 -15.501 -110.5
s-14.667 -66 -27 -93s-29.5 -48.5 -51.5 -64.5s-51.667 -24 -89 -24c-22.667 0 -48.667 3.66699 -78 11l6 19.5c2 6.33301 3.66699 12.833 5 19.5c13.333 -2.66699 24.833 -4.5 34.5 -5.5s18.834 -1.5 27.501 -1.5c41.333 0 71 15.667 89 47s31 77.666 39 138.999
c0.666992 8 2.33398 23 5.00098 45l9.5 76.5c3.66699 29 7.33398 59.667 11.001 92l10 90.5l8 72.5c2.33301 20.333 3.83301 32.833 4.5 37.5h-225l-13.5 -120l-12 -102.5l-10.5 -89.5l-10 -82c-4.66699 -39.333 -10.334 -75.333 -17.001 -108s-16.5 -60.667 -29.5 -84
s-30 -41.666 -51 -54.999s-48.5 -20 -82.5 -20c-12.667 0 -25.834 1.16699 -39.501 3.5s-27.834 5.5 -42.501 9.5l11 37c14 -2.66699 26 -4.5 36 -5.5s19.667 -1.5 29 -1.5c19.333 0 35.833 3.16699 49.5 9.5s25.5 16.666 35.5 30.999s18.167 33.166 24.5 56.499
s11.833 52 16.5 86l11 83.5l14.5 117.5l14.5 125.5l12 108.5h-75c1.33301 4.66699 2.16602 9.33398 2.49902 14.001s0.833008 9.66699 1.5 15l76 15c1.33301 17.333 3 31.5 5 42.5s4.33301 23.167 7 36.5c10.667 50.667 32.834 87.834 66.501 111.501s76.5 35.5 128.5 35.5
c21.333 0 43.333 -1.5 66 -4.5s44.667 -7.83301 66 -14.5c16 15.333 36.167 26.833 60.5 34.5s50.833 11.5 79.5 11.5c18 0 36.5 -1 55.5 -3l54.5 -6l47 4zM408 483.998c1.33301 16.667 3.16602 33.667 5.49902 51s4.83301 34.666 7.5 51.999c2 14 4.66699 26.5 8 37.5
s7 21.167 11 30.5c-18.667 4.66699 -36.667 7.83398 -54 9.50098s-32.666 2.5 -45.999 2.5c-45.333 0 -80.5 -10.167 -105.5 -30.5s-40.833 -57.5 -47.5 -111.5l-5 -41h226z" />
    <glyph glyph-name="ft" unicode="ft" horiz-adv-x="605" 
d="M450 443c-1.33301 -8.66699 -3.17188 -21.4971 -5.50488 -38.4971l-7.5 -57l-8 -65.5l-8 -65.5l-7 -57c-2 -17 -3.33301 -29.833 -4 -38.5c-0.666992 -4.66699 -1 -9 -1 -13v-11c0 -17.333 3.66699 -31 11 -41s22.333 -15 45 -15c11.333 0 25.666 1.33301 42.999 4
s35.333 6.66699 54 12l5 -18c2 -7.33301 3.66699 -13.666 5 -18.999c-18 -7.33301 -38.667 -13.166 -62 -17.499s-43.333 -6.5 -60 -6.5c-29.333 0 -53 6.16699 -71 18.5s-27 34.166 -27 65.499c0 3.33301 0.166992 6.66602 0.5 9.99902s0.833008 6.66602 1.5 9.99902
l5.5 42.5l7.5 60.5l8 69l8 69l7 60c2 18 3.66699 32 5 42h-220l-20 -181c-6.66699 -62 -13.667 -121.333 -21 -178c-5.33301 -44 -11 -84.167 -17 -120.5s-15.333 -67.833 -28 -94.5s-30 -47.334 -52 -62.001s-51.333 -22 -88 -22c-9.33301 0 -21.5 0.666992 -36.5 2
s-30.167 4.33301 -45.5 9l11 39c14 -2.66699 26 -4.5 36 -5.5s19.667 -1.5 29 -1.5c18.667 0 34.834 3 48.501 9s25.5 16 35.5 30s18.5 32.833 25.5 56.5s12.833 53.167 17.5 88.5l10.5 82.5l11 90l10.5 88.5l9 78c2.66699 23.333 4.83398 43.166 6.50098 59.499
s2.83398 27.166 3.50098 32.499h-80c0.666992 4 1.33398 9 2.00098 15s1 11 1 15l17.5 3c7.66699 1.33301 15.834 2.83301 24.501 4.5l24 4.5c7.33301 1.33301 13 2.66602 17 3.99902l2 26c4 32.667 9.83301 62.167 17.5 88.5s18.334 48.833 32.001 67.5
s30.834 32.834 51.501 42.501s46 14.5 76 14.5c10.667 0 22.667 -0.833008 36 -2.5s27 -4.16699 41 -7.5l-10 -43c-12.667 3.33301 -24.334 5.33301 -35.001 6s-20.667 1 -30 1c-16 0 -30.833 -2 -44.5 -6s-25.834 -11.833 -36.501 -23.5s-19.667 -28.5 -27 -50.5
s-12.666 -51 -15.999 -87c-0.666992 -3.33301 -1.16699 -8.33301 -1.5 -15s-0.5 -11.667 -0.5 -15l218 -1c2 5.33301 4.5 13 7.5 23l9 31l9 30.5c3 9.66699 5.5 16.834 7.5 21.501l35 6l-14 -112h140l-4 -41h-140z" />
    <glyph glyph-name=".notdef" horiz-adv-x="426" 
d="M0 684h426v-684h-426v684zM370 31l-156 283l-157 -283h313zM370 653h-313l157 -282zM31 52l162 290l-162 290v-580zM395 50v587l-162 -295z" />
    <glyph glyph-name="space" unicode=" " horiz-adv-x="256" 
 />
    <glyph glyph-name="exclam" unicode="!" horiz-adv-x="201" 
d="M74 163l19 196l39 333h55l-41 -336l-29 -193h-43zM86 75c11.333 0 20.166 -3.5 26.499 -10.5s9.5 -15.833 9.5 -26.5v-3c-0.666992 -13.333 -5.66699 -24.166 -15 -32.499s-19.666 -12.5 -30.999 -12.5c-10.667 0 -19.5 3.5 -26.5 10.5s-10.5 15.833 -10.5 26.5
c0 13.333 4.66699 24.666 14 33.999s20.333 14 33 14z" />
    <glyph glyph-name="quotedbl" unicode="&#x22;" horiz-adv-x="224" 
d="M183 493l12 191h53l-34 -191h-31zM97 493l11 191h53l-35 -191h-29z" />
    <glyph glyph-name="numbersign" unicode="#" horiz-adv-x="503" 
d="M417 419c-2 -7.33301 -5.83301 -19.666 -11.5 -36.999l-18.5 -55l-19 -55c-6 -17.333 -10 -29.333 -12 -36h78l-11 -35h-78l-66 -201h-36l65 201h-158l-66 -201h-36l66 201h-72l11 35h72c2 6.66699 6 18.667 12 36l19 55l18.5 55c5.66699 17.333 9.5 29.666 11.5 36.999
h-75l11 34h76l11 34l17.5 52.5l18 52l11.5 33.5h36l-58 -172h158l58 172h37l-58 -172h74l-12 -34h-74zM162 236h157l62 183h-158z" />
    <glyph glyph-name="dollar" unicode="$" horiz-adv-x="516" 
d="M333 729h30l-8 -64c20 -1.33301 40.333 -5.33301 61 -12s38.667 -14.667 54 -24l-21 -40c-21.333 11.333 -39.5 19 -54.5 23s-29.833 6.66699 -44.5 8l-32 -262c18 -8 35.5 -16.5 52.5 -25.5s32 -19.833 45 -32.5s23.333 -27.5 31 -44.5s11.5 -37.5 11.5 -61.5
c0 -29.333 -5 -54.833 -15 -76.5s-23.333 -40.167 -40 -55.5s-36.167 -27.5 -58.5 -36.5s-45.833 -15.167 -70.5 -18.5l-10 -83h-30zM201 -76l-30.001 0.00195312l10 82c-25.333 2.66699 -50.166 8 -74.499 16s-46.166 18.667 -65.499 32l23 38
c28 -16 51.5 -26.333 70.5 -31s36.5 -8.33398 52.5 -11.001l36 288c-34.667 13.333 -63.834 31.666 -87.501 54.999s-35.5 55 -35.5 95c0 24.667 4.33301 47 13 67s20.5 37.333 35.5 52s32.167 26.667 51.5 36s40 16 62 20l8 66h30zM279.999 53.002
c18 2.66699 34.834 7.33203 50.501 13.999s29.5 15.834 41.5 27.501s21.333 25.5 28 41.5s10 34.667 10 56c0 29.333 -9.33301 53 -28 71s-42.334 32.667 -71.001 44zM257 616c-14 -3.33301 -27.5 -8.33301 -40.5 -15s-24.5 -15 -34.5 -25s-18 -21.833 -24 -35.5
s-9 -29.5 -9 -47.5c0 -29.333 7.5 -51.833 22.5 -67.5s34.167 -28.167 57.5 -37.5z" />
    <glyph glyph-name="percent" unicode="%" horiz-adv-x="790" 
d="M236 668c26 0 47.502 -4.33008 64.502 -12.9971s30.167 -20 39.5 -34s15.833 -30 19.5 -48s5.5 -36.333 5.5 -55c0 -24.667 -2.5 -51.834 -7.5 -81.501s-14 -57.334 -27 -83.001s-30.833 -47.167 -53.5 -64.5s-52 -26 -88 -26c-26.667 0 -48.667 3.83301 -66 11.5
s-31 18 -41 31s-17 28.167 -21 45.5s-6 35.666 -6 54.999c0 11.333 0.666992 25.666 2 42.999s4.33301 35.833 9 55.5s11 39.167 19 58.5s18.667 36.833 32 52.5s29.666 28.334 48.999 38.001s42.666 14.5 69.999 14.5zM235.002 630.003
c-21.333 0 -39.4961 -4.66504 -54.4961 -13.998s-27.5 -21.333 -37.5 -36s-17.667 -30.834 -23 -48.501s-9.33301 -34.834 -12 -51.501s-4.33398 -31.834 -5.00098 -45.501s-1 -23.834 -1 -30.501c0 -15.333 1.5 -29.166 4.5 -41.499s8 -23.166 15 -32.499
s16.333 -16.5 28 -21.5s26.167 -7.5 43.5 -7.5c25.333 0 46.166 7.33301 62.499 22s29.166 32.667 38.499 54s15.666 44.333 18.999 69s5 47 5 67c0 14 -1 28 -3 42s-6 26.5 -12 37.5s-14.5 20 -25.5 27s-25.167 10.5 -42.5 10.5zM260.006 -22.9951h-42l371 722h38z
M646.006 402.005c26 0 47.334 -4.33398 64.001 -13.001s29.834 -20.167 39.501 -34.5s16.167 -30.5 19.5 -48.5s5 -36 5 -54c0 -25.333 -2.5 -52.833 -7.5 -82.5s-14 -57.334 -27 -83.001s-30.833 -47.167 -53.5 -64.5s-52 -26 -88 -26c-26 0 -47.667 3.83301 -65 11.5
s-31 18.167 -41 31.5s-17 28.5 -21 45.5s-6 35.167 -6 54.5c0 11.333 0.666992 25.833 2 43.5s4.33301 36.167 9 55.5s11 38.833 19 58.5s18.667 37.334 32 53.001s29.666 28.334 48.999 38.001s42.666 14.5 69.999 14.5zM645.007 363.004
c-21.333 0 -39.4951 -4.66504 -54.4951 -13.998s-27.5 -21.166 -37.5 -35.499s-17.833 -30.5 -23.5 -48.5s-9.83398 -35.333 -12.501 -52s-4.33398 -31.834 -5.00098 -45.501s-1 -23.834 -1 -30.501c0 -14.667 1.5 -28.334 4.5 -41.001s8 -23.5 15 -32.5s16.333 -16 28 -21
s26.5 -7.5 44.5 -7.5c25.333 0 46.166 7.16699 62.499 21.5s29.166 32.333 38.499 54s15.666 44.667 18.999 69s5 46.5 5 66.5c0 14 -1 28 -3 42s-6 26.5 -12 37.5s-14.5 20 -25.5 27s-25.167 10.5 -42.5 10.5z" />
    <glyph glyph-name="ampersand" unicode="&#x26;" horiz-adv-x="823" 
d="M330 468c16.667 0 31.002 -2.66699 43.002 -8s21.667 -12.333 29 -21s12.666 -18 15.999 -28s5 -19.333 5 -28c0 -12.667 -3.5 -26.834 -10.5 -42.501s-19.5 -30.834 -37.5 -45.501c0 -0.666992 0.333008 -1.33398 1 -2.00098c20 4 39.5 7.16699 58.5 9.5
s37.167 3.5 54.5 3.5c38.667 0 85.667 -5.66699 141 -17c9.33301 35.333 14 69.333 14 102s-4.33301 63.834 -13 93.501s-22.834 55.5 -42.501 77.5s-45.167 39.5 -76.5 52.5s-69.666 19.5 -114.999 19.5c-47.333 0 -89.5 -8.5 -126.5 -25.5s-69.167 -39.667 -96.5 -68
s-49.666 -61.5 -66.999 -99.5s-29.666 -78 -36.999 -120c-7.33301 0.666992 -14.333 1.16699 -21 1.5s-13.334 1.16602 -20.001 2.49902c6 42.667 18 85 36 127s42.5 79.5 73.5 112.5s68.5 59.833 112.5 80.5s95 31 153 31c51.333 0 95.166 -7.5 131.499 -22.5
s66 -35.333 89 -61s39.833 -55.5 50.5 -89.5s16 -69.667 16 -107c0 -17.333 -1.33301 -35.833 -4 -55.5s-6.33398 -38.834 -11.001 -57.501c7.33301 -0.666992 13.833 -1.33398 19.5 -2.00098s11.167 -1 16.5 -1c28 0 50.333 4.66699 67 14s32.667 24.666 48 45.999l26 -19
c-14.667 -25.333 -33 -45.166 -55 -59.499s-51 -21.5 -87 -21.5c-5.33301 0 -11.833 0.333008 -19.5 1s-16.834 2.33398 -27.501 5.00098c-13.333 -33.333 -30.833 -65.333 -52.5 -96s-46.667 -57.667 -75 -81s-59.666 -41.833 -93.999 -55.5s-70.5 -20.5 -108.5 -20.5
c-36.667 0 -67.667 5.33301 -93 16s-45.833 24.834 -61.5 42.501s-27 37.834 -34 60.501s-10.5 46.334 -10.5 71.001c0 47.333 6 88.833 18 124.5s27.5 65.334 46.5 89.001s40 41.5 63 53.5s45.5 18 67.5 18zM324.002 248l-16.0039 28.002
c20.667 15.333 37.334 31.166 50.001 47.499s19 32.166 19 47.499c0 16 -4.83301 28.833 -14.5 38.5s-22.167 14.5 -37.5 14.5s-31.333 -4.66699 -48 -14s-32 -23.5 -46 -42.5s-25.667 -43.333 -35 -73s-14 -64.5 -14 -104.5c0 -52.667 14.167 -92.5 42.5 -119.5
s66.833 -40.5 115.5 -40.5c26.667 0 53.834 5.5 81.501 16.5s53.834 26.333 78.501 46s47.167 43 67.5 70s36.833 56.833 49.5 89.5c-51.333 11.333 -97.666 17 -138.999 17c-23.333 0 -46.5 -2 -69.5 -6s-46.833 -9.66699 -71.5 -17z" />
    <glyph glyph-name="quotesingle" unicode="'" horiz-adv-x="161" 
d="M101 493l12 191h53l-34 -191h-31z" />
    <glyph glyph-name="parenleft" unicode="(" horiz-adv-x="262" 
d="M112 157c0 -42 2.33105 -79.999 6.99805 -113.999s10.334 -63.833 17.001 -89.5s13.667 -47.5 21 -65.5l18 -43l-26 -17c-6 10.667 -14 26 -24 46s-19.667 44.667 -29 74s-17.5 63 -24.5 101s-10.5 80.667 -10.5 128c0 72.667 7.83301 138.667 23.5 198
s34.167 111.5 55.5 156.5s43 82.667 65 113s39.667 53.166 53 68.499l20 -16c-10 -13.333 -24.167 -35.166 -42.5 -65.499s-36.666 -68.333 -54.999 -114s-34.333 -98.834 -48 -159.501s-20.5 -127.667 -20.5 -201z" />
    <glyph glyph-name="parenright" unicode=")" horiz-adv-x="264" 
d="M165 394c0 40 -2.5 76.668 -7.5 110.001s-11 62.666 -18 87.999s-14.333 46.833 -22 64.5s-13.834 31.167 -18.501 40.5l25 16c6.66699 -11.333 15.167 -27 25.5 -47s20.5 -44.333 30.5 -73s18.5 -61.334 25.5 -98.001s10.5 -77 10.5 -121
c0 -76 -8.5 -144.833 -25.5 -206.5s-36.667 -115.667 -59 -162s-44.666 -84.5 -66.999 -114.5s-38.5 -51 -48.5 -63l-22 18c9.33301 12.667 23.5 34.167 42.5 64.5s38 68.5 57 114.5s35.667 99.833 50 161.5s21.5 130.834 21.5 207.501z" />
    <glyph glyph-name="asterisk" unicode="*" horiz-adv-x="348" 
d="M345 618c5.33301 -9.33301 8.66699 -18.6689 10 -28.002s1.33301 -20.666 0 -33.999l-118 -13l14.5 -17.5l20 -25l20 -25l14.5 -17.5c-14 -16.667 -31.667 -28.667 -53 -36c-1.33301 4.66699 -3.83301 11.834 -7.5 21.501l-11.5 31l-11.5 31l-8.5 22.5l-63 -106
c-20 7.33301 -35 19.333 -45 36c4.66699 4 11 10 19 18l25.5 25l26 25c8.33301 8 14.833 13.667 19.5 17l-110 19c4 24 12.667 44.333 26 61c4 -2.66699 10.5 -6.5 19.5 -11.5l28.5 -15.5l28.5 -15.5c9 -5 15.5 -8.83301 19.5 -11.5c0 5.33301 -0.166992 13.333 -0.5 24
s-0.5 22 -0.5 34s-0.166992 23.5 -0.5 34.5s-0.833008 19.167 -1.5 24.5c9.33301 2.66699 19.5 4.16699 30.5 4.5s21.167 -1.16699 30.5 -4.5c-1.33301 -5.33301 -3.5 -13.5 -6.5 -24.5l-9.5 -34.5l-9.5 -34c-3 -10.667 -5.5 -18.667 -7.5 -24z" />
    <glyph glyph-name="plus" unicode="+" horiz-adv-x="517" 
d="M291 276l-21 -169h-43l20 169h-161l6 43h160l20 163h44l-20 -163h159l-6 -43h-158z" />
    <glyph glyph-name="comma" unicode="," horiz-adv-x="164" 
d="M63 78c12 0 21.501 -4.00195 28.501 -12.002s10.5 -18.667 10.5 -32c0 -11.333 -2.33301 -23.5 -7 -36.5s-11.167 -25.833 -19.5 -38.5s-18 -24.667 -29 -36s-22.833 -20.333 -35.5 -27l-12 18c12.667 12.667 22.5 25.834 29.5 39.501s12.167 28.167 15.5 43.5
c-17.333 3.33301 -26 14.333 -26 33c0 12.667 4.16699 23.834 12.5 33.501s19.166 14.5 32.499 14.5z" />
    <glyph glyph-name="hyphen" unicode="-" horiz-adv-x="335" 
d="M53 233l7 50h234l-6 -50h-235z" />
    <glyph glyph-name="period" unicode="." horiz-adv-x="172" 
d="M68 78c10.667 0 19.333 -3.5 26 -10.5s10 -15.833 10 -26.5c0 -13.333 -4.83301 -24.5 -14.5 -33.5s-20.167 -13.5 -31.5 -13.5c-10.667 0 -19.167 3.5 -25.5 10.5s-9.5 15.833 -9.5 26.5c0 12.667 4.5 23.667 13.5 33s19.5 14 31.5 14z" />
    <glyph glyph-name="slash" unicode="/" horiz-adv-x="312" 
d="M22 -27h-40l339 726h40z" />
    <glyph glyph-name="zero" unicode="0" horiz-adv-x="517" 
d="M311 673c40.667 0 73.668 -7.66797 99.001 -23.001s45.166 -35.333 59.499 -60s24 -52.5 29 -83.5s7.5 -61.833 7.5 -92.5c0 -28 -1.66699 -57.833 -5 -89.5s-9 -63.167 -17 -94.5s-18.5 -61.166 -31.5 -89.499s-29.333 -53.5 -49 -75.5s-43 -39.5 -70 -52.5
s-58.167 -19.5 -93.5 -19.5c-40 0 -72.833 6.5 -98.5 19.5s-46 30.5 -61 52.5s-25.5 47.333 -31.5 76s-9.33301 58.667 -10 90c0 18.667 1 42.667 3 72s6.16699 60.333 12.5 93s15.5 65.5 27.5 98.5s28 62.667 48 89s44.833 47.833 74.5 64.5s65.167 25 106.5 25z
M310.001 626.999c-35.333 0 -65.1641 -8.33203 -89.4971 -24.999s-44.5 -38 -60.5 -64s-28.5 -54.667 -37.5 -86s-15.5 -61.833 -19.5 -91.5s-6.5 -56.5 -7.5 -80.5s-1.5 -41.667 -1.5 -53c0 -27.333 2.5 -52.5 7.5 -75.5s13.167 -42.833 24.5 -59.5
s26.666 -29.667 45.999 -39s43.666 -14 72.999 -14c28 0 52.667 6 74 18s39.666 28 54.999 48s28 42.833 38 68.5s17.833 52.5 23.5 80.5s9.66699 55.833 12 83.5s3.5 53.5 3.5 77.5c0 24.667 -1.83301 49.667 -5.5 75s-10.5 48.166 -20.5 68.499s-24.167 36.833 -42.5 49.5
s-42.5 19 -72.5 19z" />
    <glyph glyph-name="one" unicode="1" horiz-adv-x="517" 
d="M296 605l-157 -26l-1 35l166 49h52l-80 -663h-55z" />
    <glyph glyph-name="two" unicode="2" horiz-adv-x="517" 
d="M287 672c24.667 0 47.5 -3 68.5 -9s39.333 -15.167 55 -27.5s27.834 -27.833 36.501 -46.5s13 -40.667 13 -66c0 -41.333 -11.833 -82.666 -35.5 -123.999s-53.834 -82.333 -90.501 -123s-77 -80.5 -121 -119.5l-127 -112.5h340l-4 -44h-413l4 41l136 120
c46 41.333 87.833 82.166 125.5 122.499s68.5 80 92.5 119s36 75.833 36 110.5c0 38 -11.5 65.667 -34.5 83s-52.833 26 -89.5 26c-21.333 0 -47 -3.83301 -77 -11.5s-63 -22.167 -99 -43.5l-20 37c37.333 25.333 73.833 43 109.5 53s67.167 15 94.5 15z" />
    <glyph glyph-name="three" unicode="3" horiz-adv-x="517" 
d="M300 372c20 -2.66699 39.3301 -8.49805 57.9971 -17.498s35 -20.5 49 -34.5s25.167 -30.5 33.5 -49.5s12.5 -39.833 12.5 -62.5c0 -29.333 -6 -57 -18 -83s-29 -49 -51 -69s-48.833 -35.833 -80.5 -47.5s-66.834 -17.5 -105.501 -17.5c-40 0 -76.167 3.16699 -108.5 9.5
s-58.833 15.166 -79.5 26.499l17 39c39.333 -14 72 -22.667 98 -26s49 -5 69 -5c26.667 0 52.334 3.83301 77.001 11.5s46.334 18.667 65.001 33s33.667 31.833 45 52.5s17 44 17 70c0 22.667 -4.33301 42.667 -13 60s-20.667 32 -36 44s-33.333 21 -54 27s-43 9 -67 9
c-16 0 -30.667 -1.33301 -44 -4c-1.33301 5.33301 -2.83301 12.166 -4.5 20.499s-2.83398 15.166 -3.50098 20.499c40.667 7.33301 75.334 17 104.001 29s51.834 25 69.501 39s30.5 28.833 38.5 44.5s12 30.834 12 45.501c0 12.667 -2.33301 24.834 -7 36.501
s-12.167 21.834 -22.5 30.501s-23.666 15.667 -39.999 21s-35.833 8 -58.5 8c-22 0 -46.333 -3.33301 -73 -10s-58 -17.667 -94 -33l-15 37c33.333 18 66.5 31.167 99.5 39.5s63.5 12.5 91.5 12.5c30.667 0 57 -3.5 79 -10.5s40 -16.5 54 -28.5s24.333 -25.833 31 -41.5
s10 -31.834 10 -48.501c0 -16 -3 -32.333 -9 -49s-15.167 -32.834 -27.5 -48.501s-28.333 -30 -48 -43s-43.167 -23.833 -70.5 -32.5v-5z" />
    <glyph glyph-name="four" unicode="4" horiz-adv-x="517" 
d="M452 662l-27.5 -214l-26.5 -214h96c-0.666992 -7.33301 -1.5 -14.5 -2.5 -21.5s-1.83301 -14.167 -2.5 -21.5h-96l-21 -191h-56l24 191h-318l6 43l183.5 214.5l182.5 213.5h58zM346 234l22 180.499l22 179.5h-3c-8 -11.333 -19.667 -26.166 -35 -44.499l-51.5 -61
l-60 -70.5l-61.5 -71.5l-55.5 -64l-41.5 -48.5h264z" />
    <glyph glyph-name="five" unicode="5" horiz-adv-x="517" 
d="M258 363c-19.333 0 -39.333 -2.33691 -60 -7.00391s-40.667 -11.667 -60 -21l-33 23l48 305h331l-7 -46h-282l-36 -231c10 2.66699 24.5 7.16699 43.5 13.5s45.167 9.5 78.5 9.5c22.667 0 45 -3.16699 67 -9.5s41.333 -16.5 58 -30.5s30.167 -32.167 40.5 -54.5
s15.5 -49.5 15.5 -81.5c0 -41.333 -7.16699 -77.166 -21.5 -107.499s-33.333 -55.5 -57 -75.5s-50.5 -34.833 -80.5 -44.5s-60.667 -14.5 -92 -14.5c-36.667 0 -70 2.83301 -100 8.5s-58.667 15.167 -86 28.5l19 42c34 -13.333 63.5 -21.833 88.5 -25.5
s47.167 -5.5 66.5 -5.5c30 0 57.667 3.83301 83 11.5s47.333 19.334 66 35.001s33.167 35.334 43.5 59.001s15.5 51.834 15.5 84.501c0 45.333 -14.167 79 -42.5 101s-63.833 33 -106.5 33z" />
    <glyph glyph-name="six" unicode="6" horiz-adv-x="517" 
d="M128 357c23.333 14 50.3359 26.168 81.0029 36.501s63.667 15.5 99 15.5c23.333 0 45.166 -3.16699 65.499 -9.5s38.166 -16.333 53.499 -30s27.333 -31.334 36 -53.001s13 -48.167 13 -79.5c0 -37.333 -6 -71.166 -18 -101.499s-28.5 -56 -49.5 -77
s-46 -37.167 -75 -48.5s-60.5 -17 -94.5 -17c-35.333 0 -64.666 5.5 -87.999 16.5s-42 26.5 -56 46.5s-23.833 43.667 -29.5 71s-8.5 57.333 -8.5 90c0 62.667 6.5 121.667 19.5 177s32 103.666 57 144.999s55.667 73.833 92 97.5s77.5 35.5 123.5 35.5
c32.667 0 60.334 -3.16699 83.001 -9.5s40.334 -13.166 53.001 -20.499c-0.666992 -2 -1.83398 -4.83301 -3.50098 -8.5s-3.33398 -7.66699 -5.00098 -12s-3.33398 -8.33301 -5.00098 -12s-2.83398 -6.5 -3.50098 -8.5c-23.333 10 -45.5 16.667 -66.5 20s-39.167 5 -54.5 5
c-25.333 0 -48.166 -4.83301 -68.499 -14.5s-38.333 -22.167 -54 -37.5s-29.334 -32.833 -41.001 -52.5s-21.5 -39.334 -29.5 -59.001s-14.5 -38.5 -19.5 -56.5s-8.5 -33.333 -10.5 -46zM294.003 363.001c-26 0 -49.667 -2.83203 -71 -8.49902s-39.5 -12 -54.5 -19
s-26.833 -13.333 -35.5 -19s-13.667 -8.83398 -15 -9.50098c-1.33301 -14 -3 -28.833 -5 -44.5s-3 -32.167 -3 -49.5c0 -20.667 1.83301 -41.5 5.5 -62.5s10.334 -39.833 20.001 -56.5s23.167 -30.167 40.5 -40.5s39.666 -15.5 66.999 -15.5c28.667 0 54 4.83301 76 14.5
s40.667 23.167 56 40.5s27 37.833 35 61.5s12 49.5 12 77.5c0 19.333 -2.16699 37 -6.5 53s-11.5 29.833 -21.5 41.5s-23.167 20.667 -39.5 27s-36.5 9.5 -60.5 9.5z" />
    <glyph glyph-name="seven" unicode="7" horiz-adv-x="517" 
d="M109 617l6 46h374l7 -45l-345 -618h-56l346 617h-332z" />
    <glyph glyph-name="eight" unicode="8" horiz-adv-x="517" 
d="M316 628c-29.333 0 -53.668 -5.00098 -73.001 -15.001s-34.5 -22 -45.5 -36s-18.667 -28.167 -23 -42.5s-6.5 -25.833 -6.5 -34.5c0 -17.333 4.33301 -32.333 13 -45s20.167 -24 34.5 -34s31 -19.333 50 -28l58.5 -26c44.667 28.667 75.334 56 92.001 82s25 50.333 25 73
c0 12.667 -2 25.334 -6 38.001s-10.667 24 -20 34s-22 18.167 -38 24.5s-36.333 9.5 -61 9.5zM237.998 36.999c30 0 56.001 4.50098 78.001 13.501s40.167 20.667 54.5 35s25 30.166 32 47.499s10.5 34.666 10.5 51.999c0 22.667 -3.83301 42 -11.5 58
s-19.334 30.333 -35.001 43s-34.834 24.167 -57.501 34.5s-49 21.5 -79 33.5c-26 -14 -48 -29.167 -66 -45.5s-32.333 -33.166 -43 -50.499s-18.334 -34.5 -23.001 -51.5s-7 -33.167 -7 -48.5c0 -16 2.66699 -31.333 8 -46s13.833 -27.5 25.5 -38.5
s26.834 -19.833 45.501 -26.5s41.334 -10 68.001 -10zM323.999 674c22 0 43.167 -2.83594 63.5 -8.50293s38.5 -14.5 54.5 -26.5s28.667 -27.167 38 -45.5s14 -40.166 14 -65.499c0 -32 -10 -63.167 -30 -93.5s-51.667 -59.833 -95 -88.5
c31.333 -16.667 55.333 -37.834 72 -63.501s25 -57.167 25 -94.5c0 -23.333 -5 -46.666 -15 -69.999s-24.667 -44.333 -44 -63s-43.5 -33.667 -72.5 -45s-62.833 -17 -101.5 -17c-34 0 -63.333 4.33301 -88 13s-45.167 20.167 -61.5 34.5s-28.333 31.166 -36 50.499
s-11.5 40 -11.5 62c0 20.667 3.16699 41.334 9.5 62.001s15.833 40.834 28.5 60.501s28.834 38 48.501 55s42.5 31.833 68.5 44.5c-51.333 31.333 -77 71.333 -77 120c0 24 5.16699 46.667 15.5 68s24.666 40.333 42.999 57s40.333 29.834 66 39.501s54.167 14.5 85.5 14.5z
" />
    <glyph glyph-name="nine" unicode="9" horiz-adv-x="517" 
d="M414 309c-23.333 -14 -50.334 -26.167 -81.001 -36.5s-63.667 -15.5 -99 -15.5c-23.333 0 -45.166 3.16699 -65.499 9.5s-38.166 16.333 -53.499 30s-27.333 31.334 -36 53.001s-13 48.167 -13 79.5c0 37.333 6 71.166 18 101.499s28.5 56 49.5 77s46 37.167 75 48.5
s60.5 17 94.5 17c35.333 0 64.666 -5.5 87.999 -16.5s42 -26.5 56 -46.5s23.833 -43.667 29.5 -71s8.5 -57.333 8.5 -90c0 -63.333 -6.66699 -122.5 -20 -177.5s-32.5 -103.167 -57.5 -144.5s-55.5 -73.833 -91.5 -97.5s-77 -35.5 -123 -35.5
c-32.667 0 -60.334 3.16699 -83.001 9.5s-40.334 13.166 -53.001 20.499c0.666992 2 1.83398 4.83301 3.50098 8.5s3.33398 7.66699 5.00098 12l4.5 12c1.33301 3.66699 2.66602 6.5 3.99902 8.5c23.333 -10 45.5 -16.667 66.5 -20s39.167 -5 54.5 -5
c25.333 0 48.166 4.83301 68.499 14.5s38.333 22.167 54 37.5s29.334 32.833 41.001 52.5s21.5 39.334 29.5 59.001s14.333 38.5 19 56.5s8.33398 33.333 11.001 46zM247.999 303c26 0 49.667 2.8291 71 8.49609s39.5 12 54.5 19s26.833 13.333 35.5 19
s13.667 8.83398 15 9.50098c1.33301 14 3 28.833 5 44.5s3 32.167 3 49.5c0 20.667 -1.83301 41.5 -5.5 62.5s-10.334 39.833 -20.001 56.5s-23.167 30.167 -40.5 40.5s-39.666 15.5 -66.999 15.5c-28.667 0 -54 -4.83301 -76 -14.5s-40.667 -23.167 -56 -40.5
s-27 -37.833 -35 -61.5s-12 -49.5 -12 -77.5c0 -19.333 2.16699 -37.166 6.5 -53.499s11.5 -30.166 21.5 -41.499s23.167 -20.166 39.5 -26.499s36.5 -9.5 60.5 -9.5z" />
    <glyph glyph-name="colon" unicode=":" horiz-adv-x="171" 
d="M71 79c10 0 18.332 -3.50098 24.999 -10.501s10 -15.5 10 -25.5c0 -13.333 -4.5 -24.666 -13.5 -33.999s-19.5 -14 -31.5 -14c-11.333 0 -20.166 3.66699 -26.499 11s-9.5 16 -9.5 26c0 13.333 4.5 24.5 13.5 33.5s19.833 13.5 32.5 13.5zM108.999 389.999
c10.667 0 19.334 -3.66699 26.001 -11s10 -16 10 -26c0 -12.667 -4.83301 -23.667 -14.5 -33s-20.167 -14 -31.5 -14c-10.667 0 -19.334 3.66699 -26.001 11s-10 16.333 -10 27c0 13.333 4.66699 24.333 14 33s20 13 32 13z" />
    <glyph glyph-name="semicolon" unicode=";" horiz-adv-x="171" 
d="M69 78c11.333 0 20.668 -4.00195 28.001 -12.002s11 -18.667 11 -32c0 -11.333 -2.5 -23.5 -7.5 -36.5s-11.667 -25.833 -20 -38.5s-18 -24.667 -29 -36s-22.833 -20.333 -35.5 -27l-12 18c24.667 24.667 40 52.334 46 83.001c-17.333 3.33301 -26 14.333 -26 33
c0 12.667 4.16699 23.834 12.5 33.501s19.166 14.5 32.499 14.5zM109.002 389.998c10.667 0 19.334 -3.66699 26.001 -11s10 -16 10 -26c0 -12.667 -4.83301 -23.667 -14.5 -33s-20.167 -14 -31.5 -14c-10.667 0 -19.334 3.66699 -26.001 11s-10 16.333 -10 27
c0 13.333 4.66699 24.333 14 33s20 13 32 13z" />
    <glyph glyph-name="less" unicode="&#x3c;" horiz-adv-x="517" 
d="M429 81l-345 195l5 41l392 194l-6 -52l-338 -163l298 -165z" />
    <glyph glyph-name="equal" unicode="=" horiz-adv-x="517" 
d="M89 350l6 44h372l-5 -44h-373zM72 208l5 43h372l-5 -43h-372z" />
    <glyph glyph-name="greater" unicode="&#x3e;" horiz-adv-x="517" 
d="M67 133l339 165c-1.33301 0.666992 -9.5 5 -24.5 13l-55 30l-70.5 38.5l-70.5 38.5l-55 30c-15 8 -23.167 12.333 -24.5 13l7 50l345 -194l-6 -41l-392 -195z" />
    <glyph glyph-name="question" unicode="?" horiz-adv-x="412" 
d="M270 703c56 0 97.165 -10.4932 123.498 -31.4932s39.5 -50.5 39.5 -88.5c0 -17.333 -3 -33.333 -9 -48s-14.167 -28.5 -24.5 -41.5s-22.166 -25.5 -35.499 -37.5s-27 -23.667 -41 -35c-23.333 -18 -44.166 -34.833 -62.499 -50.5s-34 -31.334 -47 -47.001
s-23 -32 -30 -49s-10.5 -35.833 -10.5 -56.5c0 -7.33301 0.166992 -14.5 0.5 -21.5s0.833008 -14.833 1.5 -23.5c-6.66699 -0.666992 -14.667 -1.83398 -24 -3.50098s-17 -2.83398 -23 -3.50098c-0.666992 9.33301 -1.16699 18.333 -1.5 27s-0.5 16.667 -0.5 24
c0 22 2.5 42.167 7.5 60.5s13.333 36.166 25 53.499s27 34.833 46 52.5s42.5 37.167 70.5 58.5c14.667 10.667 28.167 21.167 40.5 31.5s23 20.666 32 30.999s16.167 21.166 21.5 32.499s8 23.666 8 36.999c0 29.333 -10.833 50.166 -32.5 62.499s-48.834 18.5 -81.501 18.5
c-19.333 0 -41.666 -1.66699 -66.999 -5s-55.333 -10.666 -90 -21.999l-10 44c31.333 10.667 62.333 18.5 93 23.5s57.667 7.5 81 7.5zM156.998 75.0068c11.333 0 20.333 -3.50098 27 -10.501s10 -15.5 10 -25.5c0 -13.333 -4.83301 -24.666 -14.5 -33.999
s-20.167 -14 -31.5 -14c-10 0 -18.667 3.5 -26 10.5s-11 15.833 -11 26.5c0 12.667 4.66699 23.667 14 33s20 14 32 14z" />
    <glyph glyph-name="at" unicode="@" horiz-adv-x="879" 
d="M517 712c50 0 94.5039 -6.83398 133.504 -20.501s72 -33.167 99 -58.5s47.667 -55.833 62 -91.5s21.5 -75.834 21.5 -120.501c0 -46.667 -6.5 -87 -19.5 -121s-29.833 -62.167 -50.5 -84.5s-43.334 -38.833 -68.001 -49.5s-48.334 -16 -71.001 -16
c-19.333 0 -35 3.16699 -47 9.5s-21.5 15.166 -28.5 26.499s-12 24.5 -15 39.5s-5.16699 31.5 -6.5 49.5c-10.667 -24 -22.334 -44 -35.001 -60s-25.667 -28.833 -39 -38.5s-26.666 -16.334 -39.999 -20.001s-26 -5.5 -38 -5.5c-32 0 -57.667 11.833 -77 35.5
s-29 57.5 -29 101.5c0 36.667 4.16699 71.667 12.5 105s21 62.333 38 87s38.167 44.334 63.5 59.001s54.666 22 87.999 22c16 0 32.333 -2 49 -6s33.667 -9.33301 51 -16l8 22l38 -4l-16.5 -85l-16 -84c-5 -26.667 -9 -50.834 -12 -72.501s-4.5 -38.167 -4.5 -49.5
c0 -23.333 5.16699 -41.666 15.5 -54.999s26.5 -20 48.5 -20c14.667 0 31 4 49 12s35 21 51 39s29.5 41.333 40.5 70s16.5 63.667 16.5 105c0 82 -24.167 144.833 -72.5 188.5s-115.5 65.5 -201.5 65.5c-56 0 -107.833 -10 -155.5 -30s-88.667 -47.167 -123 -81.5
s-61.333 -74.333 -81 -120s-29.5 -94.167 -29.5 -145.5c0 -42 6.5 -80.667 19.5 -116s31.667 -65.666 56 -90.999s53.833 -45.166 88.5 -59.499s73.334 -21.5 116.001 -21.5c17.333 0 35.833 1 55.5 3s41.5 6.66699 65.5 14l12 -34c-18 -8 -40.167 -13.667 -66.5 -17
s-49.5 -5 -69.5 -5c-49.333 0 -93.833 8 -133.5 24s-73.334 38.333 -101.001 67s-49 62.834 -64 102.501s-22.5 83.167 -22.5 130.5c0 58.667 11.167 113.667 33.5 165s53.166 96 92.499 134s85.333 67.833 138 89.5s109.667 32.5 171 32.5zM387.004 191.999
c14 0 28.999 4.83496 44.999 14.502s31.833 26.167 47.5 49.5s30.5 54.666 44.5 93.999s26 89 36 149c-17.333 8.66699 -34 14.5 -50 17.5s-30 4.5 -42 4.5c-25.333 0 -47.5 -6.5 -66.5 -19.5s-34.667 -30.167 -47 -51.5s-21.5 -45.333 -27.5 -72s-9 -53.334 -9 -80.001
c0 -36 6.33301 -62.667 19 -80s29.334 -26 50.001 -26z" />
    <glyph glyph-name="A" unicode="A" horiz-adv-x="535" 
d="M435 0l-16.5 92.5l-17.5 93.5h-273l-39.5 -93.5l-39.5 -92.5h-59l152.5 349.5l146.5 333.5h74l64.5 -342l66.5 -341h-59zM319 632l-31.5 -73.5l-40 -95.5l-46.5 -110.5l-52 -119.5h243c-1.33301 6 -3.66602 19.5 -6.99902 40.5s-7.5 45.333 -12.5 73l-15.5 88.5l-15.5 88
l-13 71c-3.66699 20 -5.83398 32.667 -6.50098 38h-3z" />
    <glyph glyph-name="B" unicode="B" horiz-adv-x="565" 
d="M417 355c8 -3.33301 17.002 -8.49902 27.002 -15.499s19.5 -16.333 28.5 -28s16.667 -26.334 23 -44.001s9.5 -38.834 9.5 -63.501c0 -30 -5.66699 -57.5 -17 -82.5s-26.5 -46.5 -45.5 -64.5s-40.667 -32 -65 -42s-49.5 -15 -75.5 -15h-251l83 682h220
c59.333 0 102.666 -14 129.999 -42s41 -64.333 41 -109c0 -15.333 -1.66699 -31.166 -5 -47.499s-9 -32 -17 -47s-18.833 -29 -32.5 -42s-30.834 -24.167 -51.501 -33.5zM147.002 331.001c-5.33301 -48 -10.998 -95.499 -16.998 -142.499l-18 -142.5h176
c28 0 52 4.33301 72 13s36.5 20.5 49.5 35.5s22.667 32.167 29 51.5s9.5 39.666 9.5 60.999c0 16.667 -2.66699 32.5 -8 47.5s-13.333 28.167 -24 39.5s-23.834 20.333 -39.501 27s-33.834 10 -54.501 10h-175zM186.004 636.002c-6 -43.333 -11.5 -86.333 -16.5 -129
l-15.5 -129h158c46.667 0 84.167 13.667 112.5 41s42.5 63.333 42.5 108c0 32 -10 58.167 -30 78.5s-53 30.5 -99 30.5h-152z" />
    <glyph glyph-name="C" unicode="C" horiz-adv-x="553" 
d="M395 694c35.333 0 66.6689 -2.66992 94.002 -8.00293s50 -11.666 68 -18.999l-16 -44c-24.667 8.66699 -49.667 14.667 -75 18s-49 5 -71 5c-44.667 0 -83.5 -9.5 -116.5 -28.5s-60.5 -45.667 -82.5 -80s-38.5 -75.333 -49.5 -123s-16.5 -100.167 -16.5 -157.5
c0 -30 2.66699 -58.167 8 -84.5s15.166 -49.333 29.499 -69s33.833 -35 58.5 -46s56.334 -16.5 95.001 -16.5c8.66699 0 19.5 0.333008 32.5 1s26.833 2 41.5 4s29.667 4.5 45 7.5s30 6.5 44 10.5l11 -43c-12.667 -4.66699 -26.834 -8.66699 -42.501 -12
s-32 -6.16602 -49 -8.49902s-33.833 -4.16602 -50.5 -5.49902s-32.334 -2 -47.001 -2c-43.333 0 -80 6.16699 -110 18.5s-54.333 30 -73 53s-32.167 51 -40.5 84s-12.5 70.167 -12.5 111.5c0 24 1.66699 51.333 5 82s9.5 62.167 18.5 94.5s21.333 63.833 37 94.5
s35.5 58.167 59.5 82.5s52.833 43.833 86.5 58.5s73.167 22 118.5 22z" />
    <glyph glyph-name="D" unicode="D" horiz-adv-x="604" 
d="M52 0l82.999 684.002h201c44.667 0 81.834 -6.83301 111.501 -20.5s53 -32.334 70 -56.001s29 -51.667 36 -84s10.5 -67.166 10.5 -104.499c0 -55.333 -5.5 -108.333 -16.5 -159s-29 -95.334 -54 -134.001s-57.833 -69.334 -98.5 -92.001s-91 -34 -151 -34h-192z
M186.999 637.002l-72.0029 -589.002h127c10 0 23.5 0.833008 40.5 2.5s35.333 6.16699 55 13.5s39.334 18.5 59.001 33.5s37.667 36 54 63s29.5 60.667 39.5 101s15 89.833 15 148.5c0 54.667 -6.66699 97.334 -20 128.001s-29.666 53.334 -48.999 68.001
s-39.666 23.5 -60.999 26.5s-40 4.5 -56 4.5h-132z" />
    <glyph glyph-name="E" unicode="E" horiz-adv-x="506" 
d="M52 0l83 683h375l-5 -46h-319l-31 -252h279l-6 -46h-279l-35 -292h343l-4 -47h-401z" />
    <glyph glyph-name="F" unicode="F" horiz-adv-x="486" 
d="M52 0l83 683h375l-5 -47h-319l-31 -254h274l-6 -47h-274l-40 -335h-57z" />
    <glyph glyph-name="G" unicode="G" horiz-adv-x="592" 
d="M409 694c35.333 0 66.501 -2.5 93.501 -7.5s50.5 -10.833 70.5 -17.5l-16 -46c-26 8 -51.833 13.833 -77.5 17.5s-49.167 5.5 -70.5 5.5c-46 0 -86.5 -9.33301 -121.5 -28s-64.167 -45 -87.5 -79s-40.833 -75 -52.5 -123s-17.5 -101 -17.5 -159
c0 -30 2.66699 -58.167 8 -84.5s15 -49.166 29 -68.499s33.167 -34.5 57.5 -45.5s55.5 -16.5 93.5 -16.5c9.33301 0 19.833 0.5 31.5 1.5s23.667 2.16699 36 3.5s24.333 3.16602 36 5.49902s21.834 5.16602 30.501 8.49902l35 285h54l-41 -324
c-32 -10.667 -64.5 -18.167 -97.5 -22.5s-65.5 -6.5 -97.5 -6.5c-43.333 0 -79.833 6.16699 -109.5 18.5s-53.834 30 -72.501 53s-32.167 50.833 -40.5 83.5s-12.5 69.334 -12.5 110.001c0 24 1.66699 51.5 5 82.5s9.66602 62.667 18.999 95s22 64 38 95
s36.667 58.667 62 83s55.5 43.833 90.5 58.5s76.5 22 124.5 22z" />
    <glyph glyph-name="H" unicode="H" horiz-adv-x="606" 
d="M444 0l40.998 336h-335l-5.5 -41.5c-2.33301 -17.667 -4.66602 -37.167 -6.99902 -58.5s-5 -43.833 -8 -67.5s-5.66699 -46.167 -8 -67.5l-6.5 -59c-2 -18 -3.66699 -32 -5 -42h-58l83 683h58c-1.33301 -13.333 -3.66602 -33.833 -6.99902 -61.5l-11 -87l-11 -87
c-3.33301 -27.667 -6 -48.167 -8 -61.5h335l36 297h59l-83 -683h-59z" />
    <glyph glyph-name="I" unicode="I" horiz-adv-x="231" 
d="M61 0l84 684h57l-84 -684h-57z" />
    <glyph glyph-name="J" unicode="J" horiz-adv-x="275" 
d="M179 684h57l-69 -567c-5.33301 -40.667 -13.166 -76.667 -23.499 -108s-24.5 -58.833 -42.5 -82.5s-41 -44.167 -69 -61.5s-62 -32 -102 -44l-16 45c36 14 65.667 28.833 89 44.5s42.166 33.334 56.499 53.001s25 41.667 32 66s12.5 52.166 16.5 83.499z" />
    <glyph glyph-name="K" unicode="K" horiz-adv-x="533" 
d="M108 0h-56l83 684h57l-41 -329l351 329h68l-295 -274l217 -410h-62l-195 370l-92 -84z" />
    <glyph glyph-name="L" unicode="L" horiz-adv-x="507" 
d="M65 0l83 683h57l-78 -637h349l-5 -46h-406z" />
    <glyph glyph-name="M" unicode="M" horiz-adv-x="757" 
d="M377 130l54 125.001l195 429h63l-5 -684h-56l7 441l3 145h-4c-1.33301 -2.66699 -4.5 -9.66699 -9.5 -21l-16.5 -38.5l-19 -43.5l-16 -36l-16 -34.5l-28.5 -60.5l-35.5 -76l-38 -81l-35.5 -75l-27.5 -59h-56l-93 385c-2 9.33301 -4.66699 21.166 -8 35.499l-9.5 42.5
l-8.5 38l-5 21h-5c-1.33301 -4.66699 -3 -13 -5 -25l-6.5 -39l-7 -42c-2.33301 -14 -4.5 -25.333 -6.5 -34c-1.33301 -6 -3.83301 -18.333 -7.5 -37l-13 -67.5l-16.5 -87l-18 -93.5l-17 -87.5l-14 -70.5h-58l139 684h62l105 -430l27 -124h6z" />
    <glyph glyph-name="N" unicode="N" horiz-adv-x="637" 
d="M489 99l71.002 584h57l-84 -683h-56l-246 490l-49 101c-0.666992 0 -1.33398 -0.166992 -2.00098 -0.5s-1.33398 -0.5 -2.00098 -0.5l-71 -590h-56l83 683h58l29 -56.5l40 -79l46.5 -92l48 -95.5l45 -90l38.5 -76l47 -95h3z" />
    <glyph glyph-name="O" unicode="O" horiz-adv-x="656" 
d="M385 694c44 0 80.833 -7.33496 110.5 -22.002s53.5 -34.667 71.5 -60s30.667 -54.833 38 -88.5s11 -69.5 11 -107.5c0 -58 -6.66699 -112.667 -20 -164s-33 -96.166 -59 -134.499s-58.167 -68.666 -96.5 -90.999s-82.5 -33.5 -132.5 -33.5c-43.333 0 -80 6 -110 18
s-54.5 29.5 -73.5 52.5s-32.833 51 -41.5 84s-13 70.167 -13 111.5c0 53.333 5.5 106 16.5 158s29 98.5 54 139.5s57.5 74.167 97.5 99.5s89 38 147 38zM385 647.998c-50 0 -91.5 -12.001 -124.5 -36.001s-59.5 -54.833 -79.5 -92.5s-34 -79.5 -42 -125.5s-12 -91 -12 -135
c0 -72.667 14.167 -127.5 42.5 -164.5s74.5 -55.5 138.5 -55.5c44.667 0 82.667 10.833 114 32.5s57 50.334 77 86.001s34.667 76 44 121s14 90.833 14 137.5c0 29.333 -2.33301 58 -7 86s-13.334 52.833 -26.001 74.5s-30.167 39 -52.5 52s-51.166 19.5 -86.499 19.5z" />
    <glyph glyph-name="P" unicode="P" horiz-adv-x="507" 
d="M339 684c52.667 0 95.167 -14.001 127.5 -42.001s48.5 -71 48.5 -129c0 -23.333 -3.66699 -48.166 -11 -74.499s-19.5 -50.5 -36.5 -72.5s-39.5 -40.333 -67.5 -55s-63 -22 -105 -22h-151l-34 -289h-58l83 684h204zM187 636.999l-37.001 -302.002h148
c16.667 0 34.334 2.66699 53.001 8s35.834 14.833 51.501 28.5s28.667 31.834 39 54.501s15.5 51 15.5 85c0 42.667 -11.833 74.334 -35.5 95.001s-53.834 31 -90.501 31h-144z" />
    <glyph glyph-name="Q" unicode="Q" horiz-adv-x="657" 
d="M384 693c44 0 80.832 -7.33301 110.499 -22s53.5 -34.5 71.5 -59.5s30.667 -54.5 38 -88.5s11 -70 11 -108c0 -47.333 -4.33301 -92.333 -13 -135s-21.667 -81.667 -39 -117s-38.666 -66 -63.999 -92s-54.666 -45.667 -87.999 -59l75.5 -20l75.5 -21l-27 -54l-108 38.5
l-108 38.5c-2 0 -3.83301 -0.166992 -5.5 -0.5s-3.83398 -0.5 -6.50098 -0.5c-43.333 0 -80 6 -110 18s-54.5 29.5 -73.5 52.5s-32.833 51 -41.5 84s-13 70.167 -13 111.5c0 53.333 5.5 105.833 16.5 157.5s29 98 54 139s57.5 74.167 97.5 99.5s89 38 147 38zM383.999 647
c-50 0 -91.5 -12 -124.5 -36s-59.333 -54.833 -79 -92.5s-33.5 -79.334 -41.5 -125.001s-12 -90.5 -12 -134.5c0 -72.667 14 -127.667 42 -165s74 -56 138 -56c44.667 0 82.667 10.833 114 32.5s57 50.334 77 86.001s34.667 76 44 121s14 90.833 14 137.5
c0 29.333 -2.33301 58 -7 86s-13.334 52.833 -26.001 74.5s-30.167 39 -52.5 52s-51.166 19.5 -86.499 19.5z" />
    <glyph glyph-name="R" unicode="R" horiz-adv-x="547" 
d="M517 509c-1.33301 -20 -5.33203 -39.998 -11.999 -59.998s-15.667 -38.5 -27 -55.5s-25.5 -31.833 -42.5 -44.5s-36.833 -21.667 -59.5 -27c26 -9.33301 45 -24.333 57 -45s20.667 -45 26 -73l37 -204h-58l-36 196c-4.66699 22 -11.334 40.167 -20.001 54.5
s-19 25.666 -31 33.999s-25.5 14.166 -40.5 17.499s-31.167 5 -48.5 5h-116l-38 -307h-56l83 684h209c32.667 0 60.5 -4.33301 83.5 -13s41.5 -20.834 55.5 -36.501s23.667 -34.167 29 -55.5s7 -44.666 5 -69.999zM299.001 354.002c19.333 0 38.167 2.66699 56.5 8
s34.666 14 48.999 26s26.333 27.667 36 47s15.5 43 17.5 71c1.33301 22.667 -0.666992 42.167 -6 58.5s-13.666 29.833 -24.999 40.5s-25 18.5 -41 23.5s-33.667 7.5 -53 7.5h-147l-35 -282h148z" />
    <glyph glyph-name="S" unicode="S" horiz-adv-x="533" 
d="M324 695c24 0 51.5 -2.33301 82.5 -7s59.833 -14.334 86.5 -29.001l-22 -45c-30.667 13.333 -58.334 21.833 -83.001 25.5s-48.667 5.5 -72 5.5c-20 0 -39.667 -2.33301 -59 -7s-36.5 -12.334 -51.5 -23.001s-27.333 -24.5 -37 -41.5s-14.5 -37.833 -14.5 -62.5
c0 -20 3.66699 -37 11 -51s17.5 -25.833 30.5 -35.5s28.5 -17.834 46.5 -24.501s37.667 -13.334 59 -20.001l67 -23.5c22.667 -8.33301 43.167 -19.166 61.5 -32.499s33.333 -30.166 45 -50.499s17.5 -45.833 17.5 -76.5c0 -38.667 -7.33301 -71 -22 -97
s-34.167 -47 -58.5 -63s-51.833 -27.333 -82.5 -34s-62 -10 -94 -10c-33.333 0 -67.5 3.5 -102.5 10.5s-67.833 20.167 -98.5 39.5l22 44c34.667 -18.667 66.834 -31 96.501 -37s57.834 -9 84.501 -9c24.667 0 48.667 2.33301 72 7s44.166 12.667 62.499 24
s33.166 26.333 44.499 45s17 42 17 70c0 20.667 -3.33301 38.334 -10 53.001s-16.334 27.167 -29.001 37.5s-28 19.333 -46 27s-38.333 15.167 -61 22.5c-27.333 8 -52.666 16.667 -75.999 26s-43.666 20.5 -60.999 33.5s-31 29 -41 48s-15 42.167 -15 69.5
c0 32.667 6.16699 61 18.5 85s29 43.833 50 59.5s45.333 27.334 73 35.001s57.167 11.5 88.5 11.5z" />
    <glyph glyph-name="T" unicode="T" horiz-adv-x="518" 
d="M206 0l77 636h-213l6 48h482l-6 -48h-213l-78 -636h-55z" />
    <glyph glyph-name="U" unicode="U" horiz-adv-x="635" 
d="M567 243c-4.66699 -37.333 -13.332 -71.333 -25.999 -102s-29.834 -57 -51.501 -79s-48 -39 -79 -51s-67.167 -18 -108.5 -18c-85.333 0 -146.333 22 -183 66s-50 105.333 -40 184l54 441h56l-54 -440c-8 -68 2.16699 -119.167 30.5 -153.5s73.833 -51.5 136.5 -51.5
c60.667 0 108.5 18 143.5 54s56.5 86.333 64.5 151l54 440h57z" />
    <glyph glyph-name="V" unicode="V" horiz-adv-x="510" 
d="M239 61l54 136l203 487h60l-291 -684h-70l-123 684h59l82 -489l22 -134h4z" />
    <glyph glyph-name="W" unicode="W" horiz-adv-x="782" 
d="M429 600l-29.501 -86.001l-28.5 -87l-37 -104l-34.5 -101l-36.5 -105.5l-41 -116.5h-73l-39.5 341l-39.5 341h58l22.5 -217l23.5 -217l18 -183h2l42 120l86 249l87 248h60c4 -25.333 8.5 -56.166 13.5 -92.499l16 -112.5l16 -113l12.5 -93l7 -49
c2.66699 -18.667 5.16699 -37.667 7.5 -57l7 -55.5c2.33301 -17.667 4.5 -32.5 6.5 -44.5h3l35.5 105.5l36.5 104.5l69.5 204l70.5 203h56l-123.5 -349.5l-119.5 -332.5h-68l-30.5 214c-10.333 70 -20.166 142 -29.499 216l-10.5 85c-3.66699 28.667 -7.5 57 -11.5 85h-4z
" />
    <glyph glyph-name="X" unicode="X" horiz-adv-x="511" 
d="M238 354l-77.5 164l-78.5 165h64l65 -144.5l67 -143.5l101 143.5l101 144.5h63l-119.5 -166l-119.5 -165l168 -352h-63l-144 310l-216 -310h-63l252 354v0z" />
    <glyph glyph-name="Y" unicode="Y" horiz-adv-x="485" 
d="M222 302l-150 382h58l78 -203l46 -126h4l79 125l133 204h62l-250 -378l-37 -306h-60z" />
    <glyph glyph-name="Z" unicode="Z" horiz-adv-x="488" 
d="M101 684h397l6 -48l-436 -587h382l-6 -49h-441l-4 48l436 587h-340z" />
    <glyph glyph-name="bracketleft" unicode="[" horiz-adv-x="237" 
d="M11 -160l106.001 856h144l-5 -42h-93c-2.66699 -23.333 -6.66699 -55.333 -12 -96l-17 -135l-19 -154.5l-19 -154.5l-16.5 -135l-11.5 -96h93c-1.33301 -5.33301 -2.33301 -12.5 -3 -21.5s-1.33398 -16.167 -2.00098 -21.5h-145z" />
    <glyph glyph-name="backslash" unicode="\" horiz-adv-x="312" 
d="M71 699h39l162 -726h-41z" />
    <glyph glyph-name="bracketright" unicode="]" horiz-adv-x="237" 
d="M-9 -160c1.33301 5.33301 2.33203 12.5 2.99902 21.5s1.33398 16.167 2.00098 21.5h93l94 771h-93l5 42h146l-105 -856h-145z" />
    <glyph glyph-name="asciicircum" unicode="^" horiz-adv-x="417" 
d="M368 391l-106 245l-166 -245h-49l201 292h39l126 -292h-45z" />
    <glyph glyph-name="underscore" unicode="_" horiz-adv-x="485" 
d="M-40 -124l4 36h484l-4 -36h-484z" />
    <glyph glyph-name="grave" unicode="`" horiz-adv-x="470" 
d="M181 676l47 37l101 -152l-29 -20z" />
    <glyph glyph-name="a" unicode="a" horiz-adv-x="491" 
d="M280 493c21.333 0 42.498 -2.16797 63.498 -6.50098s41.5 -10.5 61.5 -18.5l8 24l40 -2c-2 -11.333 -4.5 -28 -7.5 -50l-10 -75.5l-11.5 -89.5l-11.5 -91l-10 -81c-3 -24.667 -5.16699 -44.334 -6.5 -59.001l61 2l4 -34c-15.333 -6.66699 -29.333 -11.167 -42 -13.5
s-23 -3.5 -31 -3.5c-15.333 0 -26.333 3.16699 -33 9.5s-10 15.5 -10 27.5v12.5c0 5.66699 0.666992 13.167 2 22.5l-1 2c-29.333 -24 -58.666 -42.5 -87.999 -55.5s-57.666 -19.5 -84.999 -19.5c-38.667 0 -70.834 14.333 -96.501 43s-38.5 71.334 -38.5 128.001
c0 38 4.66699 76.5 14 115.5s23.833 74.333 43.5 106s44.834 57.334 75.501 77.001s67 29.5 109 29.5zM277.998 447.999c-24.667 0 -48 -6.16602 -70 -18.499s-41.333 -30.333 -58 -54s-30 -52.5 -40 -86.5s-15 -72.333 -15 -115c0 -48.667 9.16699 -83.334 27.5 -104.001
s40.5 -31 66.5 -31c27.333 0 55 7.66699 83 23s54.333 33.333 79 54l42 307c-21.333 9.33301 -41.5 15.833 -60.5 19.5s-37.167 5.5 -54.5 5.5z" />
    <glyph glyph-name="b" unicode="b" horiz-adv-x="489" 
d="M39 38l84 680.999h54l-8.5 -74.5c-3 -27 -6.16699 -54 -9.5 -81s-6.83301 -53 -10.5 -78s-7.16699 -46.5 -10.5 -64.5l3 -4c30 24 59.667 42.833 89 56.5s57.333 20.5 84 20.5c39.333 0 71.833 -14.167 97.5 -42.5s38.5 -71.166 38.5 -128.499
c0 -39.333 -4.83301 -78.5 -14.5 -117.5s-24.5 -74.167 -44.5 -105.5s-45.667 -56.833 -77 -76.5s-68.333 -29.5 -111 -29.5c-27.333 0 -54.5 3 -81.5 9s-53.167 15 -78.5 27zM205 38.999c24.667 0 48.332 5.99902 70.999 17.999s42.667 29.833 60 53.5s31.333 52.667 42 87
s16 73.833 16 118.5c0 48 -9.33301 82.167 -28 102.5s-41 30.5 -67 30.5c-13.333 0 -27.166 -2.33301 -41.499 -7s-28.5 -10.667 -42.5 -18s-27.667 -15.666 -41 -24.999s-26 -19 -38 -29l-40 -308c20 -9.33301 38.833 -15.5 56.5 -18.5s35.167 -4.5 52.5 -4.5z" />
    <glyph glyph-name="c" unicode="c" horiz-adv-x="419" 
d="M214 37c25.333 0 49.0029 2.66602 71.0029 7.99902s46.667 13.333 74 24l13 -35c-20.667 -11.333 -46 -21 -76 -29s-60 -12 -90 -12c-30.667 0 -56.667 4.33301 -78 13s-38.5 21 -51.5 37s-22.5 35 -28.5 57s-9 46.333 -9 73c0 28 3 60.5 9 97.5s17.667 72.167 35 105.5
s41.833 61.5 73.5 84.5s73.167 34.5 124.5 34.5c52 0 96 -10.333 132 -31l-18 -37c-25.333 11.333 -48 18.166 -68 20.499s-36.667 3.5 -50 3.5c-30 0 -56.333 -7.16699 -79 -21.5s-41.834 -33.833 -57.501 -58.5s-27.334 -53.667 -35.001 -87s-11.5 -68.666 -11.5 -105.999
c0 -19.333 2 -37.666 6 -54.999s10.5 -32.333 19.5 -45s21.167 -22.667 36.5 -30s34.666 -11 57.999 -11z" />
    <glyph glyph-name="d" unicode="d" horiz-adv-x="476" 
d="M340 0l7.99805 66.998l-2 2c-29.333 -24 -58.666 -42.5 -87.999 -55.5s-57.333 -19.5 -84 -19.5c-40 0 -72.5 14.333 -97.5 43s-37.5 71.334 -37.5 128.001c0 38 4.5 76.5 13.5 115.5s23.333 74.333 43 106s44.834 57.334 75.501 77.001s67.334 29.5 110.001 29.5
c20 0 39.667 -1.83301 59 -5.5s38.666 -9.16699 57.999 -16.5l30 239h53l-89 -710h-52zM277.998 447.998c-24 0 -47.167 -6.16602 -69.5 -18.499s-41.833 -30.333 -58.5 -54s-30 -52.5 -40 -86.5s-15 -72.333 -15 -115c0 -48.667 9.16699 -83.334 27.5 -104.001
s40.5 -31 66.5 -31c27.333 0 55.166 7.66699 83.499 23s54.833 33.333 79.5 54l40 307c-21.333 9.33301 -41.166 15.833 -59.499 19.5s-36.5 5.5 -54.5 5.5z" />
    <glyph glyph-name="e" unicode="e" horiz-adv-x="436" 
d="M284 496c22.667 0 41.999 -3.16602 57.999 -9.49902s29.333 -14.833 40 -25.5s18.5 -23 23.5 -37s7.5 -28.333 7.5 -43c0 -32 -8.33301 -58.833 -25 -80.5s-39.5 -39.5 -68.5 -53.5s-62.833 -24.5 -101.5 -31.5s-80 -11.833 -124 -14.5c-0.666992 -6 -1 -11.5 -1 -16.5
v-13.5c0 -15.333 1.66699 -31 5 -47s9.33301 -30.5 18 -43.5s20.667 -23.667 36 -32s35.333 -12.5 60 -12.5s49 2.83301 73 8.5s48.333 14.167 73 25.5l13 -35c-21.333 -12.667 -46.833 -22.667 -76.5 -30s-60.834 -11 -93.501 -11s-59.5 5 -80.5 15s-37.667 23.5 -50 40.5
s-20.833 36.667 -25.5 59s-7 46.166 -7 71.499c0 31.333 3.83301 65.5 11.5 102.5s20.834 71.333 39.501 103s43.834 58 75.501 79s71.5 31.5 119.5 31.5zM275.999 451.001c-26 0 -49.334 -5.49902 -70.001 -16.499s-38.5 -26 -53.5 -45s-27.167 -41.333 -36.5 -67
s-15.666 -53.5 -18.999 -83.5c84 4 148.667 16.667 194 38s68 53.666 68 96.999c0 23.333 -6.5 42 -19.5 56s-34.167 21 -63.5 21z" />
    <glyph glyph-name="f" unicode="f" horiz-adv-x="304" 
d="M173 443l-40.9961 -363c-4.66699 -38.667 -10.167 -75.667 -16.5 -111s-16 -66.666 -29 -93.999s-30.5 -49.166 -52.5 -65.499s-50.667 -24.5 -86 -24.5c-24 0 -51.667 3.66699 -83 11l11 39c14 -2.66699 26 -4.66699 36 -6s19.667 -2 29 -2
c39.333 0 69.166 16.5 89.499 49.5s34.5 82.167 42.5 147.5l18.5 156l14.5 126.5c4 36.333 7.16699 66.166 9.5 89.499s3.83301 39 4.5 47h-80l4 30c4 0.666992 9.66699 1.66699 17 3l24 4.5l24 4.5c7.33301 1.33301 13 2.66602 17 3.99902l6 43c4 31.333 10 59 18 83
s18.5 44.333 31.5 61s29.167 29.167 48.5 37.5s42.666 12.5 69.999 12.5c12 0 25.167 -0.666992 39.5 -2s28.833 -4 43.5 -8l-5 -21l-5 -21c-13.333 2.66699 -25.5 4.5 -36.5 5.5s-21.167 1.5 -30.5 1.5c-16 0 -30.667 -2 -44 -6s-25.333 -11.833 -36 -23.5
s-19.834 -28.5 -27.501 -50.5s-13.5 -51 -17.5 -87c0 -3.33301 -0.333008 -8.33301 -1 -15s-1.33398 -11.667 -2.00098 -15h137l-5 -41h-137z" />
    <glyph glyph-name="g" unicode="g" horiz-adv-x="490" 
d="M392 0c-3.33301 -24 -8.33398 -48.833 -15.001 -74.5s-18.167 -49.167 -34.5 -70.5s-38.666 -38.833 -66.999 -52.5s-65.833 -20.5 -112.5 -20.5c-26 0 -51 3.5 -75 10.5s-43.333 13.833 -58 20.5l18 43c17.333 -8.66699 37 -15.334 59 -20.001s43 -7 63 -7
c34.667 0 62.667 5.33301 84 16s38.166 25.334 50.499 44.001s21.333 40.5 27 65.5s10.5 51.833 14.5 80.5c0.666992 6 1.33398 11.333 2.00098 16s1.66699 9.66699 3 15l-3 3c-30 -24 -59.333 -42.5 -88 -55.5s-56.667 -19.5 -84 -19.5c-38.667 0 -71 14 -97 42
s-39 70.667 -39 128v1c0 39.333 4.83301 78.5 14.5 117.5s24.667 74.167 45 105.5s46 56.666 77 75.999s67.833 29 110.5 29c28 0 55.333 -3 82 -9s52 -15.333 76 -28c1.33301 -1.33301 2.33301 -2.66602 3 -3.99902l2 -4zM284.999 448
c-24.667 0 -48.332 -6.16797 -70.999 -18.501s-42.834 -30.166 -60.501 -53.499s-31.667 -52.166 -42 -86.499s-15.5 -73.833 -15.5 -118.5c0 -48.667 9.33301 -83.167 28 -103.5s41 -30.5 67 -30.5c27.333 0 55.333 8 84 24s55.334 34.667 80.001 56l19.5 153
c6.33301 50.667 13.166 102 20.499 154c-20.667 9.33301 -40.167 15.666 -58.5 18.999s-35.5 5 -51.5 5z" />
    <glyph glyph-name="h" unicode="h" horiz-adv-x="479" 
d="M342 0l38 340.001c2 12 3 23.667 3 35c0 23.333 -5.16699 41.666 -15.5 54.999s-28.5 20 -54.5 20c-26.667 0 -55.334 -7.83301 -86.001 -23.5s-62 -37.5 -94 -65.5c-2 -19.333 -5 -45.333 -9 -78l-12 -102.5l-12 -102.5c-4 -32.667 -7.33301 -58.667 -10 -78h-55
c3.33301 24.667 7.33301 56.167 12 94.5l15 125.5l16.5 140l16.5 140l15 125l12 95h54l-9.5 -76.5l-11 -91l-10.5 -84.5c-3.33301 -26 -6.33301 -44.667 -9 -56l3 -2c34.667 28.667 68.834 50.167 102.501 64.5s63.5 21.5 89.5 21.5c20.667 0 37.834 -2.66699 51.501 -8
s24.667 -12.5 33 -21.5s14.166 -19.5 17.499 -31.5s5 -25 5 -39v-16.5c0 -5.66699 -0.666992 -11.167 -2 -16.5l-40 -363h-54z" />
    <glyph glyph-name="i" unicode="i" horiz-adv-x="214" 
d="M51 0l59 486.001h55c-1.33301 -7.33301 -3.5 -23.5 -6.5 -48.5l-10.5 -88l-13 -108l-13.5 -107.5l-11 -87c-3 -24.667 -4.83301 -40.334 -5.5 -47.001h-54zM155 654.001c10 0 18.334 -3.5 25.001 -10.5s10 -15.5 10 -25.5c0 -12 -4 -22.5 -12 -31.5
s-18.333 -13.5 -31 -13.5c-9.33301 0 -17.333 3.33301 -24 10s-10 15 -10 25c0 13.333 4.16699 24.333 12.5 33s18.166 13 29.499 13z" />
    <glyph glyph-name="j" unicode="j" horiz-adv-x="234" 
d="M184 486c-1.33301 -9.33301 -3.33398 -26.498 -6.00098 -51.498l-9.5 -85.5l-12 -100c-4.33301 -34.667 -8.16602 -66.834 -11.499 -96.501s-6.33301 -54.5 -9 -74.5s-4 -31 -4 -33c-4 -33.333 -9.33301 -63.833 -16 -91.5s-16.667 -52.5 -30 -74.5
s-31.166 -40.833 -53.499 -56.5s-51.166 -27.834 -86.499 -36.501l-12 40c29.333 10 52.666 22 69.999 36s31 29.667 41 47s17.167 36.333 21.5 57s8.16602 43 11.499 67l52 453h54zM172.999 654.002c10 0 18.5 -3.5 25.5 -10.5s10.5 -15.5 10.5 -25.5
c0 -12 -4 -22.5 -12 -31.5s-18.333 -13.5 -31 -13.5c-10 0 -18.167 3.33301 -24.5 10s-9.5 15 -9.5 25c0 13.333 4 24.333 12 33s17.667 13 29 13z" />
    <glyph glyph-name="k" unicode="k" horiz-adv-x="418" 
d="M126 263l41.999 38.5l50 46.5l65 60l87 79h63l-43.5 -40.5l-62 -57.5l-62.5 -57.5l-44 -40.5l23 -30l144 -261h-59l-17 32l-25 46.5l-29 53l-28.5 53l-25 46c-7.66699 13.667 -13.5 24.5 -17.5 32.5l-72 -65l-24 -198h-53l86 709h54l-38 -315
c-3.33301 -21.333 -6.16602 -42.333 -8.49902 -63s-5.5 -43 -9.5 -67z" />
    <glyph glyph-name="l" unicode="l" horiz-adv-x="213" 
d="M186 719c-1.33301 -9.33301 -3.16602 -25.167 -5.49902 -47.5s-5.5 -49 -9.5 -80l-12.5 -101l-13.5 -111l-13.5 -111c-4.33301 -36.333 -8.5 -69.5 -12.5 -99.5l-10 -77.5c-2.66699 -21.667 -4.33398 -36.5 -5.00098 -44.5l65 2l4 -38
c-13.333 -6.66699 -27.333 -11.5 -42 -14.5s-27 -4.5 -37 -4.5c-16 0 -27.5 3.33301 -34.5 10s-10.5 16.667 -10.5 30c0 2.66699 0.166992 6 0.5 10s0.833008 8.33301 1.5 13l82 664h53z" />
    <glyph glyph-name="m" unicode="m" horiz-adv-x="757" 
d="M139 412c70.667 56 129.332 84 175.999 84c19.333 0 35.5 -2.33301 48.5 -7s23.667 -11 32 -19s14.5 -17.5 18.5 -28.5s6.66699 -22.833 8 -35.5c34.667 30 68.334 52.5 101.001 67.5s60.667 22.5 84 22.5c21.333 0 39 -2.66699 53 -8s25 -12.833 33 -22.5
s13.5 -20.667 16.5 -33s4.5 -25.5 4.5 -39.5c0 -5.33301 -0.166992 -10.333 -0.5 -15s-0.833008 -9.66699 -1.5 -15l-41 -363h-53l40 347c1.33301 6 2 11.833 2 17.5v14.5c0 22 -5.33301 39.167 -16 51.5s-29 18.5 -55 18.5c-24 0 -50.5 -7.5 -79.5 -22.5
s-58.833 -36.5 -89.5 -64.5l-3 -33l-36 -329h-54l40 346l2 16.5c0.666992 5.66699 1 11.167 1 16.5c0 22 -5.16699 39.167 -15.5 51.5s-29.5 18.5 -57.5 18.5c-23.333 0 -48.833 -7.66699 -76.5 -23s-56.834 -37 -87.501 -65l-21.5 -180.5l-21.5 -180.5h-55
c10.667 81.333 20.834 163 30.501 245l28.5 241h52l-4.5 -37.5c-1.66699 -13.667 -3.5 -25.167 -5.5 -34.5z" />
    <glyph glyph-name="n" unicode="n" horiz-adv-x="481" 
d="M342 0l40.001 350.001c1.33301 5.33301 2 10.333 2 15v14c0 11.333 -1.33301 20 -4 26c-3.33301 15.333 -10.5 26.666 -21.5 33.999s-27.167 11 -48.5 11c-26 0 -53.833 -7.83301 -83.5 -23.5s-60.167 -37.5 -91.5 -65.5l-45 -361h-54c2 15.333 4.5 35.833 7.5 61.5
s6.5 53.834 10.5 84.501l12.5 96.5l12 97l10 85l7.5 62.5h52l-4.5 -38c-1.66699 -14 -3.5 -25.667 -5.5 -35c2 -2 3 -2.66699 3 -2c72 56.667 134.667 85 188 85c21.333 0 39 -2.83301 53 -8.5s25.167 -13.167 33.5 -22.5s14.166 -20.5 17.499 -33.5s5 -26.5 5 -40.5
c0 -4.66699 -0.166992 -9.33398 -0.5 -14.001s-0.833008 -9.66699 -1.5 -15l-40 -363h-54z" />
    <glyph glyph-name="o" unicode="o" horiz-adv-x="477" 
d="M269 450c-34.667 0 -63.332 -9.33203 -85.999 -27.999s-40.667 -41.667 -54 -69s-22.666 -57 -27.999 -89s-8 -61.333 -8 -88c0 -18 1.83301 -35.5 5.5 -52.5s10 -32 19 -45s21.333 -23.333 37 -31s35.5 -11.5 59.5 -11.5c35.333 0 64.166 9.33301 86.499 28
s39.666 41.5 51.999 68.5s20.833 55.5 25.5 85.5s7 56.667 7 80c0 19.333 -1.66699 38.166 -5 56.499s-9.5 34.5 -18.5 48.5s-21 25.333 -36 34s-33.833 13 -56.5 13zM270.002 495.001c32 0 58.8291 -5.33203 80.4961 -15.999s39.334 -25 53.001 -43
s23.334 -38.667 29.001 -62s8.5 -48 8.5 -74c0 -32 -3.5 -65.833 -10.5 -101.5s-19.333 -68.834 -37 -99.501s-41.5 -56 -71.5 -76s-67.667 -30 -113 -30c-33.333 0 -60.833 5 -82.5 15s-39.167 23.667 -52.5 41s-22.666 37.333 -27.999 60s-8 47 -8 73
c0 34.667 4 70.5 12 107.5s21.167 70.667 39.5 101s42.333 55.333 72 75s65.834 29.5 108.501 29.5z" />
    <glyph glyph-name="p" unicode="p" horiz-adv-x="485" 
d="M148 486l-8.99805 -65.999l3 -3c59.333 50 116.666 75 171.999 75c39.333 0 71.666 -14.333 96.999 -43s38 -71 38 -127c0 -38.667 -4.66699 -77.5 -14 -116.5s-23.833 -74.333 -43.5 -106s-44.667 -57.334 -75 -77.001s-66.833 -29.5 -109.5 -29.5
c-20 0 -39.667 2 -59 6s-38.666 9.66699 -57.999 17c-1.33301 -14 -3.33301 -31.833 -6 -53.5s-5.5 -43.5 -8.5 -65.5l-8.5 -62.5c-2.66699 -19.667 -4.33398 -34.5 -5.00098 -44.5h-53l87 696h52zM210.002 39.001c24 0 46.999 6.16699 68.999 18.5s41.333 30.166 58 53.499
s30 52 40 86s15 72.667 15 116c0 48 -9.16699 82.5 -27.5 103.5s-40.5 31.5 -66.5 31.5c-27.333 0 -55 -7.66699 -83 -23s-54.667 -33.333 -80 -54l-39 -308c20.667 -9.33301 40.334 -15.666 59.001 -18.999s37 -5 55 -5z" />
    <glyph glyph-name="q" unicode="q" horiz-adv-x="490" 
d="M313 -210c2.66699 24 5.66895 48.668 9.00195 74.001l9.5 74.5c3 24.333 6.16699 47.333 9.5 69l9 58.5l-3 3c-30 -24 -59.667 -42.833 -89 -56.5s-57.666 -20.5 -84.999 -20.5c-38.667 0 -70.834 14.167 -96.501 42.5s-38.834 71.5 -39.501 129.5
c0 38.667 4.83301 77.667 14.5 117s24.667 74.666 45 105.999s46.166 56.833 77.499 76.5s68.333 29.5 111 29.5c27.333 0 54.5 -3 81.5 -9s52.833 -15.333 77.5 -28l5 -7l-81 -659h-55zM283.002 448.001c-24.667 0 -48.333 -6.16797 -71 -18.501
s-42.834 -30.166 -60.501 -53.499s-31.667 -52.166 -42 -86.499s-15.5 -73.833 -15.5 -118.5c0 -24 2.5 -44.5 7.5 -61.5s11.833 -30.833 20.5 -41.5s18.667 -18.334 30 -23.001s23.666 -7 36.999 -7c26.667 0 54.334 7.83301 83.001 23.5s55.334 34.167 80.001 55.5l40 307
c-20 10 -38.833 16.5 -56.5 19.5s-35.167 4.5 -52.5 4.5z" />
    <glyph glyph-name="r" unicode="r" horiz-adv-x="297" 
d="M154 487c-2 -17.333 -3.66602 -32.334 -4.99902 -45.001s-3.33301 -27 -6 -43h3c19.333 32 38.166 55.667 56.499 71s38.833 23 61.5 23c12 0 23.667 -2.16699 35 -6.5s21 -12.833 29 -25.5l-19 -37c-15.333 5.33301 -30.333 8 -45 8c-15.333 0 -29.333 -3 -42 -9
s-24 -13.833 -34 -23.5s-19 -20.667 -27 -33s-15 -25.166 -21 -38.499c-1.33301 -8 -3 -20.667 -5 -38l-7 -58l-8.5 -68l-8.5 -68l-7.5 -58c-2.33301 -17.333 -3.83301 -30 -4.5 -38h-53l29 238c10 81.333 19.667 164.333 29 249h50v0z" />
    <glyph glyph-name="s" unicode="s" horiz-adv-x="401" 
d="M29 68c25.333 -13.333 50.332 -22 74.999 -26s45.667 -6 63 -6c18 0 35.333 1.66699 52 5s31.5 8.83301 44.5 16.5s23.333 17.5 31 29.5s11.5 27 11.5 45c0 14 -2.83301 26 -8.5 36s-13.5 18.833 -23.5 26.5s-21.833 14.334 -35.5 20.001s-28.5 11.5 -44.5 17.5
c-16.667 6 -32.834 12.667 -48.501 20s-29.667 15.666 -42 24.999s-22.333 20.666 -30 33.999s-11.5 29 -11.5 47c0 24.667 5 45.667 15 63s23.333 31.333 40 42s35.334 18.5 56.001 23.5s42 7.5 64 7.5c8.66699 0 18.334 -0.666992 29.001 -2
s21.834 -3.16602 33.501 -5.49902s23.167 -5.5 34.5 -9.5s22 -8.66699 32 -14l-19 -38c-22 9.33301 -42.667 15.833 -62 19.5s-36 5.5 -50 5.5c-13.333 0 -27 -1.5 -41 -4.5s-26.833 -8 -38.5 -15s-21.167 -16.167 -28.5 -27.5s-11 -25.666 -11 -42.999
c0 -12 3.16699 -22.333 9.5 -31s14.333 -16.334 24 -23.001s20.5 -12.5 32.5 -17.5s23.667 -9.5 35 -13.5l49.5 -19.5c17 -7 32.167 -15.5 45.5 -25.5s24.333 -22.167 33 -36.5s13 -31.833 13 -52.5c0 -26 -5.16699 -48.333 -15.5 -67s-24.333 -34 -42 -46
s-38 -20.667 -61 -26s-47.5 -8 -73.5 -8c-28 0 -56.333 3.16699 -85 9.5s-52.334 15.5 -71.001 27.5z" />
    <glyph glyph-name="t" unicode="t" horiz-adv-x="326" 
d="M138 120c-0.666992 -4 -0.998047 -8.00293 -0.998047 -12.0029v-11c0 -17.333 3.66699 -31 11 -41s22.666 -15 45.999 -15c11.333 0 25.5 1.33301 42.5 4s35.167 6.66699 54.5 12l9 -37c-18 -7.33301 -38.667 -13.166 -62 -17.499s-43 -6.5 -59 -6.5
c-31.333 0 -55.333 6.83301 -72 20.5s-25 36.5 -25 68.5c0 2.66699 0.166992 5.83398 0.5 9.50098s0.5 6.83398 0.5 9.50098l41 342h-68l3 31c12 2.66699 24.167 5 36.5 7s24.166 4.33301 35.499 7l15.5 50c5 16 9.83301 32.333 14.5 49l35 5
c-0.666992 -5.33301 -1.5 -13 -2.5 -23s-2.16699 -20.333 -3.5 -31l-4 -31l-3 -23h140l-5 -41h-139z" />
    <glyph glyph-name="u" unicode="u" horiz-adv-x="461" 
d="M138 487l-41 -351.003c-0.666992 -5.33301 -1 -10.333 -1 -15v-14c0 -22.667 5 -40 15 -52s29 -18 57 -18c49.333 0 107 29.333 173 88l45 362h52c-2 -15.333 -4.5 -35.666 -7.5 -60.999l-10 -83.5l-11.5 -95.5l-11.5 -96.5l-10 -86
c-3 -26.333 -5.16699 -47.833 -6.5 -64.5h-51l9 72c-1.33301 1.33301 -2.33301 2 -3 2c-37.333 -30 -71.333 -51.5 -102 -64.5s-59 -19.5 -85 -19.5c-21.333 0 -39 2.66699 -53 8s-25 12.833 -33 22.5s-13.667 20.834 -17 33.501s-5 26 -5 40
c0 4.66699 0.166992 9.33398 0.5 14.001s0.833008 9.66699 1.5 15l41 364h54z" />
    <glyph glyph-name="v" unicode="v" horiz-adv-x="413" 
d="M138 0l-52.002 239.5l-53 246.5h56c8.66699 -44 17.834 -87.833 27.501 -131.5s18.834 -88.167 27.501 -133.5l17 -85l16 -87h4c7.33301 18.667 18 44 32 76l45 101l120 276l49 -18l-28.5 -61l-38.5 -84l-44 -96.5l-44 -96.5l-38.5 -84.5l-28.5 -61.5h-67v0z" />
    <glyph glyph-name="w" unicode="w" horiz-adv-x="657" 
d="M454 55l51 140l118 308l48 -16l-193 -487h-63l-51 273l-26 145h-3l-53 -137l-113 -281h-64l-72 487h53l38 -281l20 -151h4l61 158l110 274h54l54 -296l23 -136h4z" />
    <glyph glyph-name="x" unicode="x" horiz-adv-x="408" 
d="M205 222l-38 -53.498l-49.5 -70l-49 -70.5l-37.5 -53l-43 28l41 54.5l54 71.5l54 71.5l41 54.5l-115 232h60l19.5 -42.5l26 -56l25.5 -56c8 -17.667 14.667 -31.834 20 -42.501l151 216c2 -0.666992 5 -2.16699 9 -4.5l13 -7.5c4.66699 -2.66699 9 -5.33398 13 -8.00098
l9 -6l-37 -48l-48 -62.5l-48 -63l-36 -48.5l129 -258h-60z" />
    <glyph glyph-name="y" unicode="y" horiz-adv-x="409" 
d="M429 486l-128.503 -295l-128.5 -293c-7.33301 -16.667 -15.333 -32 -24 -46s-18.5 -26 -29.5 -36s-23.167 -17.833 -36.5 -23.5s-28.333 -8.5 -45 -8.5l-35 3c-15.333 1.33301 -34.666 6 -57.999 14c2.66699 7.33301 5 14.333 7 21l6 20
c17.333 -5.33301 31.5 -9 42.5 -11s21.833 -3 32.5 -3c15.333 0 30.5 4.5 45.5 13.5s29.5 29.167 43.5 60.5l22 50l22 49h-29l-47 243l-48 242h54l26.5 -140.5l26.5 -144.5l7.5 -39l9 -49l8.5 -46c2.66699 -14 4.33398 -23.333 5.00098 -28h5l73 172l125 289
c8 -2 15.833 -4.33301 23.5 -7s15.834 -5 24.501 -7z" />
    <glyph glyph-name="z" unicode="z" horiz-adv-x="408" 
d="M391 486l10 -38l-334 -402l2 -2l293 -1l-2 -21.5c-0.666992 -7 -1.66699 -14.167 -3 -21.5h-353c-1.33301 5.33301 -2.5 11 -3.5 17s-2.16699 12 -3.5 18l169 203l169 204l-1 1h-257l6 43h308z" />
    <glyph glyph-name="braceleft" unicode="{" horiz-adv-x="239" 
d="M133 -165c-14.667 0 -26.668 1.83496 -36.001 5.50195s-16.833 8.83398 -22.5 15.501s-9.66699 14.5 -12 23.5s-3.5 18.833 -3.5 29.5c0 4.66699 0.166992 9.16699 0.5 13.5s0.833008 9.16602 1.5 14.499l29 232c2 12 3 23.667 3 35c0 17.333 -4.16699 33 -12.5 47
s-22.5 23.333 -42.5 28l5 35c28.667 7.33301 48 20.666 58 39.999s17 44 21 74l24 179c1.33301 10.667 4 21.334 8 32.001s9.5 20.5 16.5 29.5s15.833 16.333 26.5 22s23.334 8.5 38.001 8.5h40c0 -2 -0.333008 -4.83301 -1 -8.5s-1.16699 -7.83398 -1.5 -12.501
s-0.833008 -8.83398 -1.5 -12.501s-1 -6.5 -1 -8.5h-23c-20.667 0 -34 -6.16699 -40 -18.5s-10.667 -29.166 -14 -50.499l-22 -161c-1.33301 -12.667 -3.5 -26 -6.5 -40s-7.33301 -27.333 -13 -40s-12.667 -23.834 -21 -33.501s-18.5 -16.5 -30.5 -20.5
c17.333 -9.33301 29 -21 35 -35s9 -29.667 9 -47c0 -6 -0.833008 -17.167 -2.5 -33.5l-6 -56.5c-2.33301 -21.333 -5 -43.666 -8 -66.999s-5.66699 -45 -8 -65l-6 -50.5c-1.66699 -13.667 -2.5 -21.167 -2.5 -22.5c0.666992 -10.667 3.16699 -19.834 7.5 -27.501
s13.5 -11.5 27.5 -11.5h28l-5 -42h-36z" />
    <glyph glyph-name="bar" unicode="|" horiz-adv-x="218" 
d="M96 -137v835h42v-835h-42z" />
    <glyph glyph-name="braceright" unicode="}" horiz-adv-x="239" 
d="M115 700c31.333 0 52.834 -6.66309 64.501 -19.9961s17.5 -31.333 17.5 -54c0 -9.33301 -1 -18.333 -3 -27l-24 -177c-2 -12 -3 -24 -3 -36c0 -18 4 -34.167 12 -48.5s22.667 -23.833 44 -28.5l-5 -35c-14.667 -3.33301 -26.667 -8.5 -36 -15.5
s-16.833 -15.333 -22.5 -25s-10 -20.667 -13 -33s-5.5 -25.833 -7.5 -40.5l-29 -231c-1.33301 -10.667 -4 -21.5 -8 -32.5s-9.5 -21 -16.5 -30s-15.833 -16.333 -26.5 -22s-23.334 -8.5 -38.001 -8.5h-41l6 42h23c20.667 0 34.167 6.16699 40.5 18.5
s10.833 29.166 13.5 50.499l26 214c1.33301 12.667 3.66602 26 6.99902 40s7.83301 27.167 13.5 39.5s12.667 23.333 21 33s18.5 16.5 30.5 20.5c-17.333 9.33301 -29.166 21.166 -35.499 35.499s-9.5 30.166 -9.5 47.499c0 13.333 1 27 3 41
c0.666992 2.66699 2.16699 12.167 4.5 28.5l7.5 53.5l7.5 54c2.33301 16.667 3.5 26.334 3.5 29.001c0.666992 5.33301 1.33398 11.166 2.00098 17.499s1 12.5 1 18.5c-0.666992 11.333 -3.33398 20.666 -8.00098 27.999s-14 11 -28 11h-28l5 42h29z" />
    <glyph glyph-name="asciitilde" unicode="~" horiz-adv-x="517" 
d="M375 248c-18 0 -36.6689 2.16602 -56.002 6.49902s-38.333 9.16602 -57 14.499s-36.5 10.166 -53.5 14.499s-32.5 6.5 -46.5 6.5l-64 -44l-21 19c26.667 48 58.334 72 95.001 72c14.667 0 32 -2.16699 52 -6.5s40 -9.16602 60 -14.499s39.333 -10.166 58 -14.499
s34.334 -6.5 47.001 -6.5l60 43l20 -18c-12 -23.333 -25.833 -41.166 -41.5 -53.499s-33.167 -18.5 -52.5 -18.5z" />
    <glyph glyph-name="exclamdown" unicode="&#xa1;" horiz-adv-x="201" 
d="M139 495c10.667 0 19.333 -3.50098 26 -10.501s10 -16.167 10 -27.5c0 -13.333 -4.66699 -24.666 -14 -33.999s-20.666 -14 -33.999 -14c-10.667 0 -19.334 3.66699 -26.001 11s-10 16 -10 26c0 13.333 5 24.833 15 34.5s21 14.5 33 14.5zM132.999 319.999l-19 -217
l-35 -311h-55l40 311l34 217h35z" />
    <glyph glyph-name="cent" unicode="&#xa2;" horiz-adv-x="517" 
d="M330 494c25.333 0 49.166 -2.83105 71.499 -8.49805s42.166 -13.167 59.499 -22.5l-18 -37c-25.333 11.333 -48 18.166 -68 20.499s-36.667 3.5 -50 3.5h-2l-51 -414c23.333 0.666992 45.333 3.66699 66 9s43.334 13 68.001 23l7.5 -17.5
c2.33301 -5.66699 4.5 -11.5 6.5 -17.5c-19.333 -10.667 -42.666 -19.5 -69.999 -26.5s-55 -11.167 -83 -12.5l-10 -79h-34l9 79c-26.667 2 -49.167 7.66699 -67.5 17s-33.333 21.666 -45 36.999s-20 33.5 -25 54.5s-7.5 44.167 -7.5 69.5c0 26 2.5 56.333 7.5 91
s15 68 30 100s36 60.167 63 84.5s62.5 39.166 106.5 44.499l6 42.5c2 13.667 3.66699 27.834 5 42.501h34l-10 -83h1zM141 177.002c0 -36 6.99805 -66.833 20.998 -92.5s39.333 -41.167 76 -46.5l50 408c-24 -6 -45.167 -17 -63.5 -33s-33.666 -35.833 -45.999 -59.5
s-21.666 -50.5 -27.999 -80.5s-9.5 -62 -9.5 -96z" />
    <glyph glyph-name="sterling" unicode="&#xa3;" horiz-adv-x="516" 
d="M155 358c0.666992 4 1.83789 11.5029 3.50488 22.5029l5.5 35.5l5.5 35.5c1.66699 11 2.83398 18.5 3.50098 22.5c4 26.667 10.667 52 20 76s21.666 44.667 36.999 62s34.666 31.166 57.999 41.499s51 15.5 83 15.5c26.667 0 53.667 -2.66699 81 -8
s49.666 -12.333 66.999 -21l-21 -44c-24.667 10.667 -47.334 17.5 -68.001 20.5s-40.667 4.5 -60 4.5c-26 0 -47.5 -3.66699 -64.5 -11s-30.667 -17.833 -41 -31.5s-18.5 -29.667 -24.5 -48s-11 -38.5 -15 -60.5l-19 -112h189l-4 -40h-192l-15 -93
c-2.66699 -16.667 -6.33398 -33.834 -11.001 -51.501s-10.167 -34.667 -16.5 -51s-13.833 -31.333 -22.5 -45s-18.667 -24.5 -30 -32.5h341l-5 -45h-415l7 45c15.333 6.66699 28.666 16.667 39.999 30s21 28.333 29 45s14.5 34.167 19.5 52.5s8.83301 36.166 11.5 53.499
l16 92h-67l4 40h70z" />
    <glyph glyph-name="currency" unicode="&#xa4;" horiz-adv-x="520" 
d="M134 306c0 -20 3.66602 -38.833 10.999 -56.5s17.5 -33 30.5 -46s28.167 -23.167 45.5 -30.5s35.666 -11 54.999 -11c18.667 0 36.667 3.66699 54 11s32.333 17.5 45 30.5s22.834 28.333 30.501 46s11.5 36.5 11.5 56.5c0 19.333 -3.66699 37.666 -11 54.999
s-17.5 32.5 -30.5 45.5s-28 23.333 -45 31s-35.167 11.5 -54.5 11.5s-37.666 -3.83301 -54.999 -11.5s-32.5 -18 -45.5 -31s-23.167 -28.167 -30.5 -45.5s-11 -35.666 -11 -54.999zM69.999 486l28.002 29.002l64 -63c33.333 27.333 71.666 41 114.999 41
c21.333 0 41.333 -3.66699 60 -11s36.667 -17.333 54 -30l63 63l30 -30l-66 -62c15.333 -19.333 26 -38.333 32 -57s9 -38.334 9 -59.001c0 -42 -13.333 -81 -40 -117l12.5 -12l20 -18.5l20 -18c6.33301 -5.66699 10.5 -9.5 12.5 -11.5l-30 -32l-64 63
c-18.667 -15.333 -37.334 -25.833 -56.001 -31.5s-37.667 -8.5 -57 -8.5s-38.333 2.83301 -57 8.5s-37.667 16.167 -57 31.5l-64 -64l-30 31l64 62c-16 19.333 -26.833 39 -32.5 59s-8.5 38.667 -8.5 56c0 20 3 40.167 9 60.5s16.667 39.166 32 56.499z" />
    <glyph glyph-name="yen" unicode="&#xa5;" horiz-adv-x="516" 
d="M76 284l4.00098 33h147l-16 43.5l-22.5 60.5l-26 69l-25.5 69l-22.5 60.5c-7 18.333 -12.167 32.833 -15.5 43.5h56c2.66699 -9.33301 7.33398 -23.333 14.001 -42l21 -59.5l20.5 -60c6.33301 -19 11.166 -32.833 14.499 -41.5l45 -128h2c4 6 9.5 14.833 16.5 26.5l22 37
l22 37.5c7 12 12.5 21 16.5 27c0.666992 2 4.16699 8.16699 10.5 18.5l22.5 37l28 46l28 46l22.5 37c6.33301 10.333 10.166 16.5 11.499 18.5h58l-27 -43.5l-38 -60.5l-44 -69l-44 -69l-38 -60.5l-27 -43.5h149l-4 -33h-381zM452.001 237l-5 -32h-164l-25 -205h-55l25 205
h-162l5 32h381z" />
    <glyph glyph-name="brokenbar" unicode="&#xa6;" horiz-adv-x="218" 
d="M111 348v350h41v-350h-41zM152 249v-386h-41v386h41z" />
    <glyph glyph-name="section" unicode="&#xa7;" horiz-adv-x="442" 
d="M291 715c26.667 0 51.498 -2.33789 74.498 -7.00488s43.167 -10 60.5 -16l-16 -42c-23.333 7.33301 -45 12.5 -65 15.5s-39.667 4.5 -59 4.5c-14.667 0 -29.5 -1.83301 -44.5 -5.5s-28.5 -9.66699 -40.5 -18s-21.833 -19.166 -29.5 -32.499s-11.5 -29.666 -11.5 -48.999
c0 -14 4.16699 -26.5 12.5 -37.5s18.833 -21 31.5 -30s26.834 -17.5 42.501 -25.5l45.5 -24c34.667 -18.667 61 -37.334 79 -56.001s27 -41.334 27 -68.001c0 -48 -28.667 -96.667 -86 -146c13.333 -9.33301 24.166 -19.166 32.499 -29.499s14.833 -20.5 19.5 -30.5
s7.83398 -19.667 9.50098 -29s2.5 -17.333 2.5 -24c0 -28 -5.83301 -52.167 -17.5 -72.5s-27 -37.166 -46 -50.499s-40.667 -23.166 -65 -29.499s-49.166 -9.5 -74.499 -9.5c-28 0 -53.667 2.33301 -77 7s-44 10.667 -62 18l14 40c26 -9.33301 49.667 -15.5 71 -18.5
s41.333 -4.5 60 -4.5c20 0 38.833 2.5 56.5 7.5s33.334 12.5 47.001 22.5s24.334 22.333 32.001 37s11.5 31.667 11.5 51c0 22.667 -8 41.167 -24 55.5s-35.667 27.833 -59 40.5c-18.667 10 -38.334 19.667 -59.001 29s-39.5 19.666 -56.5 30.999s-31 24.833 -42 40.5
s-16.5 34.5 -16.5 56.5c0 26.667 7.5 52.5 22.5 77.5s38.167 48.167 69.5 69.5c-18.667 14.667 -31.834 29.834 -39.501 45.501s-11.5 32.834 -11.5 51.501c0 26 5 48.833 15 68.5s23.333 35.834 40 48.501s36 22.167 58 28.5s44.667 9.5 68 9.5zM194.998 443.995
c-24 -16.667 -42.6689 -34.833 -56.002 -54.5s-20 -39.5 -20 -59.5c0 -18 5 -33.167 15 -45.5s22.833 -23.166 38.5 -32.499s32.834 -18 51.501 -26s37 -17.333 55 -28c24.667 21.333 42.334 42.166 53.001 62.499s16 37.5 16 51.5c0 16 -4.83301 30.167 -14.5 42.5
s-22 23.5 -37 33.5s-31.5 19.5 -49.5 28.5s-35.333 18.167 -52 27.5z" />
    <glyph glyph-name="dieresis" unicode="&#xa8;" horiz-adv-x="473" 
d="M394 612c0 -11.333 -4.16699 -21 -12.5 -29s-18.166 -12 -29.499 -12c-10 0 -17.833 3.16699 -23.5 9.5s-8.5 14.5 -8.5 24.5c0.666992 11.333 5.16699 21 13.5 29s17.166 12 26.499 12c10 0 18.167 -3 24.5 -9s9.5 -14.333 9.5 -25zM235 612
c0 -11.333 -4.16602 -21 -12.499 -29s-18.166 -12 -29.499 -12c-9.33301 0 -17 3.16699 -23 9.5s-9 14.5 -9 24.5c0.666992 11.333 5.16699 21 13.5 29s17.166 12 26.499 12c10.667 0 19.167 -3 25.5 -9s9.16602 -14.333 8.49902 -25z" />
    <glyph glyph-name="copyright" unicode="&#xa9;" horiz-adv-x="828" 
d="M801 334c0 -50 -9.66699 -96.833 -29 -140.5s-45.5 -81.667 -78.5 -114s-71.5 -58 -115.5 -77s-91 -28.5 -141 -28.5s-97 9.5 -141 28.5s-82.5 44.667 -115.5 77s-59 70.333 -78 114s-28.5 90.5 -28.5 140.5c0 49.333 9.5 95.666 28.5 138.999s45 81.333 78 114
s71.5 58.334 115.5 77.001s91 28 141 28s97 -9.33301 141 -28s82.5 -44.334 115.5 -77.001s59.167 -70.667 78.5 -114s29 -89.666 29 -138.999zM766 334c0 44.667 -8.5 86.834 -25.5 126.501s-40.333 74.167 -70 103.5s-64.5 52.5 -104.5 69.5s-83 25.5 -129 25.5
c-45.333 0 -88 -8.5 -128 -25.5s-74.833 -40.167 -104.5 -69.5s-53.167 -63.833 -70.5 -103.5s-26 -81.834 -26 -126.501c0 -45.333 8.66699 -87.666 26 -126.999s40.833 -73.666 70.5 -102.999s64.5 -52.5 104.5 -69.5s82.667 -25.5 128 -25.5c46 0 89 8.5 129 25.5
s74.833 40.167 104.5 69.5s53 63.666 70 102.999s25.5 81.666 25.5 126.999zM283 325c0 -28.667 2.32715 -55.835 6.99414 -81.502s13.334 -48 26.001 -67s29.834 -34.167 51.501 -45.5s49.5 -17 83.5 -17c6.66699 0 14.834 0.333008 24.501 1s19.834 1.66699 30.501 3
s21.5 3 32.5 5s21.167 4.66699 30.5 8l9 -34c-16 -6.66699 -36.667 -12 -62 -16s-49.666 -6 -72.999 -6c-37.333 0 -69.166 6 -95.499 18s-47.833 28.833 -64.5 50.5s-28.667 48 -36 79s-11 65.5 -11 103.5c0 25.333 3 53 9 83s17 58 33 84s37.667 47.667 65 65
s62.333 26 105 26c27.333 0 51 -1.83301 71 -5.5s36.667 -8.16699 50 -13.5l-10 -37c-19.333 7.33301 -38.333 12.166 -57 14.499s-36 3.5 -52 3.5c-28 0 -52.5 -5.16699 -73.5 -15.5s-38.333 -25.166 -52 -44.499s-24 -42.666 -31 -69.999s-10.5 -57.666 -10.5 -90.999z
" />
    <glyph glyph-name="ordfeminine" unicode="&#xaa;" horiz-adv-x="345" 
d="M339 305l3.00098 -28.999c-11.333 -4.66699 -21.833 -7.83398 -31.5 -9.50098s-17.5 -2.5 -23.5 -2.5c-22.667 0 -34 9.66699 -34 29c0 2.66699 0.166992 5 0.5 7s0.5 4 0.5 6c-39.333 -29.333 -77 -44 -113 -44c-28.667 0 -51.834 9.66699 -69.501 29s-26.5 48 -26.5 86
c0 25.333 3.33301 50.833 10 76.5s16.834 48.667 30.501 69s31.167 37 52.5 50s46.666 19.5 75.999 19.5c14 0 28 -1.5 42 -4.5s27.333 -6.83301 40 -11.5l6 14h17c6 0 12 -0.333008 18 -1l-20 -138c-6.66699 -48 -13 -97.333 -19 -148zM212.001 554.001
c-16 0 -31.168 -3.83398 -45.501 -11.501s-27.166 -18.834 -38.499 -33.501s-20.333 -32.667 -27 -54s-10 -45.666 -10 -72.999c0 -29.333 6.16699 -50.333 18.5 -63s26.833 -19 43.5 -19c16 0 33.167 4.33301 51.5 13s36.166 20.334 53.499 35.001l27 193
c-12.667 5.33301 -25.167 8.83301 -37.5 10.5s-24.166 2.5 -35.499 2.5z" />
    <glyph glyph-name="guillemotleft" unicode="&#xab;" horiz-adv-x="391" 
d="M61 202l155 151l22 -20l-123 -149l87 -149l-27 -19l-118 150zM184 202l155 151l22 -20l-123 -149l87 -149l-26 -19l-119 150z" />
    <glyph glyph-name="logicalnot" unicode="&#xac;" horiz-adv-x="517" 
d="M429 107h-44l21 169h-320l6 43h363z" />
    <glyph glyph-name="sfthyphen" unicode="&#xad;" horiz-adv-x="335" 
d="M53 233l7 50h234l-6 -50h-235z" />
    <glyph glyph-name="registered" unicode="&#xae;" horiz-adv-x="573" 
d="M554 473c0 -32.667 -6.33301 -63.166 -19 -91.499s-29.667 -53 -51 -74s-46.333 -37.5 -75 -49.5s-59.334 -18 -92.001 -18c-33.333 0 -64.333 5.83301 -93 17.5s-53.834 28 -75.501 49s-38.667 45.667 -51 74s-18.5 59.166 -18.5 92.499
c0 32.667 6.16699 63.167 18.5 91.5s29.333 53.166 51 74.499s46.834 38.166 75.501 50.499s59.667 18.5 93 18.5c32.667 0 63.334 -6.16699 92.001 -18.5s53.667 -29.166 75 -50.499s38.333 -46.166 51 -74.499s19 -58.833 19 -91.5zM525 473.001
c0 28.667 -5.33496 55.501 -16.002 80.501s-25.5 47 -44.5 66s-41.167 34 -66.5 45s-52.333 16.5 -81 16.5s-55.667 -5.5 -81 -16.5s-47.5 -26 -66.5 -45s-34 -41 -45 -66s-16.5 -51.833 -16.5 -80.5s5.33301 -55.5 16 -80.5s25.334 -46.833 44.001 -65.5
s40.834 -33.334 66.501 -44.001s53.167 -16 82.5 -16c28.667 0 55.667 5.16699 81 15.5s47.5 24.833 66.5 43.5s33.833 40.5 44.5 65.5s16 52.167 16 81.5zM383.998 540.002c0 20 -5.5 34 -16.5 42s-24.167 12 -39.5 12h-58v-109h58c14.667 0 27.667 3.5 39 10.5
s17 21.833 17 44.5zM385.998 330.002l-58.002 128h-58v-128h-35v291h94c26.667 0 48.334 -6.33301 65.001 -19s25 -33 25 -61c0 -13.333 -4.16699 -28 -12.5 -44s-23.166 -27.667 -44.499 -35l61 -132h-37z" />
    <glyph glyph-name="macron" unicode="&#xaf;" horiz-adv-x="473" 
d="M136 641h299l-5 -47h-300z" />
    <glyph glyph-name="degree" unicode="&#xb0;" horiz-adv-x="337" 
d="M307 546c0 -16.667 -3.16895 -32.3311 -9.50195 -46.998s-15 -27.334 -26 -38.001s-24 -19.167 -39 -25.5s-30.833 -9.5 -47.5 -9.5c-38 0 -67.833 11.5 -89.5 34.5s-32.167 51.5 -31.5 85.5c0 16.667 3.33301 32.5 10 47.5s15.667 28 27 39s24.5 19.833 39.5 26.5
s30.833 10 47.5 10s32.334 -3.33301 47.001 -10s27.334 -15.667 38.001 -27s19 -24.333 25 -39s9 -30.334 9 -47.001zM270.998 544.003c0 12 -2.33105 23.333 -6.99805 34s-11 20 -19 28s-17.167 14.333 -27.5 19s-21.166 7 -32.499 7c-12 0 -23.167 -2.33301 -33.5 -7
s-19.333 -11 -27 -19s-13.667 -17.333 -18 -28s-6.5 -22 -6.5 -34c-0.666992 -23.333 7.16602 -43.166 23.499 -59.499s36.166 -24.5 59.499 -24.5s43.666 8.16699 60.999 24.5s26.333 36.166 27 59.499z" />
    <glyph glyph-name="plusminus" unicode="&#xb1;" horiz-adv-x="517" 
d="M290 274l-21 -165h-43l20 165h-160l6 45h159l20 160h44l-20 -160h159l-5 -45h-159zM424 50l-5 -41h-367l5 41h367z" />
    <glyph glyph-name="twosuperior" unicode="&#xb2;" horiz-adv-x="364" 
d="M34 356l4.00195 34.002l86.5 71.5c29 23.667 55 46.834 78 69.501s41.833 44.667 56.5 66s22 41.666 22 60.999c0 21.333 -7 36.5 -21 45.5s-32 13.5 -54 13.5c-11.333 0 -27 -2.5 -47 -7.5s-41.667 -14.167 -65 -27.5l-20 32c27.333 17.333 53 29 77 35s45 9 63 9
c16.667 0 32 -1.83301 46 -5.5s26.333 -9.33398 37 -17.001s19 -17.167 25 -28.5s9 -25 9 -41c0 -24 -6.83301 -47.667 -20.5 -71s-31.334 -46.333 -53.001 -69s-45.834 -44.834 -72.501 -66.501l-79 -63.5h207l-3 -40h-276z" />
    <glyph glyph-name="threesuperior" unicode="&#xb3;" horiz-adv-x="364" 
d="M242 577c25.333 -6 45.165 -17.334 59.498 -34.001s21.5 -36.667 21.5 -60c0 -18 -4 -35 -12 -51s-19.5 -30 -34.5 -42s-32.833 -21.5 -53.5 -28.5s-44 -10.5 -70 -10.5c-26.667 0 -50.5 2.33301 -71.5 7s-38.167 10.334 -51.5 17.001l14 35
c28 -10 49.833 -15.833 65.5 -17.5s29.5 -2.5 41.5 -2.5c16 0 31.5 2 46.5 6s28.333 9.83301 40 17.5s20.834 17 27.501 28s10 23.167 10 36.5c0 25.333 -9.16699 44.333 -27.5 57s-42.5 19 -72.5 19c-12 0 -24.667 -1.33301 -38 -4c0 3.33301 -0.666992 9.16602 -2 17.499
s-2.33301 13.833 -3 16.5c52.667 9.33301 89.834 22.333 111.501 39s32.5 33.334 32.5 50.001c0 13.333 -5.5 24.5 -16.5 33.5s-30.5 13.5 -58.5 13.5c-12.667 0 -28 -1.83301 -46 -5.5s-39.667 -10.5 -65 -20.5l-14 31c23.333 12 46.5 20.667 69.5 26s43.167 8 60.5 8
c42 0 72.167 -7.83301 90.5 -23.5s27.5 -34.167 27.5 -55.5c0 -18.667 -6.66699 -37.667 -20 -57s-34 -33.333 -62 -42v-4z" />
    <glyph glyph-name="acute" unicode="&#xb4;" horiz-adv-x="472" 
d="M239 545l-28 23l126 156l43 -41z" />
    <glyph glyph-name="mu" unicode="&#xb5;" horiz-adv-x="467" 
d="M141 486l-42.002 -362.999c-0.666992 -3.33301 -1 -6.83301 -1 -10.5v-10.5c0 -22.667 6 -39.334 18 -50.001s31 -16 57 -16c49.333 0 107 29.333 173 88l44 362h54l-30 -242c-10 -80 -19.667 -161.333 -29 -244h-53c2 10.667 3.83301 23 5.5 37s3.16699 25.667 4.5 35
l-3 2c-37.333 -30 -71 -51.333 -101 -64s-58 -19 -84 -19c-11.333 0 -23.666 1.83301 -36.999 5.5s-22.666 10.5 -27.999 20.5l-3 -1l-13 -111.5l-14 -112.5h-53l83 694h52z" />
    <glyph glyph-name="mu" unicode="&#x3bc;" horiz-adv-x="467" 
d="M141 486l-42.002 -362.999c-0.666992 -3.33301 -1 -6.83301 -1 -10.5v-10.5c0 -22.667 6 -39.334 18 -50.001s31 -16 57 -16c49.333 0 107 29.333 173 88l44 362h54l-30 -242c-10 -80 -19.667 -161.333 -29 -244h-53c2 10.667 3.83301 23 5.5 37s3.16699 25.667 4.5 35
l-3 2c-37.333 -30 -71 -51.333 -101 -64s-58 -19 -84 -19c-11.333 0 -23.666 1.83301 -36.999 5.5s-22.666 10.5 -27.999 20.5l-3 -1l-13 -111.5l-14 -112.5h-53l83 694h52z" />
    <glyph glyph-name="paragraph" unicode="&#xb6;" horiz-adv-x="476" 
d="M448 693l-107.003 -874h-42l101 831h-71c-3.33301 -29.333 -7.83301 -66.166 -13.5 -110.499l-18 -144l-20 -161l-20 -161l-17.5 -144l-13 -110.5h-43l64 532c-48.667 0.666992 -87.667 14.5 -117 41.5s-44 63.833 -44 110.5c0 27.333 4.83301 52.666 14.5 75.999
s22.834 43.5 39.501 60.5s36.334 30.167 59.001 39.5s47.334 14 74.001 14h174z" />
    <glyph glyph-name="periodcentered" unicode="&#xb7;" horiz-adv-x="175" 
d="M104 325c10.667 0 19.5 -3.50098 26.5 -10.501s10.5 -15.833 10.5 -26.5c0 -13.333 -5 -25.166 -15 -35.499s-20.667 -15.5 -32 -15.5s-20.5 4 -27.5 12s-10.5 17.667 -10.5 29c0 12.667 5 23.667 15 33s21 14 33 14z" />
    <glyph glyph-name="cedilla" unicode="&#xb8;" horiz-adv-x="474" 
d="M274 10l-34.4971 -37.499l-35.5 -39.5c30.667 -1.33301 55.167 -7 73.5 -17s27.5 -26.667 27.5 -50c0 -14 -3.66699 -27.333 -11 -40s-18.333 -24 -33 -34s-33.334 -18 -56.001 -24s-49.334 -9 -80.001 -9l3 28c43.333 3.33301 75.5 11.666 96.5 24.999s31.5 29 31.5 47
c0 8.66699 -2.66699 15.667 -8 21s-12.333 9.33301 -21 12s-18.834 4.5 -30.501 5.5s-23.5 1.5 -35.5 1.5l-8 17l49 56l50 54c3.33301 -3.33301 6.83301 -6 10.5 -8s7.5 -4.66699 11.5 -8z" />
    <glyph glyph-name="onesuperior" unicode="&#xb9;" horiz-adv-x="364" 
d="M211 705l-103 -15l-1 33l114 30h43l-47 -396h-47z" />
    <glyph glyph-name="ordmasculine" unicode="&#xba;" horiz-adv-x="327" 
d="M195 596c22 0 40.666 -3.5 55.999 -10.5s27.5 -16.5 36.5 -28.5s15.667 -26 20 -42s6.5 -32.667 6.5 -50c0 -20.667 -2.33301 -42.667 -7 -66s-13 -45 -25 -65s-28.333 -36.5 -49 -49.5s-47 -19.5 -79 -19.5c-23.333 0 -42.666 3.33301 -57.999 10s-27.5 15.667 -36.5 27
s-15.5 24.833 -19.5 40.5s-6 32.167 -6 49.5c0 22.667 2.66699 46 8 70s14.166 46 26.499 66s28.833 36.333 49.5 49s46.334 19 77.001 19zM192.999 561c-24 0 -43.501 -6.00098 -58.501 -18.001s-26.667 -26.833 -35 -44.5s-14 -36.667 -17 -57s-4.5 -38.833 -4.5 -55.5
c0 -22.667 5.5 -42.5 16.5 -59.5s32.167 -25.5 63.5 -25.5c23.333 0 42.333 5.83301 57 17.5s26 26 34 43s13.167 34.833 15.5 53.5s3.5 35.334 3.5 50.001c0 12 -1.16699 23.833 -3.5 35.5s-6.16602 22 -11.499 31s-13 16.167 -23 21.5s-22.333 8 -37 8z" />
    <glyph glyph-name="guillemotright" unicode="&#xbb;" horiz-adv-x="391" 
d="M333 166l-157 -150l-21 19l123 149l-86 149l27 20l118 -151zM211 166l-158 -150l-21 19l123 149l-85 149l26 20l118 -151z" />
    <glyph glyph-name="onequarter" unicode="&#xbc;" horiz-adv-x="790" 
d="M638 111l-13 -111h-46l14 111h-202l3 33l117 127l118 126h44c-1.33301 -11.333 -3.5 -28.5 -6.5 -51.5s-6 -47.333 -9 -73l-8.5 -73l-6 -51.5h61l-4 -37h-62zM225 -23h-42l371 722h38zM229 615l-103 -15l-1 33l114 30h43l-47 -396h-47zM616 333
c-8 -8 -19.667 -20.667 -35 -38l-49 -54.5l-49 -54l-35 -38.5h148l24 186z" />
    <glyph glyph-name="onehalf" unicode="&#xbd;" horiz-adv-x="790" 
d="M426 0l3.00195 33.998l88 71.5c29.333 23.667 55.5 46.834 78.5 69.501s41.667 44.667 56 66s21.5 41.333 21.5 60c0 21.333 -7 36.5 -21 45.5s-32 13.5 -54 13.5c-12 0 -27.833 -2.5 -47.5 -7.5s-41.167 -14.167 -64.5 -27.5l-20 33c26.667 16.667 52 28.167 76 34.5
s45.333 9.5 64 9.5c33.333 0 61 -7.5 83 -22.5s33 -38.833 33 -71.5c0 -23.333 -6.83301 -46.666 -20.5 -69.999s-31.334 -46.333 -53.001 -69s-45.834 -45 -72.501 -67l-78 -63h208l-5 -39h-275zM204.002 -23.002h-42l371 722h38zM211.002 614.998l-103 -15l-1 33l114 30
h43l-47 -396h-47z" />
    <glyph glyph-name="threequarters" unicode="&#xbe;" horiz-adv-x="790" 
d="M698 111l-13 -111h-46l14 111h-202l3 33l117 127l118 126h44c-1.33301 -11.333 -3.5 -28.5 -6.5 -51.5s-6 -47.333 -9 -73l-8.5 -73l-6 -51.5h61l-4 -37h-62zM278 487c25.333 -6 45.165 -17.334 59.498 -34.001s21.5 -36.667 21.5 -60c0 -18 -4 -35 -12 -51
s-19.5 -30 -34.5 -42s-32.833 -21.5 -53.5 -28.5s-44 -10.5 -70 -10.5c-26.667 0 -50.5 2.33301 -71.5 7s-38.167 10.334 -51.5 17.001l14 35c28 -10 49.833 -15.833 65.5 -17.5s29.5 -2.5 41.5 -2.5c16 0 31.5 2 46.5 6s28.333 9.83301 40 17.5s20.834 17 27.501 28
s10 23.167 10 36.5c0 25.333 -9.16699 44.333 -27.5 57s-42.5 19 -72.5 19c-12 0 -24.667 -1.33301 -38 -4c0 3.33301 -0.666992 9.16602 -2 17.499s-2.33301 13.833 -3 16.5c52.667 9.33301 89.834 22.333 111.501 39s32.5 33.334 32.5 50.001
c0 13.333 -5.5 24.5 -16.5 33.5s-30.5 13.5 -58.5 13.5c-12.667 0 -28 -1.83301 -46 -5.5s-39.667 -10.5 -65 -20.5l-14 31c23.333 12 46.5 20.667 69.5 26s43.167 8 60.5 8c42 0 72.167 -7.83301 90.5 -23.5s27.5 -34.167 27.5 -55.5c0 -18.667 -6.66699 -37.667 -20 -57
s-34 -33.333 -62 -42v-4zM282.999 -23.001h-42l371 722h38zM675.999 332.999c-8 -8 -19.667 -20.667 -35 -38l-49 -54.5l-49 -54l-35 -38.5h148l24 186z" />
    <glyph glyph-name="questiondown" unicode="&#xbf;" horiz-adv-x="412" 
d="M160 -216c-56 0 -96.6709 10.3311 -122.004 30.998s-38 50 -38 88c0 18 3.33301 34.833 10 50.5s15.334 30.334 26.001 44.001s23 26.667 37 39s28.667 24.5 44 36.5c22.667 17.333 42.834 33.5 60.501 48.5s32.5 30 44.5 45s21 30.333 27 46s9 32.5 9 50.5
c0 7.33301 -0.166992 15 -0.5 23s-0.833008 16.667 -1.5 26l46 8c2 -20 3 -37.333 3 -52c0 -22.667 -2.66699 -43.167 -8 -61.5s-13.833 -36.166 -25.5 -53.499s-27 -34.833 -46 -52.5s-42.167 -36.834 -69.5 -57.501c-28.667 -21.333 -53 -41.833 -73 -61.5
s-30 -42.834 -30 -69.501c0 -29.333 10.833 -50.166 32.5 -62.499s48.834 -18.5 81.501 -18.5c19.333 0 41.833 1.83301 67.5 5.5s55.834 10.834 90.501 21.501c1.33301 -7.33301 2.83301 -14.5 4.5 -21.5s3.5 -14.167 5.5 -21.5c-31.333 -11.333 -62.5 -19.333 -93.5 -24
s-58.167 -7 -81.5 -7zM273.996 409.998c-11.333 0 -20.333 3.50098 -27 10.501s-10 15.5 -10 25.5c0 13.333 4.83301 24.666 14.5 33.999s20.167 14 31.5 14c10 0 18.5 -3.5 25.5 -10.5s10.5 -15.833 10.5 -26.5c0 -12.667 -4.5 -23.667 -13.5 -33s-19.5 -14 -31.5 -14z" />
    <glyph glyph-name="Agrave" unicode="&#xc0;" horiz-adv-x="535" 
d="M435 0l-16.5 92.5l-17.5 93.5h-273l-39.5 -93.5l-39.5 -92.5h-59l152.5 349.5l146.5 333.5h74l64.5 -342l66.5 -341h-59zM319 632l-31.5 -73.5l-40 -95.5l-46.5 -110.5l-52 -119.5h243c-1.33301 6 -3.66602 19.5 -6.99902 40.5s-7.5 45.333 -12.5 73l-15.5 88.5l-15.5 88
l-13 71c-3.66699 20 -5.83398 32.667 -6.50098 38h-3zM202 824l36 48l122 -127l-21 -26z" />
    <glyph glyph-name="Aacute" unicode="&#xc1;" horiz-adv-x="535" 
d="M435 0l-16.5 92.5l-17.5 93.5h-273l-39.5 -93.5l-39.5 -92.5h-59l152.5 349.5l146.5 333.5h74l64.5 -342l66.5 -341h-59zM319 632l-31.5 -73.5l-40 -95.5l-46.5 -110.5l-52 -119.5h243c-1.33301 6 -3.66602 19.5 -6.99902 40.5s-7.5 45.333 -12.5 73l-15.5 88.5l-15.5 88
l-13 71c-3.66699 20 -5.83398 32.667 -6.50098 38h-3zM318 718l-18 25l151 128l29 -44z" />
    <glyph glyph-name="Acircumflex" unicode="&#xc2;" horiz-adv-x="535" 
d="M435 0l-16.5 92.5l-17.5 93.5h-273l-39.5 -93.5l-39.5 -92.5h-59l152.5 349.5l146.5 333.5h74l64.5 -342l66.5 -341h-59zM319 632l-31.5 -73.5l-40 -95.5l-46.5 -110.5l-52 -119.5h243c-1.33301 6 -3.66602 19.5 -6.99902 40.5s-7.5 45.333 -12.5 73l-15.5 88.5l-15.5 88
l-13 71c-3.66699 20 -5.83398 32.667 -6.50098 38h-3zM464 706l-128 100l-153 -101l-15 21l152 134h42l121 -133z" />
    <glyph glyph-name="Atilde" unicode="&#xc3;" horiz-adv-x="535" 
d="M435 0l-16.5 92.5l-17.5 93.5h-273l-39.5 -93.5l-39.5 -92.5h-59l152.5 349.5l146.5 333.5h74l64.5 -342l66.5 -341h-59zM319 632l-31.5 -73.5l-40 -95.5l-46.5 -110.5l-52 -119.5h243c-1.33301 6 -3.66602 19.5 -6.99902 40.5s-7.5 45.333 -12.5 73l-15.5 88.5l-15.5 88
l-13 71c-3.66699 20 -5.83398 32.667 -6.50098 38h-3zM396 737c-12 0 -24.166 2 -36.499 6s-24.333 8.33301 -36 13l-34 13c-11 4 -20.833 6 -29.5 6l-57 -39l-19 15c9.33301 20.667 21.5 37 36.5 49s31.167 18 48.5 18c10.667 0 22 -2 34 -6l36 -12.5l35 -12.5
c11.333 -4 21.666 -6 30.999 -6l55 39l17 -16c-8.66699 -18.667 -20 -34.5 -34 -47.5s-29.667 -19.5 -47 -19.5z" />
    <glyph glyph-name="Adieresis" unicode="&#xc4;" horiz-adv-x="535" 
d="M435 0l-16.5 92.5l-17.5 93.5h-273l-39.5 -93.5l-39.5 -92.5h-59l152.5 349.5l146.5 333.5h74l64.5 -342l66.5 -341h-59zM319 632l-31.5 -73.5l-40 -95.5l-46.5 -110.5l-52 -119.5h243c-1.33301 6 -3.66602 19.5 -6.99902 40.5s-7.5 45.333 -12.5 73l-15.5 88.5l-15.5 88
l-13 71c-3.66699 20 -5.83398 32.667 -6.50098 38h-3zM446 770c-0.666992 -11.333 -5.00098 -21 -13.001 -29s-17.667 -12 -29 -12c-9.33301 0 -16.833 3 -22.5 9s-8.5 13.667 -8.5 23c0.666992 11.333 4.83398 21 12.501 29s16.5 12 26.5 12c10.667 0 19 -3 25 -9
s9 -13.667 9 -23zM287.999 770c-0.666992 -11.333 -4.99902 -20.999 -12.999 -28.999s-17.333 -12 -28 -12c-9.33301 0 -17 3.16699 -23 9.5s-9 14.166 -9 23.499c0 11.333 4.33301 20.833 13 28.5s17.667 11.5 27 11.5c10 0 18.167 -3 24.5 -9s9.16602 -13.667 8.49902 -23
z" />
    <glyph glyph-name="Aring" unicode="&#xc5;" horiz-adv-x="535" 
d="M435 0l-16.5 92.5l-17.5 93.5h-273l-39.5 -93.5l-39.5 -92.5h-59l152.5 349.5l146.5 333.5h74l64.5 -342l66.5 -341h-59zM319 632l-31.5 -73.5l-40 -95.5l-46.5 -110.5l-52 -119.5h243c-1.33301 6 -3.66602 19.5 -6.99902 40.5s-7.5 45.333 -12.5 73l-15.5 88.5l-15.5 88
l-13 71c-3.66699 20 -5.83398 32.667 -6.50098 38h-3zM325 705c-27.333 0 -48.4971 8.83203 -63.4971 26.499s-21.5 38.834 -19.5 63.501c0.666992 12.667 3.83398 25.167 9.50098 37.5s13.167 23 22.5 32s20.333 16.333 33 22s26.667 8.5 42 8.5
c25.333 0 45.666 -8.83301 60.999 -26.5s21.666 -39.167 18.999 -64.5c-0.666992 -14 -3.83398 -27 -9.50098 -39s-13.334 -22.5 -23.001 -31.5s-20.5 -16 -32.5 -21s-25 -7.5 -39 -7.5zM345.003 861.999c-19.333 0 -35.168 -6.66797 -47.501 -20.001
s-19.166 -29.666 -20.499 -48.999c-1.33301 -16.667 2.5 -30.5 11.5 -41.5s22.833 -16.5 41.5 -16.5c17.333 0 32.333 6.33301 45 19s19.667 29 21 49c1.33301 16.667 -2.5 30.667 -11.5 42s-22.167 17 -39.5 17z" />
    <glyph glyph-name="AE" unicode="&#xc6;" horiz-adv-x="856" 
d="M439 201h-266.001l-133 -201h-60l228 341l229 341h386c0 -7.33301 -0.166992 -14.666 -0.5 -21.999s-0.5 -15 -0.5 -23h-302l-15 -254h259l-2 -45h-259c-3.33301 -48.667 -6.16602 -97.334 -8.49902 -146.001s-4.83301 -97.667 -7.5 -147h321l-2 -45h-379zM345.999 460
l-42.499 -62.999l-40 -59l-34.5 -51.5c-10.667 -15.667 -19.334 -28.834 -26.001 -39.501h237l9.5 137l9.5 137l8 114h-4z" />
    <glyph glyph-name="Ccedilla" unicode="&#xc7;" horiz-adv-x="553" 
d="M395 694c35.333 0 66.6709 -2.66699 94.0039 -8s50 -11.666 68 -18.999l-16 -44c-24.667 8.66699 -49.667 14.667 -75 18s-49 5 -71 5c-44.667 0 -83.5 -9.5 -116.5 -28.5s-60.5 -45.667 -82.5 -80s-38.5 -75.333 -49.5 -123s-16.5 -100.167 -16.5 -157.5
c0 -30 2.66699 -58.167 8 -84.5s15.166 -49.333 29.499 -69s33.833 -35 58.5 -46s56.334 -16.5 95.001 -16.5c8.66699 0 19.5 0.333008 32.5 1s26.833 2 41.5 4s29.667 4.5 45 7.5s30 6.5 44 10.5l11 -43c-12 -4 -25.333 -7.66699 -40 -11s-29.834 -6.33301 -45.501 -9
s-31.5 -4.66699 -47.5 -6s-31 -2 -45 -2l-30 -33l-31 -35c30.667 -1.33301 55.167 -7 73.5 -17s27.5 -26.667 27.5 -50c0 -14 -3.66699 -27.333 -11 -40s-18.333 -24 -33 -34s-33.334 -18 -56.001 -24s-49.334 -9 -80.001 -9l3 28c43.333 3.33301 75.5 11.666 96.5 24.999
s31.5 29 31.5 47c0 8.66699 -2.66699 15.667 -8 21s-12.333 9.33301 -21 12s-18.834 4.5 -30.501 5.5s-23.5 1.5 -35.5 1.5l-8 17l37 43.5l39 42.5c-38.667 2 -71.5 9.66699 -98.5 23s-48.833 31.5 -65.5 54.5s-28.667 50.333 -36 82s-11 67.167 -11 106.5
c0 24 1.66699 51.333 5 82s9.5 62.167 18.5 94.5s21.333 63.833 37 94.5s35.5 58.167 59.5 82.5s52.833 43.833 86.5 58.5s73.167 22 118.5 22z" />
    <glyph glyph-name="Egrave" unicode="&#xc8;" horiz-adv-x="506" 
d="M52 0l83 683h375l-5 -46h-319l-31 -252h279l-6 -46h-279l-35 -292h343l-4 -47h-401zM236 824l36 48l122 -127l-21 -26z" />
    <glyph glyph-name="Eacute" unicode="&#xc9;" horiz-adv-x="506" 
d="M52 0l83 683h375l-5 -46h-319l-31 -252h279l-6 -46h-279l-35 -292h343l-4 -47h-401zM296 718l-18 25l151 128l29 -44z" />
    <glyph glyph-name="Ecircumflex" unicode="&#xca;" horiz-adv-x="506" 
d="M52 0l83 683h375l-5 -46h-319l-31 -252h279l-6 -46h-279l-35 -292h343l-4 -47h-401zM462 712l-128 100l-153 -101l-15 21l152 134h42l121 -133z" />
    <glyph glyph-name="Edieresis" unicode="&#xcb;" horiz-adv-x="506" 
d="M52 0l83 683h375l-5 -46h-319l-31 -252h279l-6 -46h-279l-35 -292h343l-4 -47h-401zM444 773c-0.666992 -11.333 -5.00098 -21 -13.001 -29s-17.667 -12 -29 -12c-9.33301 0 -16.833 3 -22.5 9s-8.5 13.667 -8.5 23c0.666992 11.333 4.83398 21 12.501 29
s16.5 12 26.5 12c10.667 0 19 -3 25 -9s9 -13.667 9 -23zM285.999 773c-0.666992 -11.333 -4.99902 -20.999 -12.999 -28.999s-17.333 -12 -28 -12c-9.33301 0 -17 3.16699 -23 9.5s-9 14.166 -9 23.499c0 11.333 4.33301 20.833 13 28.5s17.667 11.5 27 11.5
c10 0 18.167 -3 24.5 -9s9.16602 -13.667 8.49902 -23z" />
    <glyph glyph-name="Igrave" unicode="&#xcc;" horiz-adv-x="231" 
d="M61 0l84 684h57l-84 -684h-57zM51 824l36 48l122 -127l-21 -26z" />
    <glyph glyph-name="Iacute" unicode="&#xcd;" horiz-adv-x="231" 
d="M61 0l84 684h57l-84 -684h-57zM170 718l-18 25l151 128l29 -44z" />
    <glyph glyph-name="Icircumflex" unicode="&#xce;" horiz-adv-x="231" 
d="M61 0l84 684h57l-84 -684h-57zM314 707l-128 100l-153 -101l-15 21l152 134h42l121 -133z" />
    <glyph glyph-name="Idieresis" unicode="&#xcf;" horiz-adv-x="231" 
d="M61 0l84 684h57l-84 -684h-57zM302 774c-0.666992 -11.333 -5.00098 -21 -13.001 -29s-17.667 -12 -29 -12c-9.33301 0 -16.833 3 -22.5 9s-8.5 13.667 -8.5 23c0.666992 11.333 4.83398 21 12.501 29s16.5 12 26.5 12c10.667 0 19 -3 25 -9s9 -13.667 9 -23z
M143.999 774c-0.666992 -11.333 -4.99902 -20.999 -12.999 -28.999s-17.333 -12 -28 -12c-9.33301 0 -17 3.16699 -23 9.5s-9 14.166 -9 23.499c0 11.333 4.33301 20.833 13 28.5s17.667 11.5 27 11.5c10 0 18.167 -3 24.5 -9s9.16602 -13.667 8.49902 -23z" />
    <glyph glyph-name="Eth" unicode="&#xd0;" horiz-adv-x="604" 
d="M52 0l39.999 334.002h-61l5 36h60l39 314h201c44.667 0 81.834 -6.83301 111.501 -20.5s53 -32.334 70 -56.001s29 -51.667 36 -84s10.5 -67.166 10.5 -104.499c0 -55.333 -5.5 -108.333 -16.5 -159s-29 -95.334 -54 -134.001s-57.833 -69.334 -98.5 -92.001
s-91 -34 -151 -34h-192zM186.999 637.002l-32.0029 -267.002h171l-5 -36h-171l-35 -286h127c10 0 23.5 0.833008 40.5 2.5s35.333 6.16699 55 13.5s39.334 18.5 59.001 33.5s37.667 36 54 63s29.5 60.667 39.5 101s15 89.833 15 148.5c0 54.667 -6.66699 97.334 -20 128.001
s-29.666 53.334 -48.999 68.001s-39.666 23.5 -60.999 26.5s-40 4.5 -56 4.5h-132z" />
    <glyph glyph-name="Ntilde" unicode="&#xd1;" horiz-adv-x="637" 
d="M489 99l71.002 584h57l-84 -683h-56l-246 490l-49 101c-0.666992 0 -1.33398 -0.166992 -2.00098 -0.5s-1.33398 -0.5 -2.00098 -0.5l-71 -590h-56l83 683h58l29 -56.5l40 -79l46.5 -92l48 -95.5l45 -90l38.5 -76l47 -95h3zM463.002 753c-12 0 -24.166 2 -36.499 6
s-24.333 8.33301 -36 13l-34 13c-11 4 -20.833 6 -29.5 6l-57 -39l-19 15c9.33301 20.667 21.5 37 36.5 49s31.167 18 48.5 18c10.667 0 22 -2 34 -6l36 -12.5l35 -12.5c11.333 -4 21.666 -6 30.999 -6l55 39l17 -16c-8.66699 -18.667 -20 -34.5 -34 -47.5
s-29.667 -19.5 -47 -19.5z" />
    <glyph glyph-name="Ograve" unicode="&#xd2;" horiz-adv-x="656" 
d="M385 694c44 0 80.833 -7.33496 110.5 -22.002s53.5 -34.667 71.5 -60s30.667 -54.833 38 -88.5s11 -69.5 11 -107.5c0 -58 -6.66699 -112.667 -20 -164s-33 -96.166 -59 -134.499s-58.167 -68.666 -96.5 -90.999s-82.5 -33.5 -132.5 -33.5c-43.333 0 -80 6 -110 18
s-54.5 29.5 -73.5 52.5s-32.833 51 -41.5 84s-13 70.167 -13 111.5c0 53.333 5.5 106 16.5 158s29 98.5 54 139.5s57.5 74.167 97.5 99.5s89 38 147 38zM385 647.998c-50 0 -91.5 -12.001 -124.5 -36.001s-59.5 -54.833 -79.5 -92.5s-34 -79.5 -42 -125.5s-12 -91 -12 -135
c0 -72.667 14.167 -127.5 42.5 -164.5s74.5 -55.5 138.5 -55.5c44.667 0 82.667 10.833 114 32.5s57 50.334 77 86.001s34.667 76 44 121s14 90.833 14 137.5c0 29.333 -2.33301 58 -7 86s-13.334 52.833 -26.001 74.5s-30.167 39 -52.5 52s-51.166 19.5 -86.499 19.5z
M288 823.997l36 48l122 -127l-21 -26z" />
    <glyph glyph-name="Oacute" unicode="&#xd3;" horiz-adv-x="656" 
d="M385 694c44 0 80.833 -7.33496 110.5 -22.002s53.5 -34.667 71.5 -60s30.667 -54.833 38 -88.5s11 -69.5 11 -107.5c0 -58 -6.66699 -112.667 -20 -164s-33 -96.166 -59 -134.499s-58.167 -68.666 -96.5 -90.999s-82.5 -33.5 -132.5 -33.5c-43.333 0 -80 6 -110 18
s-54.5 29.5 -73.5 52.5s-32.833 51 -41.5 84s-13 70.167 -13 111.5c0 53.333 5.5 106 16.5 158s29 98.5 54 139.5s57.5 74.167 97.5 99.5s89 38 147 38zM385 647.998c-50 0 -91.5 -12.001 -124.5 -36.001s-59.5 -54.833 -79.5 -92.5s-34 -79.5 -42 -125.5s-12 -91 -12 -135
c0 -72.667 14.167 -127.5 42.5 -164.5s74.5 -55.5 138.5 -55.5c44.667 0 82.667 10.833 114 32.5s57 50.334 77 86.001s34.667 76 44 121s14 90.833 14 137.5c0 29.333 -2.33301 58 -7 86s-13.334 52.833 -26.001 74.5s-30.167 39 -52.5 52s-51.166 19.5 -86.499 19.5z
M392 717.997l-18 25l151 128l29 -44z" />
    <glyph glyph-name="Ocircumflex" unicode="&#xd4;" horiz-adv-x="656" 
d="M385 694c44 0 80.833 -7.33496 110.5 -22.002s53.5 -34.667 71.5 -60s30.667 -54.833 38 -88.5s11 -69.5 11 -107.5c0 -58 -6.66699 -112.667 -20 -164s-33 -96.166 -59 -134.499s-58.167 -68.666 -96.5 -90.999s-82.5 -33.5 -132.5 -33.5c-43.333 0 -80 6 -110 18
s-54.5 29.5 -73.5 52.5s-32.833 51 -41.5 84s-13 70.167 -13 111.5c0 53.333 5.5 106 16.5 158s29 98.5 54 139.5s57.5 74.167 97.5 99.5s89 38 147 38zM385 647.998c-50 0 -91.5 -12.001 -124.5 -36.001s-59.5 -54.833 -79.5 -92.5s-34 -79.5 -42 -125.5s-12 -91 -12 -135
c0 -72.667 14.167 -127.5 42.5 -164.5s74.5 -55.5 138.5 -55.5c44.667 0 82.667 10.833 114 32.5s57 50.334 77 86.001s34.667 76 44 121s14 90.833 14 137.5c0 29.333 -2.33301 58 -7 86s-13.334 52.833 -26.001 74.5s-30.167 39 -52.5 52s-51.166 19.5 -86.499 19.5z
M535 711.997l-128 100l-153 -101l-15 21l152 134h42l121 -133z" />
    <glyph glyph-name="Otilde" unicode="&#xd5;" horiz-adv-x="656" 
d="M385 694c44 0 80.833 -7.33496 110.5 -22.002s53.5 -34.667 71.5 -60s30.667 -54.833 38 -88.5s11 -69.5 11 -107.5c0 -58 -6.66699 -112.667 -20 -164s-33 -96.166 -59 -134.499s-58.167 -68.666 -96.5 -90.999s-82.5 -33.5 -132.5 -33.5c-43.333 0 -80 6 -110 18
s-54.5 29.5 -73.5 52.5s-32.833 51 -41.5 84s-13 70.167 -13 111.5c0 53.333 5.5 106 16.5 158s29 98.5 54 139.5s57.5 74.167 97.5 99.5s89 38 147 38zM385 647.998c-50 0 -91.5 -12.001 -124.5 -36.001s-59.5 -54.833 -79.5 -92.5s-34 -79.5 -42 -125.5s-12 -91 -12 -135
c0 -72.667 14.167 -127.5 42.5 -164.5s74.5 -55.5 138.5 -55.5c44.667 0 82.667 10.833 114 32.5s57 50.334 77 86.001s34.667 76 44 121s14 90.833 14 137.5c0 29.333 -2.33301 58 -7 86s-13.334 52.833 -26.001 74.5s-30.167 39 -52.5 52s-51.166 19.5 -86.499 19.5z
M467 765.997c-12 0 -24.166 2 -36.499 6s-24.333 8.33301 -36 13l-34 13c-11 4 -20.833 6 -29.5 6l-57 -39l-19 15c9.33301 20.667 21.5 37 36.5 49s31.167 18 48.5 18c10.667 0 22 -2 34 -6l36 -12.5l35 -12.5c11.333 -4 21.666 -6 30.999 -6l55 39l17 -16
c-8.66699 -18.667 -20 -34.5 -34 -47.5s-29.667 -19.5 -47 -19.5z" />
    <glyph glyph-name="Odieresis" unicode="&#xd6;" horiz-adv-x="656" 
d="M385 694c44 0 80.833 -7.33496 110.5 -22.002s53.5 -34.667 71.5 -60s30.667 -54.833 38 -88.5s11 -69.5 11 -107.5c0 -58 -6.66699 -112.667 -20 -164s-33 -96.166 -59 -134.499s-58.167 -68.666 -96.5 -90.999s-82.5 -33.5 -132.5 -33.5c-43.333 0 -80 6 -110 18
s-54.5 29.5 -73.5 52.5s-32.833 51 -41.5 84s-13 70.167 -13 111.5c0 53.333 5.5 106 16.5 158s29 98.5 54 139.5s57.5 74.167 97.5 99.5s89 38 147 38zM385 647.998c-50 0 -91.5 -12.001 -124.5 -36.001s-59.5 -54.833 -79.5 -92.5s-34 -79.5 -42 -125.5s-12 -91 -12 -135
c0 -72.667 14.167 -127.5 42.5 -164.5s74.5 -55.5 138.5 -55.5c44.667 0 82.667 10.833 114 32.5s57 50.334 77 86.001s34.667 76 44 121s14 90.833 14 137.5c0 29.333 -2.33301 58 -7 86s-13.334 52.833 -26.001 74.5s-30.167 39 -52.5 52s-51.166 19.5 -86.499 19.5z
M514 778.997c-0.666992 -11.333 -5.00098 -21 -13.001 -29s-17.667 -12 -29 -12c-9.33301 0 -16.833 3 -22.5 9s-8.5 13.667 -8.5 23c0.666992 11.333 4.83398 21 12.501 29s16.5 12 26.5 12c10.667 0 19 -3 25 -9s9 -13.667 9 -23zM355.999 778.997
c-0.666992 -11.333 -4.99902 -20.999 -12.999 -28.999s-17.333 -12 -28 -12c-9.33301 0 -17 3.16699 -23 9.5s-9 14.166 -9 23.499c0 11.333 4.33301 20.833 13 28.5s17.667 11.5 27 11.5c10 0 18.167 -3 24.5 -9s9.16602 -13.667 8.49902 -23z" />
    <glyph glyph-name="multiply" unicode="&#xd7;" horiz-adv-x="530" 
d="M271 255l-139 -128l-27 32l139 128l-108 127l35 31l106 -127l134 126l26 -33l-133 -126l107 -125l-33 -32z" />
    <glyph glyph-name="Oslash" unicode="&#xd8;" horiz-adv-x="637" 
d="M380 694c40.667 0 74.835 -6.16504 102.502 -18.498s50.5 -29.166 68.5 -50.499c2.66699 2.66699 6.66699 7.33398 12 14.001l17 20.5l17 20.5l12 15h40l-17 -20l-23 -27l-23 -27l-17 -20c15.333 -25.333 26.166 -54.5 32.499 -87.5s9.5 -67.5 9.5 -103.5
c0 -57.333 -6.66699 -111.333 -20 -162s-33 -94.834 -59 -132.501s-58.167 -67.5 -96.5 -89.5s-82.5 -33 -132.5 -33c-44 0 -81 6.16699 -111 18.5s-54.667 30.166 -74 53.499l-12 -14.5l-17 -20.5l-17.5 -21c-5.66699 -6.66699 -9.83398 -11.334 -12.501 -14.001h-38
c4 4 9.66699 10.333 17 19l23 27.5l23 28l17 20.5c-24 42 -36 97 -36 165c0 54 5.5 107.167 16.5 159.5s28.833 99.166 53.5 140.499s57.167 74.833 97.5 100.5s89.5 38.5 147.5 38.5zM552.001 415.002c0 25.333 -1.66797 49.998 -5.00098 73.998
s-9.66602 45.667 -18.999 65l-45.5 -54.5l-65.5 -78.5l-75 -90l-75 -90.5l-65.5 -79l-45.5 -54.5c14.667 -23.333 34 -40.666 58 -51.999s54 -17 90 -17c44 0 81.667 10.833 113 32.5s57 50.334 77 86.001s34.667 76 44 121s14 90.833 14 137.5zM380 647
c-49.333 0 -90.502 -11.834 -123.502 -35.501s-59.333 -54 -79 -91s-33.667 -78.333 -42 -124s-12.5 -90.167 -12.5 -133.5c0 -51.333 6.66699 -93.666 20 -126.999l45.5 54.5l65 78.5l74.5 90.5l75 90.5l65 78l46 54c-13.333 20 -30.666 35.833 -51.999 47.5
s-48.666 17.5 -81.999 17.5z" />
    <glyph glyph-name="Ugrave" unicode="&#xd9;" horiz-adv-x="635" 
d="M567 243c-4.66699 -37.333 -13.332 -71.333 -25.999 -102s-29.834 -57 -51.501 -79s-48 -39 -79 -51s-67.167 -18 -108.5 -18c-85.333 0 -146.333 22 -183 66s-50 105.333 -40 184l54 441h56l-54 -440c-8 -68 2.16699 -119.167 30.5 -153.5s73.833 -51.5 136.5 -51.5
c60.667 0 108.5 18 143.5 54s56.5 86.333 64.5 151l54 440h57zM272.002 824l36 48l122 -127l-21 -26z" />
    <glyph glyph-name="Uacute" unicode="&#xda;" horiz-adv-x="635" 
d="M567 243c-4.66699 -37.333 -13.332 -71.333 -25.999 -102s-29.834 -57 -51.501 -79s-48 -39 -79 -51s-67.167 -18 -108.5 -18c-85.333 0 -146.333 22 -183 66s-50 105.333 -40 184l54 441h56l-54 -440c-8 -68 2.16699 -119.167 30.5 -153.5s73.833 -51.5 136.5 -51.5
c60.667 0 108.5 18 143.5 54s56.5 86.333 64.5 151l54 440h57zM351.002 718l-18 25l151 128l29 -44z" />
    <glyph glyph-name="Ucircumflex" unicode="&#xdb;" horiz-adv-x="635" 
d="M567 243c-4.66699 -37.333 -13.332 -71.333 -25.999 -102s-29.834 -57 -51.501 -79s-48 -39 -79 -51s-67.167 -18 -108.5 -18c-85.333 0 -146.333 22 -183 66s-50 105.333 -40 184l54 441h56l-54 -440c-8 -68 2.16699 -119.167 30.5 -153.5s73.833 -51.5 136.5 -51.5
c60.667 0 108.5 18 143.5 54s56.5 86.333 64.5 151l54 440h57zM525.002 712l-132 98l-159 -99l-16 21l158 131h44l125 -130z" />
    <glyph glyph-name="Udieresis" unicode="&#xdc;" horiz-adv-x="635" 
d="M567 243c-4.66699 -37.333 -13.332 -71.333 -25.999 -102s-29.834 -57 -51.501 -79s-48 -39 -79 -51s-67.167 -18 -108.5 -18c-85.333 0 -146.333 22 -183 66s-50 105.333 -40 184l54 441h56l-54 -440c-8 -68 2.16699 -119.167 30.5 -153.5s73.833 -51.5 136.5 -51.5
c60.667 0 108.5 18 143.5 54s56.5 86.333 64.5 151l54 440h57zM504.002 772c-0.666992 -11.333 -5.00098 -21 -13.001 -29s-17.667 -12 -29 -12c-9.33301 0 -16.833 3 -22.5 9s-8.5 13.667 -8.5 23c0.666992 11.333 4.83398 21 12.501 29s16.5 12 26.5 12
c10.667 0 19 -3 25 -9s9 -13.667 9 -23zM346.001 772c-0.666992 -11.333 -4.99902 -20.999 -12.999 -28.999s-17.333 -12 -28 -12c-9.33301 0 -17 3.16699 -23 9.5s-9 14.166 -9 23.499c0 11.333 4.33301 20.833 13 28.5s17.667 11.5 27 11.5c10 0 18.167 -3 24.5 -9
s9.16602 -13.667 8.49902 -23z" />
    <glyph glyph-name="Yacute" unicode="&#xdd;" horiz-adv-x="485" 
d="M222 302l-150 382h58l78 -203l46 -126h4l79 125l133 204h62l-250 -378l-37 -306h-60zM273 717l-18 25l151 128l29 -44z" />
    <glyph glyph-name="Thorn" unicode="&#xde;" horiz-adv-x="505" 
d="M175 554l149 0.000976562c52 0 94.5 -13.5 127.5 -40.5s49.5 -68.5 49.5 -124.5c0 -24.667 -3.66699 -50.167 -11 -76.5s-19.5 -50.333 -36.5 -72s-39.5 -39.334 -67.5 -53.001s-63 -20.5 -105 -20.5h-151l-20 -167h-58l81 684h58zM171 512.001l-36 -303.003h146
c17.333 0 35.5 2.83301 54.5 8.5s36.5 15.334 52.5 29.001s29.167 31.834 39.5 54.501s15.5 51 15.5 85c0 42.667 -11.833 74.334 -35.5 95.001s-53.5 31 -89.5 31h-147z" />
    <glyph glyph-name="germandbls" unicode="&#xdf;" horiz-adv-x="546" 
d="M319 671c-21.333 0 -39.6631 -4 -54.9961 -12s-28.166 -18.5 -38.499 -31.5s-18.5 -27.833 -24.5 -44.5s-10 -33.667 -12 -51c-9.33301 -69.333 -17.5 -138.833 -24.5 -208.5s-14.833 -139.167 -23.5 -208.5c-5.33301 -43.333 -11.166 -85 -17.499 -125
s-15.833 -75.167 -28.5 -105.5s-30.167 -54.5 -52.5 -72.5s-51.833 -27 -88.5 -27c-11.333 0 -23.166 0.666992 -35.499 2s-28.166 4.66602 -47.499 9.99902l12 39c25.333 -4.66699 46.666 -7 63.999 -7s32.5 2.83301 45.5 8.5s24.333 14.667 34 27s18 28.833 25 49.5
s13.167 46 18.5 76c2.66699 16.667 5.5 35.5 8.5 56.5s6.33301 46.667 10 77l13 110l18.5 155.5h-71l5 40h70c2 12.667 3.5 23.667 4.5 33s1.83301 17.833 2.5 25.5l2 22c0.666992 7 1.66699 14.833 3 23.5c2.66699 19.333 7.66699 39.666 15 60.999s18.5 41 33.5 59
s34.667 32.833 59 44.5s54.833 17.5 91.5 17.5c25.333 0 46.666 -3.5 63.999 -10.5s31.166 -16 41.499 -27s17.833 -22.833 22.5 -35.5s7 -25 7 -37c0 -27.333 -6.83301 -50.666 -20.5 -69.999s-28.834 -36.833 -45.501 -52.5l-45.5 -44.5
c-13.667 -14 -20.5 -29.333 -20.5 -46c0 -14 4 -27 12 -39s18 -24 30 -36s25.167 -24.333 39.5 -37s27.5 -26.334 39.5 -41.001s22 -30.667 30 -48s12 -36.666 12 -57.999c0 -16 -2.83301 -32.5 -8.5 -49.5s-15.167 -32.667 -28.5 -47s-30.666 -26.166 -51.999 -35.499
s-47.333 -14 -78 -14c-22 0 -45.333 2.16699 -70 6.5s-44.667 9.83301 -60 16.5l16 39c26 -8.66699 47.667 -14.167 65 -16.5s33.333 -3.5 48 -3.5c34 0 61 8.66699 81 26s30 40.666 30 69.999c0 18.667 -4 35.834 -12 51.501s-17.833 30.334 -29.5 44.001
s-24.334 26.834 -38.001 39.501s-26.334 25.667 -38.001 39s-21.5 27.166 -29.5 41.499s-12 30.166 -12 47.499c0 20 6.83301 38.333 20.5 55s28.667 32.834 45 48.501s31.333 31.5 45 47.5s20.5 33.667 20.5 53c0 5.33301 -0.833008 12.5 -2.5 21.5
s-5.83398 17.667 -12.501 26s-16.334 15.666 -29.001 21.999s-30.334 9.5 -53.001 9.5z" />
    <glyph glyph-name="agrave" unicode="&#xe0;" horiz-adv-x="491" 
d="M280 493c21.333 0 42.498 -2.16797 63.498 -6.50098s41.5 -10.5 61.5 -18.5l8 24l40 -2c-2 -11.333 -4.5 -28 -7.5 -50l-10 -75.5l-11.5 -89.5l-11.5 -91l-10 -81c-3 -24.667 -5.16699 -44.334 -6.5 -59.001l61 2l4 -34c-15.333 -6.66699 -29.333 -11.167 -42 -13.5
s-23 -3.5 -31 -3.5c-15.333 0 -26.333 3.16699 -33 9.5s-10 15.5 -10 27.5v12.5c0 5.66699 0.666992 13.167 2 22.5l-1 2c-29.333 -24 -58.666 -42.5 -87.999 -55.5s-57.666 -19.5 -84.999 -19.5c-38.667 0 -70.834 14.333 -96.501 43s-38.5 71.334 -38.5 128.001
c0 38 4.66699 76.5 14 115.5s23.833 74.333 43.5 106s44.834 57.334 75.501 77.001s67 29.5 109 29.5zM277.998 447.999c-24.667 0 -48 -6.16602 -70 -18.499s-41.333 -30.333 -58 -54s-30 -52.5 -40 -86.5s-15 -72.333 -15 -115c0 -48.667 9.16699 -83.334 27.5 -104.001
s40.5 -31 66.5 -31c27.333 0 55 7.66699 83 23s54.333 33.333 79 54l42 307c-21.333 9.33301 -41.5 15.833 -60.5 19.5s-37.167 5.5 -54.5 5.5zM185.998 676l47 37l101 -152l-29 -20z" />
    <glyph glyph-name="aacute" unicode="&#xe1;" horiz-adv-x="491" 
d="M280 493c21.333 0 42.498 -2.16797 63.498 -6.50098s41.5 -10.5 61.5 -18.5l8 24l40 -2c-2 -11.333 -4.5 -28 -7.5 -50l-10 -75.5l-11.5 -89.5l-11.5 -91l-10 -81c-3 -24.667 -5.16699 -44.334 -6.5 -59.001l61 2l4 -34c-15.333 -6.66699 -29.333 -11.167 -42 -13.5
s-23 -3.5 -31 -3.5c-15.333 0 -26.333 3.16699 -33 9.5s-10 15.5 -10 27.5v12.5c0 5.66699 0.666992 13.167 2 22.5l-1 2c-29.333 -24 -58.666 -42.5 -87.999 -55.5s-57.666 -19.5 -84.999 -19.5c-38.667 0 -70.834 14.333 -96.501 43s-38.5 71.334 -38.5 128.001
c0 38 4.66699 76.5 14 115.5s23.833 74.333 43.5 106s44.834 57.334 75.501 77.001s67 29.5 109 29.5zM277.998 447.999c-24.667 0 -48 -6.16602 -70 -18.499s-41.333 -30.333 -58 -54s-30 -52.5 -40 -86.5s-15 -72.333 -15 -115c0 -48.667 9.16699 -83.334 27.5 -104.001
s40.5 -31 66.5 -31c27.333 0 55 7.66699 83 23s54.333 33.333 79 54l42 307c-21.333 9.33301 -41.5 15.833 -60.5 19.5s-37.167 5.5 -54.5 5.5zM275.998 545l-28 23l126 156l43 -41z" />
    <glyph glyph-name="acircumflex" unicode="&#xe2;" horiz-adv-x="491" 
d="M280 493c21.333 0 42.498 -2.16797 63.498 -6.50098s41.5 -10.5 61.5 -18.5l8 24l40 -2c-2 -11.333 -4.5 -28 -7.5 -50l-10 -75.5l-11.5 -89.5l-11.5 -91l-10 -81c-3 -24.667 -5.16699 -44.334 -6.5 -59.001l61 2l4 -34c-15.333 -6.66699 -29.333 -11.167 -42 -13.5
s-23 -3.5 -31 -3.5c-15.333 0 -26.333 3.16699 -33 9.5s-10 15.5 -10 27.5v12.5c0 5.66699 0.666992 13.167 2 22.5l-1 2c-29.333 -24 -58.666 -42.5 -87.999 -55.5s-57.666 -19.5 -84.999 -19.5c-38.667 0 -70.834 14.333 -96.501 43s-38.5 71.334 -38.5 128.001
c0 38 4.66699 76.5 14 115.5s23.833 74.333 43.5 106s44.834 57.334 75.501 77.001s67 29.5 109 29.5zM277.998 447.999c-24.667 0 -48 -6.16602 -70 -18.499s-41.333 -30.333 -58 -54s-30 -52.5 -40 -86.5s-15 -72.333 -15 -115c0 -48.667 9.16699 -83.334 27.5 -104.001
s40.5 -31 66.5 -31c27.333 0 55 7.66699 83 23s54.333 33.333 79 54l42 307c-21.333 9.33301 -41.5 15.833 -60.5 19.5s-37.167 5.5 -54.5 5.5zM436.998 541l-128 101l-153 -101l-15 21l153 133h41l122 -132z" />
    <glyph glyph-name="atilde" unicode="&#xe3;" horiz-adv-x="491" 
d="M280 493c21.333 0 42.498 -2.16797 63.498 -6.50098s41.5 -10.5 61.5 -18.5l8 24l40 -2c-2 -11.333 -4.5 -28 -7.5 -50l-10 -75.5l-11.5 -89.5l-11.5 -91l-10 -81c-3 -24.667 -5.16699 -44.334 -6.5 -59.001l61 2l4 -34c-15.333 -6.66699 -29.333 -11.167 -42 -13.5
s-23 -3.5 -31 -3.5c-15.333 0 -26.333 3.16699 -33 9.5s-10 15.5 -10 27.5v12.5c0 5.66699 0.666992 13.167 2 22.5l-1 2c-29.333 -24 -58.666 -42.5 -87.999 -55.5s-57.666 -19.5 -84.999 -19.5c-38.667 0 -70.834 14.333 -96.501 43s-38.5 71.334 -38.5 128.001
c0 38 4.66699 76.5 14 115.5s23.833 74.333 43.5 106s44.834 57.334 75.501 77.001s67 29.5 109 29.5zM277.998 447.999c-24.667 0 -48 -6.16602 -70 -18.499s-41.333 -30.333 -58 -54s-30 -52.5 -40 -86.5s-15 -72.333 -15 -115c0 -48.667 9.16699 -83.334 27.5 -104.001
s40.5 -31 66.5 -31c27.333 0 55 7.66699 83 23s54.333 33.333 79 54l42 307c-21.333 9.33301 -41.5 15.833 -60.5 19.5s-37.167 5.5 -54.5 5.5zM364.998 578c-12 0 -24.166 2 -36.499 6s-24.333 8.33301 -36 13l-34 13c-11 4 -20.833 6 -29.5 6l-57 -39l-19 15
c9.33301 20.667 21.5 37 36.5 49s31.167 18 48.5 18c10.667 0 22 -2 34 -6l36 -12.5l35 -12.5c11.333 -4 21.666 -6 30.999 -6l55 39l17 -16c-8.66699 -18.667 -20 -34.5 -34 -47.5s-29.667 -19.5 -47 -19.5z" />
    <glyph glyph-name="adieresis" unicode="&#xe4;" horiz-adv-x="491" 
d="M280 493c21.333 0 42.498 -2.16797 63.498 -6.50098s41.5 -10.5 61.5 -18.5l8 24l40 -2c-2 -11.333 -4.5 -28 -7.5 -50l-10 -75.5l-11.5 -89.5l-11.5 -91l-10 -81c-3 -24.667 -5.16699 -44.334 -6.5 -59.001l61 2l4 -34c-15.333 -6.66699 -29.333 -11.167 -42 -13.5
s-23 -3.5 -31 -3.5c-15.333 0 -26.333 3.16699 -33 9.5s-10 15.5 -10 27.5v12.5c0 5.66699 0.666992 13.167 2 22.5l-1 2c-29.333 -24 -58.666 -42.5 -87.999 -55.5s-57.666 -19.5 -84.999 -19.5c-38.667 0 -70.834 14.333 -96.501 43s-38.5 71.334 -38.5 128.001
c0 38 4.66699 76.5 14 115.5s23.833 74.333 43.5 106s44.834 57.334 75.501 77.001s67 29.5 109 29.5zM277.998 447.999c-24.667 0 -48 -6.16602 -70 -18.499s-41.333 -30.333 -58 -54s-30 -52.5 -40 -86.5s-15 -72.333 -15 -115c0 -48.667 9.16699 -83.334 27.5 -104.001
s40.5 -31 66.5 -31c27.333 0 55 7.66699 83 23s54.333 33.333 79 54l42 307c-21.333 9.33301 -41.5 15.833 -60.5 19.5s-37.167 5.5 -54.5 5.5zM418.998 612c0 -11.333 -4.16699 -21 -12.5 -29s-18.166 -12 -29.499 -12c-10 0 -17.833 3.16699 -23.5 9.5
s-8.5 14.5 -8.5 24.5c0.666992 11.333 5.16699 21 13.5 29s17.166 12 26.499 12c10 0 18.167 -3 24.5 -9s9.5 -14.333 9.5 -25zM259.998 612c0 -11.333 -4.16602 -21 -12.499 -29s-18.166 -12 -29.499 -12c-9.33301 0 -17 3.16699 -23 9.5s-9 14.5 -9 24.5
c0.666992 11.333 5.16699 21 13.5 29s17.166 12 26.499 12c10.667 0 19.167 -3 25.5 -9s9.16602 -14.333 8.49902 -25z" />
    <glyph glyph-name="aring" unicode="&#xe5;" horiz-adv-x="491" 
d="M280 493c21.333 0 42.498 -2.16797 63.498 -6.50098s41.5 -10.5 61.5 -18.5l8 24l40 -2c-2 -11.333 -4.5 -28 -7.5 -50l-10 -75.5l-11.5 -89.5l-11.5 -91l-10 -81c-3 -24.667 -5.16699 -44.334 -6.5 -59.001l61 2l4 -34c-15.333 -6.66699 -29.333 -11.167 -42 -13.5
s-23 -3.5 -31 -3.5c-15.333 0 -26.333 3.16699 -33 9.5s-10 15.5 -10 27.5v12.5c0 5.66699 0.666992 13.167 2 22.5l-1 2c-29.333 -24 -58.666 -42.5 -87.999 -55.5s-57.666 -19.5 -84.999 -19.5c-38.667 0 -70.834 14.333 -96.501 43s-38.5 71.334 -38.5 128.001
c0 38 4.66699 76.5 14 115.5s23.833 74.333 43.5 106s44.834 57.334 75.501 77.001s67 29.5 109 29.5zM277.998 447.999c-24.667 0 -48 -6.16602 -70 -18.499s-41.333 -30.333 -58 -54s-30 -52.5 -40 -86.5s-15 -72.333 -15 -115c0 -48.667 9.16699 -83.334 27.5 -104.001
s40.5 -31 66.5 -31c27.333 0 55 7.66699 83 23s54.333 33.333 79 54l42 307c-21.333 9.33301 -41.5 15.833 -60.5 19.5s-37.167 5.5 -54.5 5.5zM297.998 549c-27.333 0 -48.4971 8.83203 -63.4971 26.499s-21.5 38.834 -19.5 63.501
c0.666992 12.667 3.83398 25.167 9.50098 37.5s13.167 23 22.5 32s20.333 16.333 33 22s26.667 8.5 42 8.5c25.333 0 45.666 -8.83301 60.999 -26.5s21.666 -39.167 18.999 -64.5c-0.666992 -14 -3.83398 -27 -9.50098 -39s-13.334 -22.5 -23.001 -31.5s-20.5 -16 -32.5 -21
s-25 -7.5 -39 -7.5zM318.001 705.999c-19.333 0 -35.168 -6.66797 -47.501 -20.001s-19.166 -29.666 -20.499 -48.999c-1.33301 -16.667 2.5 -30.5 11.5 -41.5s22.833 -16.5 41.5 -16.5c17.333 0 32.333 6.33301 45 19s19.667 29 21 49c1.33301 16.667 -2.5 30.667 -11.5 42
s-22.167 17 -39.5 17z" />
    <glyph glyph-name="ae" unicode="&#xe6;" horiz-adv-x="730" 
d="M580 496c22.667 0 41.999 -3.16602 57.999 -9.49902s29.333 -14.833 40 -25.5s18.5 -23 23.5 -37s7.5 -28.333 7.5 -43c0 -30 -8.16699 -55 -24.5 -75s-38.833 -36 -67.5 -48s-62.334 -20.667 -101.001 -26s-80.334 -8.33301 -125.001 -9
c-1.33301 -7.33301 -2.16602 -15.833 -2.49902 -25.5s-0.5 -17.5 -0.5 -23.5c0 -16.667 1.66699 -33.167 5 -49.5s9.33301 -31.166 18 -44.499s20.834 -24.166 36.501 -32.499s35.834 -12.5 60.501 -12.5s49 3 73 9s48.333 14.667 73 26l7 -17.5l7 -17.5
c-21.333 -12.667 -47 -22.667 -77 -30s-61.333 -11 -94 -11c-40.667 0 -72.334 7.33301 -95.001 22s-38.667 33.667 -48 57c-22 -17.333 -43.5 -31.333 -64.5 -42s-40.833 -18.834 -59.5 -24.501s-36 -9.5 -52 -11.5s-30.333 -3 -43 -3
c-22.667 0 -41.334 3.16699 -56.001 9.5s-26.167 14.833 -34.5 25.5s-14 22.5 -17 35.5s-4.5 26.5 -4.5 40.5c0 56.667 25.833 97.167 77.5 121.5s131.5 36.166 239.5 35.499c3.33301 15.333 6.33301 31.333 9 48s4 30.667 4 42c0 36 -8.16699 61.667 -24.5 77
s-43.5 23 -81.5 23c-20.667 0 -44.667 -2.66699 -72 -8s-53 -12.333 -77 -21l-12 38c28.667 12 58 20.833 88 26.5s59 8.5 87 8.5c16.667 0 32.834 -1.5 48.501 -4.5s29.5 -8.33301 41.5 -16s21.833 -18.334 29.5 -32.001s11.834 -31.167 12.501 -52.5
c19.333 30.667 43.833 56.167 73.5 76.5s67.5 30.5 113.5 30.5zM162.999 34.001c10.667 0 22.833 1.00098 36.5 3.00098s28.167 5.66699 43.5 11s31.5 12.666 48.5 21.999s33.833 21.333 50.5 36c-6 22 -9 46 -9 72c0 15.333 1 31 3 47
c-84 -1.33301 -147.5 -10.5 -190.5 -27.5s-64.5 -45.833 -64.5 -86.5c0 -24.667 6.5 -43.667 19.5 -57s33.833 -20 62.5 -20zM572.998 451.002c-27.333 0 -51.5 -5.49902 -72.5 -16.499s-39 -25.5 -54 -43.5s-27 -38.5 -36 -61.5s-14.833 -46.833 -17.5 -71.5
c83.333 1.33301 148.333 10.833 195 28.5s70 46.5 70 86.5c0 23.333 -7 42.166 -21 56.499s-35.333 21.5 -64 21.5z" />
    <glyph glyph-name="ccedilla" unicode="&#xe7;" horiz-adv-x="419" 
d="M214 37c25.333 0 49.0059 2.66895 71.0059 8.00195s46.667 13.333 74 24l13 -35c-18 -10.667 -39.833 -19.667 -65.5 -27s-52.167 -11.666 -79.5 -12.999l-54 -61c30.667 -1.33301 55.167 -7 73.5 -17s27.5 -26.667 27.5 -50c0 -14 -3.66699 -27.333 -11 -40
s-18.333 -24 -33 -34s-33.334 -18 -56.001 -24s-49.334 -9 -80.001 -9l3 28c43.333 3.33301 75.5 11.666 96.5 24.999s31.5 29 31.5 47c0 8.66699 -2.66699 15.667 -8 21s-12.333 9.33301 -21 12s-18.834 4.5 -30.501 5.5s-23.5 1.5 -35.5 1.5l-8 17l34 39l34 39
c-28 1.33301 -51.5 6.66602 -70.5 15.999s-34.5 21.666 -46.5 36.999s-20.667 33.666 -26 54.999s-8 45 -8 71c0 28 3 60.5 9 97.5s17.667 72.167 35 105.5s41.833 61.5 73.5 84.5s73.167 34.5 124.5 34.5c52 0 96 -10.333 132 -31l-18 -37
c-25.333 11.333 -48 18.166 -68 20.499s-36.667 3.5 -50 3.5c-30 0 -56.333 -7.16699 -79 -21.5s-41.834 -33.833 -57.501 -58.5s-27.334 -53.667 -35.001 -87s-11.5 -68.666 -11.5 -105.999c0 -19.333 2 -37.666 6 -54.999s10.5 -32.333 19.5 -45s21.167 -22.667 36.5 -30
s34.666 -11 57.999 -11z" />
    <glyph glyph-name="egrave" unicode="&#xe8;" horiz-adv-x="436" 
d="M284 496c22.667 0 41.999 -3.16602 57.999 -9.49902s29.333 -14.833 40 -25.5s18.5 -23 23.5 -37s7.5 -28.333 7.5 -43c0 -32 -8.33301 -58.833 -25 -80.5s-39.5 -39.5 -68.5 -53.5s-62.833 -24.5 -101.5 -31.5s-80 -11.833 -124 -14.5c-0.666992 -6 -1 -11.5 -1 -16.5
v-13.5c0 -15.333 1.66699 -31 5 -47s9.33301 -30.5 18 -43.5s20.667 -23.667 36 -32s35.333 -12.5 60 -12.5s49 2.83301 73 8.5s48.333 14.167 73 25.5l13 -35c-21.333 -12.667 -46.833 -22.667 -76.5 -30s-60.834 -11 -93.501 -11s-59.5 5 -80.5 15s-37.667 23.5 -50 40.5
s-20.833 36.667 -25.5 59s-7 46.166 -7 71.499c0 31.333 3.83301 65.5 11.5 102.5s20.834 71.333 39.501 103s43.834 58 75.501 79s71.5 31.5 119.5 31.5zM275.999 451.001c-26 0 -49.334 -5.49902 -70.001 -16.499s-38.5 -26 -53.5 -45s-27.167 -41.333 -36.5 -67
s-15.666 -53.5 -18.999 -83.5c84 4 148.667 16.667 194 38s68 53.666 68 96.999c0 23.333 -6.5 42 -19.5 56s-34.167 21 -63.5 21zM168.998 676.002l47 37l101 -152l-29 -20z" />
    <glyph glyph-name="eacute" unicode="&#xe9;" horiz-adv-x="436" 
d="M284 496c22.667 0 41.999 -3.16602 57.999 -9.49902s29.333 -14.833 40 -25.5s18.5 -23 23.5 -37s7.5 -28.333 7.5 -43c0 -32 -8.33301 -58.833 -25 -80.5s-39.5 -39.5 -68.5 -53.5s-62.833 -24.5 -101.5 -31.5s-80 -11.833 -124 -14.5c-0.666992 -6 -1 -11.5 -1 -16.5
v-13.5c0 -15.333 1.66699 -31 5 -47s9.33301 -30.5 18 -43.5s20.667 -23.667 36 -32s35.333 -12.5 60 -12.5s49 2.83301 73 8.5s48.333 14.167 73 25.5l13 -35c-21.333 -12.667 -46.833 -22.667 -76.5 -30s-60.834 -11 -93.501 -11s-59.5 5 -80.5 15s-37.667 23.5 -50 40.5
s-20.833 36.667 -25.5 59s-7 46.166 -7 71.499c0 31.333 3.83301 65.5 11.5 102.5s20.834 71.333 39.501 103s43.834 58 75.501 79s71.5 31.5 119.5 31.5zM275.999 451.001c-26 0 -49.334 -5.49902 -70.001 -16.499s-38.5 -26 -53.5 -45s-27.167 -41.333 -36.5 -67
s-15.666 -53.5 -18.999 -83.5c84 4 148.667 16.667 194 38s68 53.666 68 96.999c0 23.333 -6.5 42 -19.5 56s-34.167 21 -63.5 21zM274.998 545.002l-28 23l126 156l43 -41z" />
    <glyph glyph-name="ecircumflex" unicode="&#xea;" horiz-adv-x="436" 
d="M284 496c22.667 0 41.999 -3.16602 57.999 -9.49902s29.333 -14.833 40 -25.5s18.5 -23 23.5 -37s7.5 -28.333 7.5 -43c0 -32 -8.33301 -58.833 -25 -80.5s-39.5 -39.5 -68.5 -53.5s-62.833 -24.5 -101.5 -31.5s-80 -11.833 -124 -14.5c-0.666992 -6 -1 -11.5 -1 -16.5
v-13.5c0 -15.333 1.66699 -31 5 -47s9.33301 -30.5 18 -43.5s20.667 -23.667 36 -32s35.333 -12.5 60 -12.5s49 2.83301 73 8.5s48.333 14.167 73 25.5l13 -35c-21.333 -12.667 -46.833 -22.667 -76.5 -30s-60.834 -11 -93.501 -11s-59.5 5 -80.5 15s-37.667 23.5 -50 40.5
s-20.833 36.667 -25.5 59s-7 46.166 -7 71.499c0 31.333 3.83301 65.5 11.5 102.5s20.834 71.333 39.501 103s43.834 58 75.501 79s71.5 31.5 119.5 31.5zM275.999 451.001c-26 0 -49.334 -5.49902 -70.001 -16.499s-38.5 -26 -53.5 -45s-27.167 -41.333 -36.5 -67
s-15.666 -53.5 -18.999 -83.5c84 4 148.667 16.667 194 38s68 53.666 68 96.999c0 23.333 -6.5 42 -19.5 56s-34.167 21 -63.5 21zM411.998 534.002l-128 101l-153 -101l-15 21l153 133h41l122 -132z" />
    <glyph glyph-name="edieresis" unicode="&#xeb;" horiz-adv-x="436" 
d="M284 496c22.667 0 41.999 -3.16602 57.999 -9.49902s29.333 -14.833 40 -25.5s18.5 -23 23.5 -37s7.5 -28.333 7.5 -43c0 -32 -8.33301 -58.833 -25 -80.5s-39.5 -39.5 -68.5 -53.5s-62.833 -24.5 -101.5 -31.5s-80 -11.833 -124 -14.5c-0.666992 -6 -1 -11.5 -1 -16.5
v-13.5c0 -15.333 1.66699 -31 5 -47s9.33301 -30.5 18 -43.5s20.667 -23.667 36 -32s35.333 -12.5 60 -12.5s49 2.83301 73 8.5s48.333 14.167 73 25.5l13 -35c-21.333 -12.667 -46.833 -22.667 -76.5 -30s-60.834 -11 -93.501 -11s-59.5 5 -80.5 15s-37.667 23.5 -50 40.5
s-20.833 36.667 -25.5 59s-7 46.166 -7 71.499c0 31.333 3.83301 65.5 11.5 102.5s20.834 71.333 39.501 103s43.834 58 75.501 79s71.5 31.5 119.5 31.5zM275.999 451.001c-26 0 -49.334 -5.49902 -70.001 -16.499s-38.5 -26 -53.5 -45s-27.167 -41.333 -36.5 -67
s-15.666 -53.5 -18.999 -83.5c84 4 148.667 16.667 194 38s68 53.666 68 96.999c0 23.333 -6.5 42 -19.5 56s-34.167 21 -63.5 21zM411.998 612.002c0 -11.333 -4.16699 -21 -12.5 -29s-18.166 -12 -29.499 -12c-10 0 -17.833 3.16699 -23.5 9.5s-8.5 14.5 -8.5 24.5
c0.666992 11.333 5.16699 21 13.5 29s17.166 12 26.499 12c10 0 18.167 -3 24.5 -9s9.5 -14.333 9.5 -25zM252.998 612.002c0 -11.333 -4.16602 -21 -12.499 -29s-18.166 -12 -29.499 -12c-9.33301 0 -17 3.16699 -23 9.5s-9 14.5 -9 24.5
c0.666992 11.333 5.16699 21 13.5 29s17.166 12 26.499 12c10.667 0 19.167 -3 25.5 -9s9.16602 -14.333 8.49902 -25z" />
    <glyph glyph-name="igrave" unicode="&#xec;" horiz-adv-x="214" 
d="M51 0l59 486.001h55c-1.33301 -7.33301 -3.5 -23.5 -6.5 -48.5l-10.5 -88l-13 -108l-13.5 -107.5l-11 -87c-3 -24.667 -4.83301 -40.334 -5.5 -47.001h-54zM27 676.001l47 37l101 -152l-29 -20z" />
    <glyph glyph-name="iacute" unicode="&#xed;" horiz-adv-x="214" 
d="M51 0l59 486.001h55c-1.33301 -7.33301 -3.5 -23.5 -6.5 -48.5l-10.5 -88l-13 -108l-13.5 -107.5l-11 -87c-3 -24.667 -4.83301 -40.334 -5.5 -47.001h-54zM146 545.001l-28 23l126 156l43 -41z" />
    <glyph glyph-name="icircumflex" unicode="&#xee;" horiz-adv-x="228" 
d="M65 0l59 486.001h55c-0.666992 -7.33301 -2.66699 -23.5 -6 -48.5s-7 -54.333 -11 -88l-13 -108l-13.5 -107.5l-11 -87c-3 -24.667 -4.83301 -40.334 -5.5 -47.001h-54zM297 541.001l-128 101l-153 -101l-15 21l153 133h41l122 -132z" />
    <glyph glyph-name="idieresis" unicode="&#xef;" horiz-adv-x="214" 
d="M51 0l59 486.001h55c-1.33301 -7.33301 -3.5 -23.5 -6.5 -48.5l-10.5 -88l-13 -108l-13.5 -107.5l-11 -87c-3 -24.667 -4.83301 -40.334 -5.5 -47.001h-54zM268 612.001c0 -11.333 -4.16699 -21 -12.5 -29s-18.166 -12 -29.499 -12c-10 0 -17.833 3.16699 -23.5 9.5
s-8.5 14.5 -8.5 24.5c0.666992 11.333 5.16699 21 13.5 29s17.166 12 26.499 12c10 0 18.167 -3 24.5 -9s9.5 -14.333 9.5 -25zM109 612.001c0 -11.333 -4.16602 -21 -12.499 -29s-18.166 -12 -29.499 -12c-9.33301 0 -17 3.16699 -23 9.5s-9 14.5 -9 24.5
c0.666992 11.333 5.16699 21 13.5 29s17.166 12 26.499 12c10.667 0 19.167 -3 25.5 -9s9.16602 -14.333 8.49902 -25z" />
    <glyph glyph-name="eth" unicode="&#xf0;" horiz-adv-x="472" 
d="M259 449c26.667 0 52.1689 -4.5 76.502 -13.5s42.833 -18.833 55.5 -29.5l1 1c-4.66699 29.333 -12.334 58.166 -23.001 86.499s-26.667 55.833 -48 82.5l-103 -65l-8 12c-2.66699 4 -5.33398 8.33301 -8.00098 13l98 64c-13.333 15.333 -28.666 29.666 -45.999 42.999
s-36.333 26 -57 38l19 33c50 -26 91 -55.667 123 -89l45.5 29.5l45.5 28.5l16 -26l-86 -55c30 -36.667 51.5 -77.167 64.5 -121.5s19.5 -91.5 19.5 -141.5c0 -19.333 -1.16699 -41.166 -3.5 -65.499s-6.5 -49.333 -12.5 -75s-14.5 -50.667 -25.5 -75
s-25.333 -46.166 -43 -65.499s-39 -34.833 -64 -46.5s-54.5 -17.5 -88.5 -17.5c-29.333 0 -54.5 4.66699 -75.5 14s-38.333 22 -52 38s-23.834 34.833 -30.501 56.5s-10 45.167 -10 70.5c0 34.667 5 68.5 15 101.5s24.333 62.5 43 88.5s41.667 46.833 69 62.5
s58.333 23.5 93 23.5zM259.002 406c-32 0 -58.502 -8.33691 -79.502 -25.0039s-37.833 -37 -50.5 -61s-21.667 -49.5 -27 -76.5s-8 -50.5 -8 -70.5c0 -17.333 1.83301 -34.166 5.5 -50.499s10 -31 19 -44s21.333 -23.5 37 -31.5s35.834 -12 60.501 -12
c24 0 45 4.83301 63 14.5s33.5 22.5 46.5 38.5s23.667 34.167 32 54.5s15 41.333 20 63s8.5 42.834 10.5 63.501s3.33301 39.334 4 56.001v27c-18.667 18.667 -40.167 32.334 -64.5 41.001s-47.166 13 -68.499 13z" />
    <glyph glyph-name="ntilde" unicode="&#xf1;" horiz-adv-x="481" 
d="M342 0l40.001 350.001c1.33301 5.33301 2 10.333 2 15v14c0 11.333 -1.33301 20 -4 26c-3.33301 15.333 -10.5 26.666 -21.5 33.999s-27.167 11 -48.5 11c-26 0 -53.833 -7.83301 -83.5 -23.5s-60.167 -37.5 -91.5 -65.5l-45 -361h-54c2 15.333 4.5 35.833 7.5 61.5
s6.5 53.834 10.5 84.501l12.5 96.5l12 97l10 85l7.5 62.5h52l-4.5 -38c-1.66699 -14 -3.5 -25.667 -5.5 -35c2 -2 3 -2.66699 3 -2c72 56.667 134.667 85 188 85c21.333 0 39 -2.83301 53 -8.5s25.167 -13.167 33.5 -22.5s14.166 -20.5 17.499 -33.5s5 -26.5 5 -40.5
c0 -4.66699 -0.166992 -9.33398 -0.5 -14.001s-0.833008 -9.66699 -1.5 -15l-40 -363h-54zM343.001 587.001c-12 0 -24.166 2 -36.499 6s-24.333 8.33301 -36 13l-34 13c-11 4 -20.833 6 -29.5 6l-57 -39l-19 15c9.33301 20.667 21.5 37 36.5 49s31.167 18 48.5 18
c10.667 0 22 -2 34 -6l36 -12.5l35 -12.5c11.333 -4 21.666 -6 30.999 -6l55 39l17 -16c-8.66699 -18.667 -20 -34.5 -34 -47.5s-29.667 -19.5 -47 -19.5z" />
    <glyph glyph-name="ograve" unicode="&#xf2;" horiz-adv-x="477" 
d="M269 450c-34.667 0 -63.332 -9.33203 -85.999 -27.999s-40.667 -41.667 -54 -69s-22.666 -57 -27.999 -89s-8 -61.333 -8 -88c0 -18 1.83301 -35.5 5.5 -52.5s10 -32 19 -45s21.333 -23.333 37 -31s35.5 -11.5 59.5 -11.5c35.333 0 64.166 9.33301 86.499 28
s39.666 41.5 51.999 68.5s20.833 55.5 25.5 85.5s7 56.667 7 80c0 19.333 -1.66699 38.166 -5 56.499s-9.5 34.5 -18.5 48.5s-21 25.333 -36 34s-33.833 13 -56.5 13zM270.002 495.001c32 0 58.8291 -5.33203 80.4961 -15.999s39.334 -25 53.001 -43
s23.334 -38.667 29.001 -62s8.5 -48 8.5 -74c0 -32 -3.5 -65.833 -10.5 -101.5s-19.333 -68.834 -37 -99.501s-41.5 -56 -71.5 -76s-67.667 -30 -113 -30c-33.333 0 -60.833 5 -82.5 15s-39.167 23.667 -52.5 41s-22.666 37.333 -27.999 60s-8 47 -8 73
c0 34.667 4 70.5 12 107.5s21.167 70.667 39.5 101s42.333 55.333 72 75s65.834 29.5 108.501 29.5zM179.998 676.002l47 37l101 -152l-29 -20z" />
    <glyph glyph-name="oacute" unicode="&#xf3;" horiz-adv-x="477" 
d="M269 450c-34.667 0 -63.332 -9.33203 -85.999 -27.999s-40.667 -41.667 -54 -69s-22.666 -57 -27.999 -89s-8 -61.333 -8 -88c0 -18 1.83301 -35.5 5.5 -52.5s10 -32 19 -45s21.333 -23.333 37 -31s35.5 -11.5 59.5 -11.5c35.333 0 64.166 9.33301 86.499 28
s39.666 41.5 51.999 68.5s20.833 55.5 25.5 85.5s7 56.667 7 80c0 19.333 -1.66699 38.166 -5 56.499s-9.5 34.5 -18.5 48.5s-21 25.333 -36 34s-33.833 13 -56.5 13zM270.002 495.001c32 0 58.8291 -5.33203 80.4961 -15.999s39.334 -25 53.001 -43
s23.334 -38.667 29.001 -62s8.5 -48 8.5 -74c0 -32 -3.5 -65.833 -10.5 -101.5s-19.333 -68.834 -37 -99.501s-41.5 -56 -71.5 -76s-67.667 -30 -113 -30c-33.333 0 -60.833 5 -82.5 15s-39.167 23.667 -52.5 41s-22.666 37.333 -27.999 60s-8 47 -8 73
c0 34.667 4 70.5 12 107.5s21.167 70.667 39.5 101s42.333 55.333 72 75s65.834 29.5 108.501 29.5zM263.998 545.002l-28 23l126 156l43 -41z" />
    <glyph glyph-name="ocircumflex" unicode="&#xf4;" horiz-adv-x="477" 
d="M269 450c-34.667 0 -63.332 -9.33203 -85.999 -27.999s-40.667 -41.667 -54 -69s-22.666 -57 -27.999 -89s-8 -61.333 -8 -88c0 -18 1.83301 -35.5 5.5 -52.5s10 -32 19 -45s21.333 -23.333 37 -31s35.5 -11.5 59.5 -11.5c35.333 0 64.166 9.33301 86.499 28
s39.666 41.5 51.999 68.5s20.833 55.5 25.5 85.5s7 56.667 7 80c0 19.333 -1.66699 38.166 -5 56.499s-9.5 34.5 -18.5 48.5s-21 25.333 -36 34s-33.833 13 -56.5 13zM270.002 495.001c32 0 58.8291 -5.33203 80.4961 -15.999s39.334 -25 53.001 -43
s23.334 -38.667 29.001 -62s8.5 -48 8.5 -74c0 -32 -3.5 -65.833 -10.5 -101.5s-19.333 -68.834 -37 -99.501s-41.5 -56 -71.5 -76s-67.667 -30 -113 -30c-33.333 0 -60.833 5 -82.5 15s-39.167 23.667 -52.5 41s-22.666 37.333 -27.999 60s-8 47 -8 73
c0 34.667 4 70.5 12 107.5s21.167 70.667 39.5 101s42.333 55.333 72 75s65.834 29.5 108.501 29.5zM422.998 541.002l-128 101l-153 -101l-15 21l153 133h41l122 -132z" />
    <glyph glyph-name="otilde" unicode="&#xf5;" horiz-adv-x="477" 
d="M269 450c-34.667 0 -63.332 -9.33203 -85.999 -27.999s-40.667 -41.667 -54 -69s-22.666 -57 -27.999 -89s-8 -61.333 -8 -88c0 -18 1.83301 -35.5 5.5 -52.5s10 -32 19 -45s21.333 -23.333 37 -31s35.5 -11.5 59.5 -11.5c35.333 0 64.166 9.33301 86.499 28
s39.666 41.5 51.999 68.5s20.833 55.5 25.5 85.5s7 56.667 7 80c0 19.333 -1.66699 38.166 -5 56.499s-9.5 34.5 -18.5 48.5s-21 25.333 -36 34s-33.833 13 -56.5 13zM270.002 495.001c32 0 58.8291 -5.33203 80.4961 -15.999s39.334 -25 53.001 -43
s23.334 -38.667 29.001 -62s8.5 -48 8.5 -74c0 -32 -3.5 -65.833 -10.5 -101.5s-19.333 -68.834 -37 -99.501s-41.5 -56 -71.5 -76s-67.667 -30 -113 -30c-33.333 0 -60.833 5 -82.5 15s-39.167 23.667 -52.5 41s-22.666 37.333 -27.999 60s-8 47 -8 73
c0 34.667 4 70.5 12 107.5s21.167 70.667 39.5 101s42.333 55.333 72 75s65.834 29.5 108.501 29.5zM358.998 578.002c-12 0 -24.166 2 -36.499 6s-24.333 8.33301 -36 13l-34 13c-11 4 -20.833 6 -29.5 6l-57 -39l-19 15c9.33301 20.667 21.5 37 36.5 49s31.167 18 48.5 18
c10.667 0 22 -2 34 -6l36 -12.5l35 -12.5c11.333 -4 21.666 -6 30.999 -6l55 39l17 -16c-8.66699 -18.667 -20 -34.5 -34 -47.5s-29.667 -19.5 -47 -19.5z" />
    <glyph glyph-name="odieresis" unicode="&#xf6;" horiz-adv-x="477" 
d="M269 450c-34.667 0 -63.332 -9.33203 -85.999 -27.999s-40.667 -41.667 -54 -69s-22.666 -57 -27.999 -89s-8 -61.333 -8 -88c0 -18 1.83301 -35.5 5.5 -52.5s10 -32 19 -45s21.333 -23.333 37 -31s35.5 -11.5 59.5 -11.5c35.333 0 64.166 9.33301 86.499 28
s39.666 41.5 51.999 68.5s20.833 55.5 25.5 85.5s7 56.667 7 80c0 19.333 -1.66699 38.166 -5 56.499s-9.5 34.5 -18.5 48.5s-21 25.333 -36 34s-33.833 13 -56.5 13zM270.002 495.001c32 0 58.8291 -5.33203 80.4961 -15.999s39.334 -25 53.001 -43
s23.334 -38.667 29.001 -62s8.5 -48 8.5 -74c0 -32 -3.5 -65.833 -10.5 -101.5s-19.333 -68.834 -37 -99.501s-41.5 -56 -71.5 -76s-67.667 -30 -113 -30c-33.333 0 -60.833 5 -82.5 15s-39.167 23.667 -52.5 41s-22.666 37.333 -27.999 60s-8 47 -8 73
c0 34.667 4 70.5 12 107.5s21.167 70.667 39.5 101s42.333 55.333 72 75s65.834 29.5 108.501 29.5zM410.998 612.002c0 -11.333 -4.16699 -21 -12.5 -29s-18.166 -12 -29.499 -12c-10 0 -17.833 3.16699 -23.5 9.5s-8.5 14.5 -8.5 24.5c0.666992 11.333 5.16699 21 13.5 29
s17.166 12 26.499 12c10 0 18.167 -3 24.5 -9s9.5 -14.333 9.5 -25zM251.998 612.002c0 -11.333 -4.16602 -21 -12.499 -29s-18.166 -12 -29.499 -12c-9.33301 0 -17 3.16699 -23 9.5s-9 14.5 -9 24.5c0.666992 11.333 5.16699 21 13.5 29s17.166 12 26.499 12
c10.667 0 19.167 -3 25.5 -9s9.16602 -14.333 8.49902 -25z" />
    <glyph glyph-name="divide" unicode="&#xf7;" horiz-adv-x="517" 
d="M329 448c0 -12 -4.66602 -22.667 -13.999 -32s-19.666 -14 -30.999 -14c-10.667 0 -19.334 3.83301 -26.001 11.5s-10 16.5 -10 26.5c0.666992 12 5.66699 22.5 15 31.5s19.666 13.5 30.999 13.5c10 0 18.333 -3.5 25 -10.5s10 -15.833 10 -26.5zM85.001 276l5 43h364
l-5 -43h-364zM293.001 154c0 -12.667 -4.66895 -23.501 -14.002 -32.501s-19.333 -13.5 -30 -13.5s-19.5 3.5 -26.5 10.5s-10.5 15.833 -10.5 26.5c0.666992 12.667 5.33398 23.334 14.001 32.001s19.334 13 32.001 13c10 0 18.333 -3.5 25 -10.5s10 -15.5 10 -25.5z" />
    <glyph glyph-name="oslash" unicode="&#xf8;" horiz-adv-x="473" 
d="M271 495c29.333 0 54.3301 -4.50195 74.9971 -13.502s37.667 -21.167 51 -36.5c2 2 4.83301 5.33301 8.5 10s7.83398 9.5 12.501 14.5s8.83398 9.83301 12.501 14.5s6.5 8 8.5 10h32c-3.33301 -3.33301 -7.66602 -8.16602 -12.999 -14.499l-17 -20l-17 -20l-12 -14.5
c11.333 -18 19.333 -38.833 24 -62.5s7 -48.167 7 -73.5c0 -32 -4 -65.333 -12 -100s-21 -66.5 -39 -95.5s-41.833 -53 -71.5 -72s-66.167 -28.5 -109.5 -28.5c-30 0 -55.5 4 -76.5 12s-38.167 19.667 -51.5 35l-38 -45c-4 0 -9.33301 -0.166992 -16 -0.5s-12 -0.5 -16 -0.5
c2.66699 2.66699 6.5 7.16699 11.5 13.5s10.333 12.666 16 18.999l16 18.5l11.5 14c-9.33301 16 -16.333 34.333 -21 55s-7 42 -7 64c0 35.333 3.83301 71.833 11.5 109.5s20.5 71.834 38.5 102.501s41.833 55.834 71.5 75.501s66.167 29.5 109.5 29.5zM215.997 35.998
c34.667 0 62.999 9.16504 84.999 27.498s39.333 40.833 52 67.5s21.334 54.834 26.001 84.501s7 55.834 7 78.501c0 15.333 -1.16699 30.333 -3.5 45s-6.16602 28.667 -11.499 42l-30.5 -36.5l-44 -53l-51.5 -61.5l-51.5 -61.5l-44 -53.5c-13 -16 -23.167 -28 -30.5 -36
c9.33301 -13.333 21.666 -23.833 36.999 -31.5s35.333 -11.5 60 -11.5zM269.996 449.996c-34 0 -62.166 -9.16895 -84.499 -27.502s-40.333 -41.166 -54 -68.499s-23.167 -56.666 -28.5 -87.999s-8 -60.333 -8 -87c0 -14 0.833008 -27.5 2.5 -40.5
s5.16699 -25.167 10.5 -36.5l31 36.5l44.5 53l51 62l51 62l44 53.5l30.5 37c-8.66699 13.333 -20.334 24 -35.001 32s-33 12 -55 12z" />
    <glyph glyph-name="ugrave" unicode="&#xf9;" horiz-adv-x="461" 
d="M138 487l-41 -351.003c-0.666992 -5.33301 -1 -10.333 -1 -15v-14c0 -22.667 5 -40 15 -52s29 -18 57 -18c49.333 0 107 29.333 173 88l45 362h52c-2 -15.333 -4.5 -35.666 -7.5 -60.999l-10 -83.5l-11.5 -95.5l-11.5 -96.5l-10 -86
c-3 -26.333 -5.16699 -47.833 -6.5 -64.5h-51l9 72c-1.33301 1.33301 -2.33301 2 -3 2c-37.333 -30 -71.333 -51.5 -102 -64.5s-59 -19.5 -85 -19.5c-21.333 0 -39 2.66699 -53 8s-25 12.833 -33 22.5s-13.667 20.834 -17 33.501s-5 26 -5 40
c0 4.66699 0.166992 9.33398 0.5 14.001s0.833008 9.66699 1.5 15l41 364h54zM151 675.997l47 37l101 -152l-29 -20z" />
    <glyph glyph-name="uacute" unicode="&#xfa;" horiz-adv-x="461" 
d="M138 487l-41 -351.003c-0.666992 -5.33301 -1 -10.333 -1 -15v-14c0 -22.667 5 -40 15 -52s29 -18 57 -18c49.333 0 107 29.333 173 88l45 362h52c-2 -15.333 -4.5 -35.666 -7.5 -60.999l-10 -83.5l-11.5 -95.5l-11.5 -96.5l-10 -86
c-3 -26.333 -5.16699 -47.833 -6.5 -64.5h-51l9 72c-1.33301 1.33301 -2.33301 2 -3 2c-37.333 -30 -71.333 -51.5 -102 -64.5s-59 -19.5 -85 -19.5c-21.333 0 -39 2.66699 -53 8s-25 12.833 -33 22.5s-13.667 20.834 -17 33.501s-5 26 -5 40
c0 4.66699 0.166992 9.33398 0.5 14.001s0.833008 9.66699 1.5 15l41 364h54zM253 544.997l-28 23l126 156l43 -41z" />
    <glyph glyph-name="ucircumflex" unicode="&#xfb;" horiz-adv-x="461" 
d="M138 487l-41 -351.003c-0.666992 -5.33301 -1 -10.333 -1 -15v-14c0 -22.667 5 -40 15 -52s29 -18 57 -18c49.333 0 107 29.333 173 88l45 362h52c-2 -15.333 -4.5 -35.666 -7.5 -60.999l-10 -83.5l-11.5 -95.5l-11.5 -96.5l-10 -86
c-3 -26.333 -5.16699 -47.833 -6.5 -64.5h-51l9 72c-1.33301 1.33301 -2.33301 2 -3 2c-37.333 -30 -71.333 -51.5 -102 -64.5s-59 -19.5 -85 -19.5c-21.333 0 -39 2.66699 -53 8s-25 12.833 -33 22.5s-13.667 20.834 -17 33.501s-5 26 -5 40
c0 4.66699 0.166992 9.33398 0.5 14.001s0.833008 9.66699 1.5 15l41 364h54zM407 540.997l-128 101l-153 -101l-15 21l153 133h41l122 -132z" />
    <glyph glyph-name="udieresis" unicode="&#xfc;" horiz-adv-x="461" 
d="M138 487l-41 -351.003c-0.666992 -5.33301 -1 -10.333 -1 -15v-14c0 -22.667 5 -40 15 -52s29 -18 57 -18c49.333 0 107 29.333 173 88l45 362h52c-2 -15.333 -4.5 -35.666 -7.5 -60.999l-10 -83.5l-11.5 -95.5l-11.5 -96.5l-10 -86
c-3 -26.333 -5.16699 -47.833 -6.5 -64.5h-51l9 72c-1.33301 1.33301 -2.33301 2 -3 2c-37.333 -30 -71.333 -51.5 -102 -64.5s-59 -19.5 -85 -19.5c-21.333 0 -39 2.66699 -53 8s-25 12.833 -33 22.5s-13.667 20.834 -17 33.501s-5 26 -5 40
c0 4.66699 0.166992 9.33398 0.5 14.001s0.833008 9.66699 1.5 15l41 364h54zM228 611.997c0 -11.333 -4.16602 -21 -12.499 -29s-18.166 -12 -29.499 -12c-9.33301 0 -17 3.16699 -23 9.5s-9 14.5 -9 24.5c0.666992 11.333 5.16699 21 13.5 29s17.166 12 26.499 12
c10.667 0 19.167 -3 25.5 -9s9.16602 -14.333 8.49902 -25zM387.001 611.997c0 -11.333 -4.16699 -21 -12.5 -29s-18.166 -12 -29.499 -12c-10 0 -17.833 3.16699 -23.5 9.5s-8.5 14.5 -8.5 24.5c0.666992 11.333 5.16699 21 13.5 29s17.166 12 26.499 12
c10 0 18.167 -3 24.5 -9s9.5 -14.333 9.5 -25z" />
    <glyph glyph-name="yacute" unicode="&#xfd;" horiz-adv-x="409" 
d="M429 486l-128.503 -295l-128.5 -293c-7.33301 -16.667 -15.333 -32 -24 -46s-18.5 -26 -29.5 -36s-23.167 -17.833 -36.5 -23.5s-28.333 -8.5 -45 -8.5l-35 3c-15.333 1.33301 -34.666 6 -57.999 14c2.66699 7.33301 5 14.333 7 21l6 20
c17.333 -5.33301 31.5 -9 42.5 -11s21.833 -3 32.5 -3c15.333 0 30.5 4.5 45.5 13.5s29.5 29.167 43.5 60.5l22 50l22 49h-29l-47 243l-48 242h54l26.5 -140.5l26.5 -144.5l7.5 -39l9 -49l8.5 -46c2.66699 -14 4.33398 -23.333 5.00098 -28h5l73 172l125 289
c8 -2 15.833 -4.33301 23.5 -7s15.834 -5 24.501 -7zM221.997 542l-28 23l126 156l43 -41z" />
    <glyph glyph-name="thorn" unicode="&#xfe;" horiz-adv-x="476" 
d="M176 719c-2 -12.667 -4.66602 -33.3311 -7.99902 -61.998l-11 -91l-11.5 -89.5c-3.66699 -27.667 -6.5 -46.834 -8.5 -57.501l3 -2c29.333 24.667 58.833 43.334 88.5 56.001s58.167 19 85.5 19c39.333 0 71.666 -14.333 96.999 -43s38 -71 38 -127
c0 -38.667 -4.66699 -77.5 -14 -116.5s-23.833 -74.333 -43.5 -106s-44.667 -57.334 -75 -77.001s-66.833 -29.5 -109.5 -29.5c-20 0 -39.667 2 -59 6s-38.666 9.66699 -57.999 17c-1.33301 -8.66699 -3.33301 -23.334 -6 -44.001l-8.5 -66.5l-8.5 -68
c-2.66699 -21.667 -4.33398 -37.5 -5.00098 -47.5h-53l116 929h51zM210.001 39.0029c24 0 46.999 6.16699 68.999 18.5s41.333 30.166 58 53.499s30 52 40 86s15 72.667 15 116c0 48 -9.16699 82.5 -27.5 103.5s-40.5 31.5 -66.5 31.5c-27.333 0 -55 -7.66699 -83 -23
s-54.667 -33.333 -80 -54l-39 -308c20.667 -9.33301 40.334 -15.666 59.001 -18.999s37 -5 55 -5z" />
    <glyph glyph-name="ydieresis" unicode="&#xff;" horiz-adv-x="409" 
d="M429 486l-128.503 -295l-128.5 -293c-7.33301 -16.667 -15.333 -32 -24 -46s-18.5 -26 -29.5 -36s-23.167 -17.833 -36.5 -23.5s-28.333 -8.5 -45 -8.5l-35 3c-15.333 1.33301 -34.666 6 -57.999 14c2.66699 7.33301 5 14.333 7 21l6 20
c17.333 -5.33301 31.5 -9 42.5 -11s21.833 -3 32.5 -3c15.333 0 30.5 4.5 45.5 13.5s29.5 29.167 43.5 60.5l22 50l22 49h-29l-47 243l-48 242h54l26.5 -140.5l26.5 -144.5l7.5 -39l9 -49l8.5 -46c2.66699 -14 4.33398 -23.333 5.00098 -28h5l73 172l125 289
c8 -2 15.833 -4.33301 23.5 -7s15.834 -5 24.501 -7zM207.997 612c0 -11.333 -4.16602 -21 -12.499 -29s-18.166 -12 -29.499 -12c-9.33301 0 -17 3.16699 -23 9.5s-9 14.5 -9 24.5c0.666992 11.333 5.16699 21 13.5 29s17.166 12 26.499 12c10.667 0 19.167 -3 25.5 -9
s9.16602 -14.333 8.49902 -25zM366.998 612c0 -11.333 -4.16699 -21 -12.5 -29s-18.166 -12 -29.499 -12c-10 0 -17.833 3.16699 -23.5 9.5s-8.5 14.5 -8.5 24.5c0.666992 11.333 5.16699 21 13.5 29s17.166 12 26.499 12c10 0 18.167 -3 24.5 -9s9.5 -14.333 9.5 -25z" />
    <glyph glyph-name="Amacron" unicode="&#x100;" horiz-adv-x="535" 
d="M435 0l-16.5 92.5l-17.5 93.5h-273l-39.5 -93.5l-39.5 -92.5h-59l152.5 349.5l146.5 333.5h74l64.5 -342l66.5 -341h-59zM319 632l-31.5 -73.5l-40 -95.5l-46.5 -110.5l-52 -119.5h243c-1.33301 6 -3.66602 19.5 -6.99902 40.5s-7.5 45.333 -12.5 73l-15.5 88.5l-15.5 88
l-13 71c-3.66699 20 -5.83398 32.667 -6.50098 38h-3zM189 795h304l-6 -47h-304z" />
    <glyph glyph-name="amacron" unicode="&#x101;" horiz-adv-x="491" 
d="M280 493c21.333 0 42.498 -2.16797 63.498 -6.50098s41.5 -10.5 61.5 -18.5l8 24l40 -2c-2 -11.333 -4.5 -28 -7.5 -50l-10 -75.5l-11.5 -89.5l-11.5 -91l-10 -81c-3 -24.667 -5.16699 -44.334 -6.5 -59.001l61 2l4 -34c-15.333 -6.66699 -29.333 -11.167 -42 -13.5
s-23 -3.5 -31 -3.5c-15.333 0 -26.333 3.16699 -33 9.5s-10 15.5 -10 27.5v12.5c0 5.66699 0.666992 13.167 2 22.5l-1 2c-29.333 -24 -58.666 -42.5 -87.999 -55.5s-57.666 -19.5 -84.999 -19.5c-38.667 0 -70.834 14.333 -96.501 43s-38.5 71.334 -38.5 128.001
c0 38 4.66699 76.5 14 115.5s23.833 74.333 43.5 106s44.834 57.334 75.501 77.001s67 29.5 109 29.5zM277.998 447.999c-24.667 0 -48 -6.16602 -70 -18.499s-41.333 -30.333 -58 -54s-30 -52.5 -40 -86.5s-15 -72.333 -15 -115c0 -48.667 9.16699 -83.334 27.5 -104.001
s40.5 -31 66.5 -31c27.333 0 55 7.66699 83 23s54.333 33.333 79 54l42 307c-21.333 9.33301 -41.5 15.833 -60.5 19.5s-37.167 5.5 -54.5 5.5zM169.998 641h299l-5 -47h-300z" />
    <glyph glyph-name="Abreve" unicode="&#x102;" horiz-adv-x="535" 
d="M435 0l-16.5 92.5l-17.5 93.5h-273l-39.5 -93.5l-39.5 -92.5h-59l152.5 349.5l146.5 333.5h74l64.5 -342l66.5 -341h-59zM319 632l-31.5 -73.5l-40 -95.5l-46.5 -110.5l-52 -119.5h243c-1.33301 6 -3.66602 19.5 -6.99902 40.5s-7.5 45.333 -12.5 73l-15.5 88.5l-15.5 88
l-13 71c-3.66699 20 -5.83398 32.667 -6.50098 38h-3zM324 724c-16 0 -30.667 2.83398 -44 8.50098s-25.666 13.167 -36.999 22.5s-21.5 20.166 -30.5 32.499s-17.167 25.166 -24.5 38.499l39 25c13.333 -24 29.166 -43.5 47.499 -58.5s37.5 -22.5 57.5 -22.5
c7.33301 0 15.5 0.833008 24.5 2.5s19.333 5.33398 31 11.001s24.667 13.5 39 23.5s30.5 23 48.5 39l18 -18c-32 -39.333 -62.333 -66.5 -91 -81.5s-54.667 -22.5 -78 -22.5z" />
    <glyph glyph-name="abreve" unicode="&#x103;" horiz-adv-x="491" 
d="M280 493c21.333 0 42.498 -2.16797 63.498 -6.50098s41.5 -10.5 61.5 -18.5l8 24l40 -2c-2 -11.333 -4.5 -28 -7.5 -50l-10 -75.5l-11.5 -89.5l-11.5 -91l-10 -81c-3 -24.667 -5.16699 -44.334 -6.5 -59.001l61 2l4 -34c-15.333 -6.66699 -29.333 -11.167 -42 -13.5
s-23 -3.5 -31 -3.5c-15.333 0 -26.333 3.16699 -33 9.5s-10 15.5 -10 27.5v12.5c0 5.66699 0.666992 13.167 2 22.5l-1 2c-29.333 -24 -58.666 -42.5 -87.999 -55.5s-57.666 -19.5 -84.999 -19.5c-38.667 0 -70.834 14.333 -96.501 43s-38.5 71.334 -38.5 128.001
c0 38 4.66699 76.5 14 115.5s23.833 74.333 43.5 106s44.834 57.334 75.501 77.001s67 29.5 109 29.5zM277.998 447.999c-24.667 0 -48 -6.16602 -70 -18.499s-41.333 -30.333 -58 -54s-30 -52.5 -40 -86.5s-15 -72.333 -15 -115c0 -48.667 9.16699 -83.334 27.5 -104.001
s40.5 -31 66.5 -31c27.333 0 55 7.66699 83 23s54.333 33.333 79 54l42 307c-21.333 9.33301 -41.5 15.833 -60.5 19.5s-37.167 5.5 -54.5 5.5zM281.998 557c-16 0 -30.667 3.00195 -44 9.00195s-25.666 13.667 -36.999 23s-21.5 20.166 -30.5 32.499
s-16.833 25.166 -23.5 38.499l39 25c13.333 -24 29 -43.333 47 -58s37.333 -22 58 -22c6.66699 0 14.667 0.833008 24 2.5s19.833 5 31.5 10s24.667 12.5 39 22.5s30.166 23 47.499 39l18 -18c-31.333 -38.667 -61.333 -65.667 -90 -81s-55 -23 -79 -23z" />
    <glyph glyph-name="Aogonek" unicode="&#x104;" horiz-adv-x="535" 
d="M456 0c-22.667 -21.333 -39.666 -43.668 -50.999 -67.001s-17.666 -42.333 -18.999 -57c0 -16.667 4.66699 -28 14 -34s22.333 -9 39 -9c12.667 0 25.334 1.16699 38.001 3.5s23.667 4.83301 33 7.5c1.33301 -9.33301 2.66602 -17.666 3.99902 -24.999
c-16 -7.33301 -32.667 -13 -50 -17s-34 -6 -50 -6c-26.667 0 -46.167 5.5 -58.5 16.5s-18.5 25.167 -18.5 42.5c0 8.66699 1.33301 18.667 4 30s7.66699 23.5 15 36.5s17.166 26.667 29.499 41s28.166 28.833 47.499 43.5l-32 180h-273l-39.5 -93.5l-39.5 -92.5h-59
l152.5 349.5l146.5 333.5h74l64.5 -342l66.5 -341h-38zM319.001 631.998l-31.5 -73.5l-40 -95.5l-46.5 -110.5l-52 -119.5h243c-1.33301 6 -3.66602 19.5 -6.99902 40.5s-7.5 45.333 -12.5 73l-15.5 88.5l-15.5 88l-13 71c-3.66699 20 -5.83398 32.667 -6.50098 38h-3z" />
    <glyph glyph-name="aogonek" unicode="&#x105;" horiz-adv-x="491" 
d="M280 493c21.333 0 42.498 -2.17188 63.498 -6.50488s41.5 -10.5 61.5 -18.5l8 24l40 -2c-2 -11.333 -4.5 -28 -7.5 -50l-10 -75.5l-11.5 -89.5l-11.5 -91l-10 -81c-3 -24.667 -5.16699 -44.334 -6.5 -59.001l61 2l4 -34c-15.333 -6.66699 -29.333 -11.167 -42 -13.5
s-23 -3.5 -31 -3.5c-5.33301 0 -10 0.333008 -14 1s-7.66699 1.66699 -11 3c-22 -21.333 -38.5 -43.5 -49.5 -66.5s-17.167 -41.5 -18.5 -55.5c0 -16.667 4.66699 -28 14 -34s22.333 -9 39 -9c12.667 0 25.334 1.16699 38.001 3.5s23.667 4.83301 33 7.5
c1.33301 -9.33301 2.66602 -17.666 3.99902 -24.999c-16 -7.33301 -32.667 -13 -50 -17s-34 -6 -50 -6c-26.667 0 -46.167 5.5 -58.5 16.5s-18.5 25.167 -18.5 42.5c0 8.66699 1.5 18.834 4.5 30.501s8.33301 24.334 16 38.001s18.167 27.834 31.5 42.501
s30.333 29.667 51 45c-2.66699 5.33301 -4 12 -4 20v12.5c0 5.66699 0.666992 13.167 2 22.5l-1 2c-29.333 -24 -58.666 -42.5 -87.999 -55.5s-57.666 -19.5 -84.999 -19.5c-38.667 0 -70.834 14.333 -96.501 43s-38.5 71.334 -38.5 128.001c0 38 4.66699 76.5 14 115.5
s23.833 74.333 43.5 106s44.834 57.334 75.501 77.001s67 29.5 109 29.5zM277.998 447.995c-24.667 0 -48 -6.16602 -70 -18.499s-41.333 -30.333 -58 -54s-30 -52.5 -40 -86.5s-15 -72.333 -15 -115c0 -48.667 9.16699 -83.334 27.5 -104.001s40.5 -31 66.5 -31
c27.333 0 55 7.66699 83 23s54.333 33.333 79 54l42 307c-21.333 9.33301 -41.5 15.833 -60.5 19.5s-37.167 5.5 -54.5 5.5z" />
    <glyph glyph-name="Cacute" unicode="&#x106;" horiz-adv-x="553" 
d="M395 694c35.333 0 66.6689 -2.66992 94.002 -8.00293s50 -11.666 68 -18.999l-16 -44c-24.667 8.66699 -49.667 14.667 -75 18s-49 5 -71 5c-44.667 0 -83.5 -9.5 -116.5 -28.5s-60.5 -45.667 -82.5 -80s-38.5 -75.333 -49.5 -123s-16.5 -100.167 -16.5 -157.5
c0 -30 2.66699 -58.167 8 -84.5s15.166 -49.333 29.499 -69s33.833 -35 58.5 -46s56.334 -16.5 95.001 -16.5c8.66699 0 19.5 0.333008 32.5 1s26.833 2 41.5 4s29.667 4.5 45 7.5s30 6.5 44 10.5l11 -43c-12.667 -4.66699 -26.834 -8.66699 -42.501 -12
s-32 -6.16602 -49 -8.49902s-33.833 -4.16602 -50.5 -5.49902s-32.334 -2 -47.001 -2c-43.333 0 -80 6.16699 -110 18.5s-54.333 30 -73 53s-32.167 51 -40.5 84s-12.5 70.167 -12.5 111.5c0 24 1.66699 51.333 5 82s9.5 62.167 18.5 94.5s21.333 63.833 37 94.5
s35.5 58.167 59.5 82.5s52.833 43.833 86.5 58.5s73.167 22 118.5 22zM350.003 717.997l-18 25l151 128l29 -44z" />
    <glyph glyph-name="cacute" unicode="&#x107;" horiz-adv-x="419" 
d="M214 37c25.333 0 49.0029 2.66602 71.0029 7.99902s46.667 13.333 74 24l13 -35c-20.667 -11.333 -46 -21 -76 -29s-60 -12 -90 -12c-30.667 0 -56.667 4.33301 -78 13s-38.5 21 -51.5 37s-22.5 35 -28.5 57s-9 46.333 -9 73c0 28 3 60.5 9 97.5s17.667 72.167 35 105.5
s41.833 61.5 73.5 84.5s73.167 34.5 124.5 34.5c52 0 96 -10.333 132 -31l-18 -37c-25.333 11.333 -48 18.166 -68 20.499s-36.667 3.5 -50 3.5c-30 0 -56.333 -7.16699 -79 -21.5s-41.834 -33.833 -57.501 -58.5s-27.334 -53.667 -35.001 -87s-11.5 -68.666 -11.5 -105.999
c0 -19.333 2 -37.666 6 -54.999s10.5 -32.333 19.5 -45s21.167 -22.667 36.5 -30s34.666 -11 57.999 -11zM259.003 544.999l-28 23l126 156l43 -41z" />
    <glyph glyph-name="Ccircumflex" unicode="&#x108;" horiz-adv-x="553" 
d="M395 694c35.333 0 66.6689 -2.66992 94.002 -8.00293s50 -11.666 68 -18.999l-16 -44c-24.667 8.66699 -49.667 14.667 -75 18s-49 5 -71 5c-44.667 0 -83.5 -9.5 -116.5 -28.5s-60.5 -45.667 -82.5 -80s-38.5 -75.333 -49.5 -123s-16.5 -100.167 -16.5 -157.5
c0 -30 2.66699 -58.167 8 -84.5s15.166 -49.333 29.499 -69s33.833 -35 58.5 -46s56.334 -16.5 95.001 -16.5c8.66699 0 19.5 0.333008 32.5 1s26.833 2 41.5 4s29.667 4.5 45 7.5s30 6.5 44 10.5l11 -43c-12.667 -4.66699 -26.834 -8.66699 -42.501 -12
s-32 -6.16602 -49 -8.49902s-33.833 -4.16602 -50.5 -5.49902s-32.334 -2 -47.001 -2c-43.333 0 -80 6.16699 -110 18.5s-54.333 30 -73 53s-32.167 51 -40.5 84s-12.5 70.167 -12.5 111.5c0 24 1.66699 51.333 5 82s9.5 62.167 18.5 94.5s21.333 63.833 37 94.5
s35.5 58.167 59.5 82.5s52.833 43.833 86.5 58.5s73.167 22 118.5 22zM505.003 711.997l-128 100l-153 -101l-15 21l152 134h42l121 -133z" />
    <glyph glyph-name="ccircumflex" unicode="&#x109;" horiz-adv-x="419" 
d="M214 37c25.333 0 49.0029 2.66602 71.0029 7.99902s46.667 13.333 74 24l13 -35c-20.667 -11.333 -46 -21 -76 -29s-60 -12 -90 -12c-30.667 0 -56.667 4.33301 -78 13s-38.5 21 -51.5 37s-22.5 35 -28.5 57s-9 46.333 -9 73c0 28 3 60.5 9 97.5s17.667 72.167 35 105.5
s41.833 61.5 73.5 84.5s73.167 34.5 124.5 34.5c52 0 96 -10.333 132 -31l-18 -37c-25.333 11.333 -48 18.166 -68 20.499s-36.667 3.5 -50 3.5c-30 0 -56.333 -7.16699 -79 -21.5s-41.834 -33.833 -57.501 -58.5s-27.334 -53.667 -35.001 -87s-11.5 -68.666 -11.5 -105.999
c0 -19.333 2 -37.666 6 -54.999s10.5 -32.333 19.5 -45s21.167 -22.667 36.5 -30s34.666 -11 57.999 -11zM412.003 539.999l-128 101l-153 -101l-15 21l153 133h41l122 -132z" />
    <glyph glyph-name="Cdotaccent" unicode="&#x10a;" horiz-adv-x="553" 
d="M395 694c35.333 0 66.6689 -2.66992 94.002 -8.00293s50 -11.666 68 -18.999l-16 -44c-24.667 8.66699 -49.667 14.667 -75 18s-49 5 -71 5c-44.667 0 -83.5 -9.5 -116.5 -28.5s-60.5 -45.667 -82.5 -80s-38.5 -75.333 -49.5 -123s-16.5 -100.167 -16.5 -157.5
c0 -30 2.66699 -58.167 8 -84.5s15.166 -49.333 29.499 -69s33.833 -35 58.5 -46s56.334 -16.5 95.001 -16.5c8.66699 0 19.5 0.333008 32.5 1s26.833 2 41.5 4s29.667 4.5 45 7.5s30 6.5 44 10.5l11 -43c-12.667 -4.66699 -26.834 -8.66699 -42.501 -12
s-32 -6.16602 -49 -8.49902s-33.833 -4.16602 -50.5 -5.49902s-32.334 -2 -47.001 -2c-43.333 0 -80 6.16699 -110 18.5s-54.333 30 -73 53s-32.167 51 -40.5 84s-12.5 70.167 -12.5 111.5c0 24 1.66699 51.333 5 82s9.5 62.167 18.5 94.5s21.333 63.833 37 94.5
s35.5 58.167 59.5 82.5s52.833 43.833 86.5 58.5s73.167 22 118.5 22zM427.003 809.997c-1.33301 -12 -6.5 -22.667 -15.5 -32s-19.5 -14 -31.5 -14c-11.333 0 -20.333 3.66699 -27 11s-9.66699 16.333 -9 27c0 12 5 22.5 15 31.5s20.667 13.5 32 13.5
c10 0 18.5 -3.66699 25.5 -11s10.5 -16 10.5 -26z" />
    <glyph glyph-name="cdotaccent" unicode="&#x10b;" horiz-adv-x="419" 
d="M214 37c25.333 0 49.0029 2.66602 71.0029 7.99902s46.667 13.333 74 24l13 -35c-20.667 -11.333 -46 -21 -76 -29s-60 -12 -90 -12c-30.667 0 -56.667 4.33301 -78 13s-38.5 21 -51.5 37s-22.5 35 -28.5 57s-9 46.333 -9 73c0 28 3 60.5 9 97.5s17.667 72.167 35 105.5
s41.833 61.5 73.5 84.5s73.167 34.5 124.5 34.5c52 0 96 -10.333 132 -31l-18 -37c-25.333 11.333 -48 18.166 -68 20.499s-36.667 3.5 -50 3.5c-30 0 -56.333 -7.16699 -79 -21.5s-41.834 -33.833 -57.501 -58.5s-27.334 -53.667 -35.001 -87s-11.5 -68.666 -11.5 -105.999
c0 -19.333 2 -37.666 6 -54.999s10.5 -32.333 19.5 -45s21.167 -22.667 36.5 -30s34.666 -11 57.999 -11zM330.003 611.999c-1.33301 -11.333 -6.00098 -21.5 -14.001 -30.5s-17.333 -13.5 -28 -13.5c-10 0 -18 3.5 -24 10.5s-8.66699 15.833 -8 26.5
c0 11.333 4.33301 21.333 13 30s18.334 13 29.001 13c9.33301 0 17 -3.5 23 -10.5s9 -15.5 9 -25.5z" />
    <glyph glyph-name="Ccaron" unicode="&#x10c;" horiz-adv-x="553" 
d="M395 694c35.333 0 66.6689 -2.66992 94.002 -8.00293s50 -11.666 68 -18.999l-16 -44c-24.667 8.66699 -49.667 14.667 -75 18s-49 5 -71 5c-44.667 0 -83.5 -9.5 -116.5 -28.5s-60.5 -45.667 -82.5 -80s-38.5 -75.333 -49.5 -123s-16.5 -100.167 -16.5 -157.5
c0 -30 2.66699 -58.167 8 -84.5s15.166 -49.333 29.499 -69s33.833 -35 58.5 -46s56.334 -16.5 95.001 -16.5c8.66699 0 19.5 0.333008 32.5 1s26.833 2 41.5 4s29.667 4.5 45 7.5s30 6.5 44 10.5l11 -43c-12.667 -4.66699 -26.834 -8.66699 -42.501 -12
s-32 -6.16602 -49 -8.49902s-33.833 -4.16602 -50.5 -5.49902s-32.334 -2 -47.001 -2c-43.333 0 -80 6.16699 -110 18.5s-54.333 30 -73 53s-32.167 51 -40.5 84s-12.5 70.167 -12.5 111.5c0 24 1.66699 51.333 5 82s9.5 62.167 18.5 94.5s21.333 63.833 37 94.5
s35.5 58.167 59.5 82.5s52.833 43.833 86.5 58.5s73.167 22 118.5 22zM559.003 850.997l-153 -127h-42l-120 129l19 20l129 -96l152 96z" />
    <glyph glyph-name="ccaron" unicode="&#x10d;" horiz-adv-x="419" 
d="M214 37c25.333 0 49.0029 2.66602 71.0029 7.99902s46.667 13.333 74 24l13 -35c-20.667 -11.333 -46 -21 -76 -29s-60 -12 -90 -12c-30.667 0 -56.667 4.33301 -78 13s-38.5 21 -51.5 37s-22.5 35 -28.5 57s-9 46.333 -9 73c0 28 3 60.5 9 97.5s17.667 72.167 35 105.5
s41.833 61.5 73.5 84.5s73.167 34.5 124.5 34.5c52 0 96 -10.333 132 -31l-18 -37c-25.333 11.333 -48 18.166 -68 20.499s-36.667 3.5 -50 3.5c-30 0 -56.333 -7.16699 -79 -21.5s-41.834 -33.833 -57.501 -58.5s-27.334 -53.667 -35.001 -87s-11.5 -68.666 -11.5 -105.999
c0 -19.333 2 -37.666 6 -54.999s10.5 -32.333 19.5 -45s21.167 -22.667 36.5 -30s34.666 -11 57.999 -11zM456.003 684.999l-153 -132h-42l-120 133l19 22l128 -102l153 101z" />
    <glyph glyph-name="Dcaron" unicode="&#x10e;" horiz-adv-x="604" 
d="M52 0l82.999 684.002h201c44.667 0 81.834 -6.83301 111.501 -20.5s53 -32.334 70 -56.001s29 -51.667 36 -84s10.5 -67.166 10.5 -104.499c0 -55.333 -5.5 -108.333 -16.5 -159s-29 -95.334 -54 -134.001s-57.833 -69.334 -98.5 -92.001s-91 -34 -151 -34h-192z
M186.999 637.002l-72.0029 -589.002h127c10 0 23.5 0.833008 40.5 2.5s35.333 6.16699 55 13.5s39.334 18.5 59.001 33.5s37.667 36 54 63s29.5 60.667 39.5 101s15 89.833 15 148.5c0 54.667 -6.66699 97.334 -20 128.001s-29.666 53.334 -48.999 68.001
s-39.666 23.5 -60.999 26.5s-40 4.5 -56 4.5h-132zM495.996 851l-153 -127h-42l-120 129l19 20l129 -96l152 96z" />
    <glyph glyph-name="dcaron" unicode="&#x10f;" horiz-adv-x="562" 
d="M584 723c11.333 0 20.501 -3.66992 27.501 -11.0029s10.5 -17.666 10.5 -30.999c0 -22 -8.33301 -43.5 -25 -64.5s-37 -38.5 -61 -52.5l-12 17c12 10.667 21.167 20.334 27.5 29.001s11.166 20.334 14.499 35.001c-9.33301 1.33301 -16.166 4.83301 -20.499 10.5
s-6.5 12.5 -6.5 20.5c0 12.667 4.16699 23.667 12.5 33s19.166 14 32.499 14zM340.001 -0.00292969l7.99805 66.998l-2 2c-29.333 -24 -58.666 -42.5 -87.999 -55.5s-57.333 -19.5 -84 -19.5c-40 0 -72.5 14.333 -97.5 43s-37.5 71.334 -37.5 128.001
c0 38 4.5 76.5 13.5 115.5s23.333 74.333 43 106s44.834 57.334 75.501 77.001s67.334 29.5 110.001 29.5c20 0 39.667 -1.83301 59 -5.5s38.666 -9.16699 57.999 -16.5l30 239h53l-89 -710h-52zM277.999 447.995c-24 0 -47.167 -6.16602 -69.5 -18.499
s-41.833 -30.333 -58.5 -54s-30 -52.5 -40 -86.5s-15 -72.333 -15 -115c0 -48.667 9.16699 -83.334 27.5 -104.001s40.5 -31 66.5 -31c27.333 0 55.166 7.66699 83.499 23s54.833 33.333 79.5 54l40 307c-21.333 9.33301 -41.166 15.833 -59.499 19.5s-36.5 5.5 -54.5 5.5z
" />
    <glyph glyph-name="Dcroat" unicode="&#x110;" horiz-adv-x="604" 
d="M52 0l39.999 334.002h-61l5 36h60l39 314h201c44.667 0 81.834 -6.83301 111.501 -20.5s53 -32.334 70 -56.001s29 -51.667 36 -84s10.5 -67.166 10.5 -104.499c0 -55.333 -5.5 -108.333 -16.5 -159s-29 -95.334 -54 -134.001s-57.833 -69.334 -98.5 -92.001
s-91 -34 -151 -34h-192zM186.999 637.002l-32.0029 -267.002h171l-5 -36h-171l-35 -286h127c10 0 23.5 0.833008 40.5 2.5s35.333 6.16699 55 13.5s39.334 18.5 59.001 33.5s37.667 36 54 63s29.5 60.667 39.5 101s15 89.833 15 148.5c0 54.667 -6.66699 97.334 -20 128.001
s-29.666 53.334 -48.999 68.001s-39.666 23.5 -60.999 26.5s-40 4.5 -56 4.5h-132z" />
    <glyph glyph-name="dcroat" unicode="&#x111;" horiz-adv-x="477" 
d="M341 0l7.99902 66.998l-3 2c-29.333 -24 -58.666 -42.5 -87.999 -55.5s-57.333 -19.5 -84 -19.5c-40 0 -72.5 14.333 -97.5 43s-37.5 71.334 -37.5 128.001c0 38 4.5 76.5 13.5 115.5s23.333 74.333 43 106s44.834 57.334 75.501 77.001s67.334 29.5 110.001 29.5
c20 0 39.667 -1.83301 59 -5.5s38.666 -9.16699 57.999 -16.5l12 94h-155l5 34h155l14 111h52l-13 -111h65c-1.33301 -3.33301 -2.33301 -8.83301 -3 -16.5s-1.33398 -13.5 -2.00098 -17.5h-65l-71 -565h-51zM277.999 447.998c-24 0 -47.167 -6.16602 -69.5 -18.499
s-41.833 -30.333 -58.5 -54s-30 -52.5 -40 -86.5s-15 -72.333 -15 -115c0 -48.667 9.16699 -83.334 27.5 -104.001s40.5 -31 66.5 -31c27.333 0 55.166 7.66699 83.499 23s54.833 33.333 79.5 54l40 307c-21.333 9.33301 -41.166 15.833 -59.499 19.5s-36.5 5.5 -54.5 5.5z
" />
    <glyph glyph-name="Emacron" unicode="&#x112;" horiz-adv-x="506" 
d="M52 0l83 683h375l-5 -46h-319l-31 -252h279l-6 -46h-279l-35 -292h343l-4 -47h-401zM198 795h304l-6 -47h-304z" />
    <glyph glyph-name="emacron" unicode="&#x113;" horiz-adv-x="436" 
d="M284 496c22.667 0 41.999 -3.16602 57.999 -9.49902s29.333 -14.833 40 -25.5s18.5 -23 23.5 -37s7.5 -28.333 7.5 -43c0 -32 -8.33301 -58.833 -25 -80.5s-39.5 -39.5 -68.5 -53.5s-62.833 -24.5 -101.5 -31.5s-80 -11.833 -124 -14.5c-0.666992 -6 -1 -11.5 -1 -16.5
v-13.5c0 -15.333 1.66699 -31 5 -47s9.33301 -30.5 18 -43.5s20.667 -23.667 36 -32s35.333 -12.5 60 -12.5s49 2.83301 73 8.5s48.333 14.167 73 25.5l13 -35c-21.333 -12.667 -46.833 -22.667 -76.5 -30s-60.834 -11 -93.501 -11s-59.5 5 -80.5 15s-37.667 23.5 -50 40.5
s-20.833 36.667 -25.5 59s-7 46.166 -7 71.499c0 31.333 3.83301 65.5 11.5 102.5s20.834 71.333 39.501 103s43.834 58 75.501 79s71.5 31.5 119.5 31.5zM275.999 451.001c-26 0 -49.334 -5.49902 -70.001 -16.499s-38.5 -26 -53.5 -45s-27.167 -41.333 -36.5 -67
s-15.666 -53.5 -18.999 -83.5c84 4 148.667 16.667 194 38s68 53.666 68 96.999c0 23.333 -6.5 42 -19.5 56s-34.167 21 -63.5 21zM145.998 641.002h299l-5 -47h-300z" />
    <glyph glyph-name="Ebreve" unicode="&#x114;" horiz-adv-x="506" 
d="M52 0l83 683h375l-5 -46h-319l-31 -252h279l-6 -46h-279l-35 -292h343l-4 -47h-401zM334 724c-16 0 -30.667 2.83398 -44 8.50098s-25.666 13.167 -36.999 22.5s-21.5 20.166 -30.5 32.499s-17.167 25.166 -24.5 38.499l39 25c13.333 -24 29.166 -43.5 47.499 -58.5
s37.5 -22.5 57.5 -22.5c7.33301 0 15.5 0.833008 24.5 2.5s19.333 5.33398 31 11.001s24.667 13.5 39 23.5s30.5 23 48.5 39l18 -18c-32 -39.333 -62.333 -66.5 -91 -81.5s-54.667 -22.5 -78 -22.5z" />
    <glyph glyph-name="ebreve" unicode="&#x115;" horiz-adv-x="436" 
d="M284 496c22.667 0 41.999 -3.16602 57.999 -9.49902s29.333 -14.833 40 -25.5s18.5 -23 23.5 -37s7.5 -28.333 7.5 -43c0 -32 -8.33301 -58.833 -25 -80.5s-39.5 -39.5 -68.5 -53.5s-62.833 -24.5 -101.5 -31.5s-80 -11.833 -124 -14.5c-0.666992 -6 -1 -11.5 -1 -16.5
v-13.5c0 -15.333 1.66699 -31 5 -47s9.33301 -30.5 18 -43.5s20.667 -23.667 36 -32s35.333 -12.5 60 -12.5s49 2.83301 73 8.5s48.333 14.167 73 25.5l13 -35c-21.333 -12.667 -46.833 -22.667 -76.5 -30s-60.834 -11 -93.501 -11s-59.5 5 -80.5 15s-37.667 23.5 -50 40.5
s-20.833 36.667 -25.5 59s-7 46.166 -7 71.499c0 31.333 3.83301 65.5 11.5 102.5s20.834 71.333 39.501 103s43.834 58 75.501 79s71.5 31.5 119.5 31.5zM275.999 451.001c-26 0 -49.334 -5.49902 -70.001 -16.499s-38.5 -26 -53.5 -45s-27.167 -41.333 -36.5 -67
s-15.666 -53.5 -18.999 -83.5c84 4 148.667 16.667 194 38s68 53.666 68 96.999c0 23.333 -6.5 42 -19.5 56s-34.167 21 -63.5 21zM277.998 557.002c-16 0 -30.667 3.00195 -44 9.00195s-25.666 13.667 -36.999 23s-21.5 20.166 -30.5 32.499s-16.833 25.166 -23.5 38.499
l39 25c13.333 -24 29 -43.333 47 -58s37.333 -22 58 -22c6.66699 0 14.667 0.833008 24 2.5s19.833 5 31.5 10s24.667 12.5 39 22.5s30.166 23 47.499 39l18 -18c-31.333 -38.667 -61.333 -65.667 -90 -81s-55 -23 -79 -23z" />
    <glyph glyph-name="Edotaccent" unicode="&#x116;" horiz-adv-x="506" 
d="M52 0l83 683h375l-5 -46h-319l-31 -252h279l-6 -46h-279l-35 -292h343l-4 -47h-401zM389 803c-1.33301 -12 -6.5 -22.667 -15.5 -32s-19.5 -14 -31.5 -14c-11.333 0 -20.333 3.66699 -27 11s-9.66699 16.333 -9 27c0 12 5 22.5 15 31.5s20.667 13.5 32 13.5
c10 0 18.5 -3.66699 25.5 -11s10.5 -16 10.5 -26z" />
    <glyph glyph-name="edotaccent" unicode="&#x117;" horiz-adv-x="436" 
d="M284 496c22.667 0 41.999 -3.16602 57.999 -9.49902s29.333 -14.833 40 -25.5s18.5 -23 23.5 -37s7.5 -28.333 7.5 -43c0 -32 -8.33301 -58.833 -25 -80.5s-39.5 -39.5 -68.5 -53.5s-62.833 -24.5 -101.5 -31.5s-80 -11.833 -124 -14.5c-0.666992 -6 -1 -11.5 -1 -16.5
v-13.5c0 -15.333 1.66699 -31 5 -47s9.33301 -30.5 18 -43.5s20.667 -23.667 36 -32s35.333 -12.5 60 -12.5s49 2.83301 73 8.5s48.333 14.167 73 25.5l13 -35c-21.333 -12.667 -46.833 -22.667 -76.5 -30s-60.834 -11 -93.501 -11s-59.5 5 -80.5 15s-37.667 23.5 -50 40.5
s-20.833 36.667 -25.5 59s-7 46.166 -7 71.499c0 31.333 3.83301 65.5 11.5 102.5s20.834 71.333 39.501 103s43.834 58 75.501 79s71.5 31.5 119.5 31.5zM275.999 451.001c-26 0 -49.334 -5.49902 -70.001 -16.499s-38.5 -26 -53.5 -45s-27.167 -41.333 -36.5 -67
s-15.666 -53.5 -18.999 -83.5c84 4 148.667 16.667 194 38s68 53.666 68 96.999c0 23.333 -6.5 42 -19.5 56s-34.167 21 -63.5 21zM334.998 610.002c-1.33301 -12 -6.5 -22.667 -15.5 -32s-19.5 -14 -31.5 -14c-11.333 0 -20.333 3.66699 -27 11s-9.66699 16.333 -9 27
c0 12 5 22.5 15 31.5s20.667 13.5 32 13.5c10 0 18.5 -3.66699 25.5 -11s10.5 -16 10.5 -26z" />
    <glyph glyph-name="Eogonek" unicode="&#x118;" horiz-adv-x="506" 
d="M426 0c-22.667 -21.333 -39.668 -43.6699 -51.001 -67.0029s-17.666 -42.333 -18.999 -57c0 -16.667 4.66699 -28 14 -34s22.333 -9 39 -9c12.667 0 25.334 1.16699 38.001 3.5s23.667 4.83301 33 7.5c1.33301 -9.33301 2.66602 -17.666 3.99902 -24.999
c-16 -7.33301 -32.667 -13 -50 -17s-34 -6 -50 -6c-26.667 0 -46.167 5.5 -58.5 16.5s-18.5 25.167 -18.5 42.5c0 16.667 5.83301 37.834 17.5 63.501s35.167 52.834 70.5 81.501h-343l83 683h375l-5 -46h-319l-31 -252h279l-6 -46h-279l-35 -292h343l-4 -47h-27z" />
    <glyph glyph-name="eogonek" unicode="&#x119;" horiz-adv-x="436" 
d="M284 496c22.667 0 41.9971 -3.16797 57.9971 -9.50098s29.333 -14.833 40 -25.5s18.5 -23 23.5 -37s7.5 -28.333 7.5 -43c0 -32 -8.33301 -58.833 -25 -80.5s-39.5 -39.5 -68.5 -53.5s-62.833 -24.5 -101.5 -31.5s-80 -11.833 -124 -14.5c-0.666992 -6 -1 -11.5 -1 -16.5
v-13.5c0 -15.333 1.66699 -31 5 -47s9.33301 -30.5 18 -43.5s20.667 -23.667 36 -32s35.333 -12.5 60 -12.5s49 2.83301 73 8.5s48.333 14.167 73 25.5l13 -35c-4 -2.66699 -8.16699 -5 -12.5 -7l-13.5 -6c-22 -21.333 -38.667 -43.666 -50 -66.999s-17.666 -42 -18.999 -56
c0 -16.667 4.66699 -28 14 -34s22.333 -9 39 -9c12.667 0 25.334 1.16699 38.001 3.5s23.667 4.83301 33 7.5c1.33301 -9.33301 2.66602 -17.666 3.99902 -24.999c-16 -7.33301 -32.667 -13 -50 -17s-34 -6 -50 -6c-26.667 0 -46.167 5.5 -58.5 16.5
s-18.5 25.167 -18.5 42.5c0 15.333 4.5 34 13.5 56s26.833 45.667 53.5 71c-30.667 -7.33301 -61.667 -11 -93 -11c-32.667 0 -59.5 5 -80.5 15s-37.667 23.5 -50 40.5s-20.833 36.667 -25.5 59s-7 46.166 -7 71.499c0 31.333 3.83301 65.5 11.5 102.5
s20.834 71.333 39.501 103s43.834 58 75.501 79s71.5 31.5 119.5 31.5zM275.997 450.999c-26 0 -49.334 -5.49902 -70.001 -16.499s-38.5 -26 -53.5 -45s-27.167 -41.333 -36.5 -67s-15.666 -53.5 -18.999 -83.5c84 4 148.667 16.667 194 38s68 53.666 68 96.999
c0 23.333 -6.5 42 -19.5 56s-34.167 21 -63.5 21z" />
    <glyph glyph-name="Ecaron" unicode="&#x11a;" horiz-adv-x="506" 
d="M52 0l83 683h375l-5 -46h-319l-31 -252h279l-6 -46h-279l-35 -292h343l-4 -47h-401zM511 851l-153 -127h-42l-120 129l19 20l129 -96l152 96z" />
    <glyph glyph-name="ecaron" unicode="&#x11b;" horiz-adv-x="436" 
d="M284 496c22.667 0 41.999 -3.16602 57.999 -9.49902s29.333 -14.833 40 -25.5s18.5 -23 23.5 -37s7.5 -28.333 7.5 -43c0 -32 -8.33301 -58.833 -25 -80.5s-39.5 -39.5 -68.5 -53.5s-62.833 -24.5 -101.5 -31.5s-80 -11.833 -124 -14.5c-0.666992 -6 -1 -11.5 -1 -16.5
v-13.5c0 -15.333 1.66699 -31 5 -47s9.33301 -30.5 18 -43.5s20.667 -23.667 36 -32s35.333 -12.5 60 -12.5s49 2.83301 73 8.5s48.333 14.167 73 25.5l13 -35c-21.333 -12.667 -46.833 -22.667 -76.5 -30s-60.834 -11 -93.501 -11s-59.5 5 -80.5 15s-37.667 23.5 -50 40.5
s-20.833 36.667 -25.5 59s-7 46.166 -7 71.499c0 31.333 3.83301 65.5 11.5 102.5s20.834 71.333 39.501 103s43.834 58 75.501 79s71.5 31.5 119.5 31.5zM275.999 451.001c-26 0 -49.334 -5.49902 -70.001 -16.499s-38.5 -26 -53.5 -45s-27.167 -41.333 -36.5 -67
s-15.666 -53.5 -18.999 -83.5c84 4 148.667 16.667 194 38s68 53.666 68 96.999c0 23.333 -6.5 42 -19.5 56s-34.167 21 -63.5 21zM456.998 680.002l-153 -132h-42l-120 133l19 22l128 -102l153 101z" />
    <glyph glyph-name="Gcircumflex" unicode="&#x11c;" horiz-adv-x="592" 
d="M409 694c35.333 0 66.501 -2.5 93.501 -7.5s50.5 -10.833 70.5 -17.5l-16 -46c-26 8 -51.833 13.833 -77.5 17.5s-49.167 5.5 -70.5 5.5c-46 0 -86.5 -9.33301 -121.5 -28s-64.167 -45 -87.5 -79s-40.833 -75 -52.5 -123s-17.5 -101 -17.5 -159
c0 -30 2.66699 -58.167 8 -84.5s15 -49.166 29 -68.499s33.167 -34.5 57.5 -45.5s55.5 -16.5 93.5 -16.5c9.33301 0 19.833 0.5 31.5 1.5s23.667 2.16699 36 3.5s24.333 3.16602 36 5.49902s21.834 5.16602 30.501 8.49902l35 285h54l-41 -324
c-32 -10.667 -64.5 -18.167 -97.5 -22.5s-65.5 -6.5 -97.5 -6.5c-43.333 0 -79.833 6.16699 -109.5 18.5s-53.834 30 -72.501 53s-32.167 50.833 -40.5 83.5s-12.5 69.334 -12.5 110.001c0 24 1.66699 51.5 5 82.5s9.66602 62.667 18.999 95s22 64 38 95
s36.667 58.667 62 83s55.5 43.833 90.5 58.5s76.5 22 124.5 22zM530.001 712l-128 100l-153 -101l-15 21l152 134h42l121 -133z" />
    <glyph glyph-name="gcircumflex" unicode="&#x11d;" horiz-adv-x="490" 
d="M392 0c-3.33301 -24 -8.33398 -48.833 -15.001 -74.5s-18.167 -49.167 -34.5 -70.5s-38.666 -38.833 -66.999 -52.5s-65.833 -20.5 -112.5 -20.5c-26 0 -51 3.5 -75 10.5s-43.333 13.833 -58 20.5l18 43c17.333 -8.66699 37 -15.334 59 -20.001s43 -7 63 -7
c34.667 0 62.667 5.33301 84 16s38.166 25.334 50.499 44.001s21.333 40.5 27 65.5s10.5 51.833 14.5 80.5c0.666992 6 1.33398 11.333 2.00098 16s1.66699 9.66699 3 15l-3 3c-30 -24 -59.333 -42.5 -88 -55.5s-56.667 -19.5 -84 -19.5c-38.667 0 -71 14 -97 42
s-39 70.667 -39 128v1c0 39.333 4.83301 78.5 14.5 117.5s24.667 74.167 45 105.5s46 56.666 77 75.999s67.833 29 110.5 29c28 0 55.333 -3 82 -9s52 -15.333 76 -28c1.33301 -1.33301 2.33301 -2.66602 3 -3.99902l2 -4zM284.999 448
c-24.667 0 -48.332 -6.16797 -70.999 -18.501s-42.834 -30.166 -60.501 -53.499s-31.667 -52.166 -42 -86.499s-15.5 -73.833 -15.5 -118.5c0 -48.667 9.33301 -83.167 28 -103.5s41 -30.5 67 -30.5c27.333 0 55.333 8 84 24s55.334 34.667 80.001 56l19.5 153
c6.33301 50.667 13.166 102 20.499 154c-20.667 9.33301 -40.167 15.666 -58.5 18.999s-35.5 5 -51.5 5zM437.001 540.999l-128 101l-153 -101l-15 21l153 133h41l122 -132z" />
    <glyph glyph-name="Gbreve" unicode="&#x11e;" horiz-adv-x="592" 
d="M409 694c35.333 0 66.501 -2.5 93.501 -7.5s50.5 -10.833 70.5 -17.5l-16 -46c-26 8 -51.833 13.833 -77.5 17.5s-49.167 5.5 -70.5 5.5c-46 0 -86.5 -9.33301 -121.5 -28s-64.167 -45 -87.5 -79s-40.833 -75 -52.5 -123s-17.5 -101 -17.5 -159
c0 -30 2.66699 -58.167 8 -84.5s15 -49.166 29 -68.499s33.167 -34.5 57.5 -45.5s55.5 -16.5 93.5 -16.5c9.33301 0 19.833 0.5 31.5 1.5s23.667 2.16699 36 3.5s24.333 3.16602 36 5.49902s21.834 5.16602 30.501 8.49902l35 285h54l-41 -324
c-32 -10.667 -64.5 -18.167 -97.5 -22.5s-65.5 -6.5 -97.5 -6.5c-43.333 0 -79.833 6.16699 -109.5 18.5s-53.834 30 -72.501 53s-32.167 50.833 -40.5 83.5s-12.5 69.334 -12.5 110.001c0 24 1.66699 51.5 5 82.5s9.66602 62.667 18.999 95s22 64 38 95
s36.667 58.667 62 83s55.5 43.833 90.5 58.5s76.5 22 124.5 22zM391.001 732c-16 0 -30.667 2.83398 -44 8.50098s-25.666 13.167 -36.999 22.5s-21.5 20.166 -30.5 32.499s-17.167 25.166 -24.5 38.499l39 25c13.333 -24 29.166 -43.5 47.499 -58.5s37.5 -22.5 57.5 -22.5
c7.33301 0 15.5 0.833008 24.5 2.5s19.333 5.33398 31 11.001s24.667 13.5 39 23.5s30.5 23 48.5 39l18 -18c-32 -39.333 -62.333 -66.5 -91 -81.5s-54.667 -22.5 -78 -22.5z" />
    <glyph glyph-name="gbreve" unicode="&#x11f;" horiz-adv-x="490" 
d="M392 0c-3.33301 -24 -8.33398 -48.833 -15.001 -74.5s-18.167 -49.167 -34.5 -70.5s-38.666 -38.833 -66.999 -52.5s-65.833 -20.5 -112.5 -20.5c-26 0 -51 3.5 -75 10.5s-43.333 13.833 -58 20.5l18 43c17.333 -8.66699 37 -15.334 59 -20.001s43 -7 63 -7
c34.667 0 62.667 5.33301 84 16s38.166 25.334 50.499 44.001s21.333 40.5 27 65.5s10.5 51.833 14.5 80.5c0.666992 6 1.33398 11.333 2.00098 16s1.66699 9.66699 3 15l-3 3c-30 -24 -59.333 -42.5 -88 -55.5s-56.667 -19.5 -84 -19.5c-38.667 0 -71 14 -97 42
s-39 70.667 -39 128v1c0 39.333 4.83301 78.5 14.5 117.5s24.667 74.167 45 105.5s46 56.666 77 75.999s67.833 29 110.5 29c28 0 55.333 -3 82 -9s52 -15.333 76 -28c1.33301 -1.33301 2.33301 -2.66602 3 -3.99902l2 -4zM284.999 448
c-24.667 0 -48.332 -6.16797 -70.999 -18.501s-42.834 -30.166 -60.501 -53.499s-31.667 -52.166 -42 -86.499s-15.5 -73.833 -15.5 -118.5c0 -48.667 9.33301 -83.167 28 -103.5s41 -30.5 67 -30.5c27.333 0 55.333 8 84 24s55.334 34.667 80.001 56l19.5 153
c6.33301 50.667 13.166 102 20.499 154c-20.667 9.33301 -40.167 15.666 -58.5 18.999s-35.5 5 -51.5 5zM283.001 556.999c-16 0 -30.667 3.00195 -44 9.00195s-25.666 13.667 -36.999 23s-21.5 20.166 -30.5 32.499s-16.833 25.166 -23.5 38.499l39 25
c13.333 -24 29 -43.333 47 -58s37.333 -22 58 -22c6.66699 0 14.667 0.833008 24 2.5s19.833 5 31.5 10s24.667 12.5 39 22.5s30.166 23 47.499 39l18 -18c-31.333 -38.667 -61.333 -65.667 -90 -81s-55 -23 -79 -23z" />
    <glyph glyph-name="Gdotaccent" unicode="&#x120;" horiz-adv-x="592" 
d="M409 694c35.333 0 66.501 -2.5 93.501 -7.5s50.5 -10.833 70.5 -17.5l-16 -46c-26 8 -51.833 13.833 -77.5 17.5s-49.167 5.5 -70.5 5.5c-46 0 -86.5 -9.33301 -121.5 -28s-64.167 -45 -87.5 -79s-40.833 -75 -52.5 -123s-17.5 -101 -17.5 -159
c0 -30 2.66699 -58.167 8 -84.5s15 -49.166 29 -68.499s33.167 -34.5 57.5 -45.5s55.5 -16.5 93.5 -16.5c9.33301 0 19.833 0.5 31.5 1.5s23.667 2.16699 36 3.5s24.333 3.16602 36 5.49902s21.834 5.16602 30.501 8.49902l35 285h54l-41 -324
c-32 -10.667 -64.5 -18.167 -97.5 -22.5s-65.5 -6.5 -97.5 -6.5c-43.333 0 -79.833 6.16699 -109.5 18.5s-53.834 30 -72.501 53s-32.167 50.833 -40.5 83.5s-12.5 69.334 -12.5 110.001c0 24 1.66699 51.5 5 82.5s9.66602 62.667 18.999 95s22 64 38 95
s36.667 58.667 62 83s55.5 43.833 90.5 58.5s76.5 22 124.5 22zM448.001 804c-1.33301 -12 -6.5 -22.667 -15.5 -32s-19.5 -14 -31.5 -14c-11.333 0 -20.333 3.66699 -27 11s-9.66699 16.333 -9 27c0 12 5 22.5 15 31.5s20.667 13.5 32 13.5c10 0 18.5 -3.66699 25.5 -11
s10.5 -16 10.5 -26z" />
    <glyph glyph-name="gdotaccent" unicode="&#x121;" horiz-adv-x="490" 
d="M392 0c-3.33301 -24 -8.33398 -48.833 -15.001 -74.5s-18.167 -49.167 -34.5 -70.5s-38.666 -38.833 -66.999 -52.5s-65.833 -20.5 -112.5 -20.5c-26 0 -51 3.5 -75 10.5s-43.333 13.833 -58 20.5l18 43c17.333 -8.66699 37 -15.334 59 -20.001s43 -7 63 -7
c34.667 0 62.667 5.33301 84 16s38.166 25.334 50.499 44.001s21.333 40.5 27 65.5s10.5 51.833 14.5 80.5c0.666992 6 1.33398 11.333 2.00098 16s1.66699 9.66699 3 15l-3 3c-30 -24 -59.333 -42.5 -88 -55.5s-56.667 -19.5 -84 -19.5c-38.667 0 -71 14 -97 42
s-39 70.667 -39 128v1c0 39.333 4.83301 78.5 14.5 117.5s24.667 74.167 45 105.5s46 56.666 77 75.999s67.833 29 110.5 29c28 0 55.333 -3 82 -9s52 -15.333 76 -28c1.33301 -1.33301 2.33301 -2.66602 3 -3.99902l2 -4zM284.999 448
c-24.667 0 -48.332 -6.16797 -70.999 -18.501s-42.834 -30.166 -60.501 -53.499s-31.667 -52.166 -42 -86.499s-15.5 -73.833 -15.5 -118.5c0 -48.667 9.33301 -83.167 28 -103.5s41 -30.5 67 -30.5c27.333 0 55.333 8 84 24s55.334 34.667 80.001 56l19.5 153
c6.33301 50.667 13.166 102 20.499 154c-20.667 9.33301 -40.167 15.666 -58.5 18.999s-35.5 5 -51.5 5zM346.001 616.999c-1.33301 -12 -6.5 -22.667 -15.5 -32s-19.5 -14 -31.5 -14c-11.333 0 -20.333 3.66699 -27 11s-9.66699 16.333 -9 27c0 12 5 22.5 15 31.5
s20.667 13.5 32 13.5c10 0 18.5 -3.66699 25.5 -11s10.5 -16 10.5 -26z" />
    <glyph glyph-name="Gcommaaccent" unicode="&#x122;" horiz-adv-x="592" 
d="M409 694c35.333 0 66.501 -2.5 93.501 -7.5s50.5 -10.833 70.5 -17.5l-16 -46c-26 8 -51.833 13.833 -77.5 17.5s-49.167 5.5 -70.5 5.5c-46 0 -86.5 -9.33301 -121.5 -28s-64.167 -45 -87.5 -79s-40.833 -75 -52.5 -123s-17.5 -101 -17.5 -159
c0 -30 2.66699 -58.167 8 -84.5s15 -49.166 29 -68.499s33.167 -34.5 57.5 -45.5s55.5 -16.5 93.5 -16.5c9.33301 0 19.833 0.5 31.5 1.5s23.667 2.16699 36 3.5s24.333 3.16602 36 5.49902s21.834 5.16602 30.501 8.49902l35 285h54l-41 -324
c-32 -10.667 -64.5 -18.167 -97.5 -22.5s-65.5 -6.5 -97.5 -6.5c-43.333 0 -79.833 6.16699 -109.5 18.5s-53.834 30 -72.501 53s-32.167 50.833 -40.5 83.5s-12.5 69.334 -12.5 110.001c0 24 1.66699 51.5 5 82.5s9.66602 62.667 18.999 95s22 64 38 95
s36.667 58.667 62 83s55.5 43.833 90.5 58.5s76.5 22 124.5 22zM305.001 -57c11.333 0 20.501 -3.66992 27.501 -11.0029s10.5 -17.666 10.5 -30.999c0 -22 -8.33301 -43.5 -25 -64.5s-37 -38.5 -61 -52.5l-12 17c12 10.667 21.167 20.334 27.5 29.001
s11.166 20.334 14.499 35.001c-9.33301 1.33301 -16.166 4.83301 -20.499 10.5s-6.5 12.5 -6.5 20.5c0 12.667 4.16699 23.667 12.5 33s19.166 14 32.499 14z" />
    <glyph glyph-name="gcommaaccent" unicode="&#x123;" horiz-adv-x="490" 
d="M392 0c-3.33301 -24 -8.33398 -48.833 -15.001 -74.5s-18.167 -49.167 -34.5 -70.5s-38.666 -38.833 -66.999 -52.5s-65.833 -20.5 -112.5 -20.5c-26 0 -51 3.5 -75 10.5s-43.333 13.833 -58 20.5l18 43c17.333 -8.66699 37 -15.334 59 -20.001s43 -7 63 -7
c34.667 0 62.667 5.33301 84 16s38.166 25.334 50.499 44.001s21.333 40.5 27 65.5s10.5 51.833 14.5 80.5c0.666992 6 1.33398 11.333 2.00098 16s1.66699 9.66699 3 15l-3 3c-30 -24 -59.333 -42.5 -88 -55.5s-56.667 -19.5 -84 -19.5c-38.667 0 -71 14 -97 42
s-39 70.667 -39 128v1c0 39.333 4.83301 78.5 14.5 117.5s24.667 74.167 45 105.5s46 56.666 77 75.999s67.833 29 110.5 29c28 0 55.333 -3 82 -9s52 -15.333 76 -28c1.33301 -1.33301 2.33301 -2.66602 3 -3.99902l2 -4zM284.999 448
c-24.667 0 -48.332 -6.16797 -70.999 -18.501s-42.834 -30.166 -60.501 -53.499s-31.667 -52.166 -42 -86.499s-15.5 -73.833 -15.5 -118.5c0 -48.667 9.33301 -83.167 28 -103.5s41 -30.5 67 -30.5c27.333 0 55.333 8 84 24s55.334 34.667 80.001 56l19.5 153
c6.33301 50.667 13.166 102 20.499 154c-20.667 9.33301 -40.167 15.666 -58.5 18.999s-35.5 5 -51.5 5zM335.001 636.999c17.333 -3.33301 25.998 -13.666 25.998 -30.999c0 -12.667 -4.16699 -23.834 -12.5 -33.501s-19.166 -14.5 -32.499 -14.5
s-22.833 4.16699 -28.5 12.5s-8.5 20.166 -8.5 35.499c1.33301 22 10 42.833 26 62.5s36.333 36.5 61 50.5c1.33301 -3.33301 3 -6.33301 5 -9s4 -5.66699 6 -9c-12 -10.667 -21.167 -20.167 -27.5 -28.5s-11.166 -20.166 -14.499 -35.499z" />
    <glyph glyph-name="Hcircumflex" unicode="&#x124;" horiz-adv-x="606" 
d="M444 0l40.998 336h-335l-5.5 -41.5c-2.33301 -17.667 -4.66602 -37.167 -6.99902 -58.5s-5 -43.833 -8 -67.5s-5.66699 -46.167 -8 -67.5l-6.5 -59c-2 -18 -3.66699 -32 -5 -42h-58l83 683h58c-1.33301 -13.333 -3.66602 -33.833 -6.99902 -61.5l-11 -87l-11 -87
c-3.33301 -27.667 -6 -48.167 -8 -61.5h335l36 297h59l-83 -683h-59zM504.998 712l-128 100l-153 -101l-15 21l152 134h42l121 -133z" />
    <glyph glyph-name="hcircumflex" unicode="&#x125;" horiz-adv-x="479" 
d="M342 0l38 340.001c2 12 3 23.667 3 35c0 23.333 -5.16699 41.666 -15.5 54.999s-28.5 20 -54.5 20c-26.667 0 -55.334 -7.83301 -86.001 -23.5s-62 -37.5 -94 -65.5c-2 -19.333 -5 -45.333 -9 -78l-12 -102.5l-12 -102.5c-4 -32.667 -7.33301 -58.667 -10 -78h-55
c3.33301 24.667 7.33301 56.167 12 94.5l15 125.5l16.5 140l16.5 140l15 125l12 95h54l-9.5 -76.5l-11 -91l-10.5 -84.5c-3.33301 -26 -6.33301 -44.667 -9 -56l3 -2c34.667 28.667 68.834 50.167 102.501 64.5s63.5 21.5 89.5 21.5c20.667 0 37.834 -2.66699 51.501 -8
s24.667 -12.5 33 -21.5s14.166 -19.5 17.499 -31.5s5 -25 5 -39v-16.5c0 -5.66699 -0.666992 -11.167 -2 -16.5l-40 -363h-54zM295 734.001l-128 101l-153 -101l-15 21l153 133h41l122 -132z" />
    <glyph glyph-name="Hbar" unicode="&#x126;" horiz-adv-x="607" 
d="M445 0l42.0039 336.002h-335c-2 -15.333 -4.83301 -38.5 -8.5 -69.5l-12 -98.5l-12 -98.5c-3.66699 -31 -6.5 -54.167 -8.5 -69.5h-58l62 510h-56l5 34h55l17 139h58c-0.666992 -6.66699 -1.83398 -16.334 -3.50098 -29.001s-3.33398 -26.167 -5.00098 -40.5
s-3.33398 -27.833 -5.00098 -40.5s-2.83398 -22.334 -3.50098 -29.001h334l17 139h60l-17 -139h52l-4 -34h-53l-61 -510h-60zM492.004 386.002l15 124.001h-334c-0.666992 -5.33301 -1.83398 -13.833 -3.50098 -25.5s-3.16699 -24 -4.5 -37s-2.66602 -25.333 -3.99902 -37
s-2.33301 -19.834 -3 -24.501h334z" />
    <glyph glyph-name="hbar" unicode="&#x127;" horiz-adv-x="479" 
d="M342 0l38.001 340.001c2 12 3 23.667 3 35c0 23.333 -5.16699 41.666 -15.5 54.999s-28.5 20 -54.5 20c-26.667 0 -55.334 -7.83301 -86.001 -23.5s-62 -37.5 -94 -65.5c-2 -19.333 -5 -45.333 -9 -78l-12 -102.5l-12 -102.5c-4 -32.667 -7.33301 -58.667 -10 -78h-55
l69 578h-66c0.666992 5.33301 1.16699 10.833 1.5 16.5s1.16602 11.167 2.49902 16.5h66l14 109h54l-14 -109h190c-1.33301 -5.33301 -2.33301 -10.833 -3 -16.5l-2 -16.5h-188l-13 -100c-4 -30.667 -7.33301 -52.667 -10 -66l3 -2
c34.667 28.667 68.834 50.167 102.501 64.5s63.5 21.5 89.5 21.5c20.667 0 37.834 -2.66699 51.501 -8s24.667 -12.5 33 -21.5s14.166 -19.5 17.499 -31.5s5 -25 5 -39v-16.5c0 -5.66699 -0.666992 -11.167 -2 -16.5l-40 -363h-54z" />
    <glyph glyph-name="Itilde" unicode="&#x128;" horiz-adv-x="231" 
d="M61 0l84 684h57l-84 -684h-57zM253 758c-12 0 -24.166 2 -36.499 6s-24.333 8.33301 -36 13l-34 13c-11 4 -20.833 6 -29.5 6l-57 -39l-19 15c9.33301 20.667 21.5 37 36.5 49s31.167 18 48.5 18c10.667 0 22 -2 34 -6l36 -12.5l35 -12.5c11.333 -4 21.666 -6 30.999 -6
l55 39l17 -16c-8.66699 -18.667 -20 -34.5 -34 -47.5s-29.667 -19.5 -47 -19.5z" />
    <glyph glyph-name="itilde" unicode="&#x129;" horiz-adv-x="216" 
d="M53 0l59 486.001h55c-1.33301 -7.33301 -3.5 -23.5 -6.5 -48.5l-10.5 -88l-13 -108l-13.5 -107.5l-11 -87c-3 -24.667 -4.83301 -40.334 -5.5 -47.001h-54zM220 580.001c-12 0 -24.166 2 -36.499 6s-24.333 8.33301 -36 13l-34 13c-11 4 -20.833 6 -29.5 6l-57 -39
l-19 15c9.33301 20.667 21.5 37 36.5 49s31.167 18 48.5 18c10.667 0 22 -2 34 -6l36 -12.5l35 -12.5c11.333 -4 21.666 -6 30.999 -6l55 39l17 -16c-8.66699 -18.667 -20 -34.5 -34 -47.5s-29.667 -19.5 -47 -19.5z" />
    <glyph glyph-name="Imacron" unicode="&#x12a;" horiz-adv-x="231" 
d="M61 0l84 684h57l-84 -684h-57zM30 795h304l-6 -47h-304z" />
    <glyph glyph-name="imacron" unicode="&#x12b;" horiz-adv-x="246" 
d="M71 0l59 486.001h55c-0.666992 -7.33301 -2.66699 -23.5 -6 -48.5s-7 -54.333 -11 -88l-13 -108l-13.5 -107.5l-11 -87c-3 -24.667 -4.83301 -40.334 -5.5 -47.001h-54zM27 641.001h299l-5 -47h-300z" />
    <glyph glyph-name="Ibreve" unicode="&#x12c;" horiz-adv-x="231" 
d="M175 727c-16 0 -30.667 2.83398 -44 8.50098s-25.666 13.167 -36.999 22.5s-21.5 20.166 -30.5 32.499s-17.167 25.166 -24.5 38.499l39 25c13.333 -24 29.166 -43.5 47.499 -58.5s37.5 -22.5 57.5 -22.5c7.33301 0 15.5 0.833008 24.5 2.5s19.333 5.33398 31 11.001
s24.667 13.5 39 23.5s30.5 23 48.5 39l18 -18c-32 -39.333 -62.333 -66.5 -91 -81.5s-54.667 -22.5 -78 -22.5zM61 0.000976562l84 684h57l-84 -684h-57z" />
    <glyph glyph-name="ibreve" unicode="&#x12d;" horiz-adv-x="246" 
d="M69 0l59 486.001h55c-1.33301 -7.33301 -3.5 -23.5 -6.5 -48.5l-10.5 -88l-13 -108l-13.5 -107.5l-11 -87c-3 -24.667 -4.83301 -40.334 -5.5 -47.001h-54zM160 557.001c-16 0 -30.667 3.00195 -44 9.00195s-25.666 13.667 -36.999 23s-21.5 20.166 -30.5 32.499
s-16.833 25.166 -23.5 38.499l39 25c13.333 -24 29 -43.333 47 -58s37.333 -22 58 -22c6.66699 0 14.667 0.833008 24 2.5s19.833 5 31.5 10s24.667 12.5 39 22.5s30.166 23 47.499 39l18 -18c-31.333 -38.667 -61.333 -65.667 -90 -81s-55 -23 -79 -23z" />
    <glyph glyph-name="Iogonek" unicode="&#x12e;" horiz-adv-x="231" 
d="M93 0c-22 -21.333 -38.668 -43.668 -50.001 -67.001s-17.666 -42 -18.999 -56c0 -16.667 4.66699 -28 14 -34s22.333 -9 39 -9c12.667 0 25.334 1.16699 38.001 3.5s23.667 4.83301 33 7.5c1.33301 -9.33301 2.66602 -17.666 3.99902 -24.999
c-16 -7.33301 -32.667 -13 -50 -17s-34 -6 -50 -6c-26.667 0 -46.167 5.5 -58.5 16.5s-18.5 25.167 -18.5 42.5c0 16.667 5.83301 37.667 17.5 63s34.5 52.333 68.5 81l84 684h57l-84 -684h-25z" />
    <glyph glyph-name="iogonek" unicode="&#x12f;" horiz-adv-x="214" 
d="M77 0c-20.667 -21.333 -36.333 -43.002 -47 -65.002s-16.334 -39.667 -17.001 -53c0 -16.667 4.66699 -28 14 -34s22.333 -9 39 -9c12.667 0 25.334 1.16699 38.001 3.5s23.667 4.83301 33 7.5c1.33301 -9.33301 2.66602 -17.666 3.99902 -24.999
c-16 -7.33301 -32.667 -13 -50 -17s-34 -6 -50 -6c-26.667 0 -46.167 5.5 -58.5 16.5s-18.5 25.167 -18.5 42.5c0 16.667 5.83301 37.834 17.5 63.501s34.834 52.834 69.501 81.501l59 480h55c-1.33301 -7.33301 -3.5 -23.5 -6.5 -48.5l-10.5 -88l-13 -108l-13.5 -107.5
l-11 -87c-3 -24.667 -4.83301 -40.334 -5.5 -47.001h-28zM155.001 653.998c10 0 18.334 -3.5 25.001 -10.5s10 -15.5 10 -25.5c0 -12 -4 -22.5 -12 -31.5s-18.333 -13.5 -31 -13.5c-9.33301 0 -17.333 3.33301 -24 10s-10 15 -10 25c0 13.333 4.16699 24.333 12.5 33
s18.166 13 29.499 13z" />
    <glyph glyph-name="Idotaccent" unicode="&#x130;" horiz-adv-x="231" 
d="M61 0l84 684h57l-84 -684h-57zM233 804c-1.33301 -12 -6.5 -22.667 -15.5 -32s-19.5 -14 -31.5 -14c-11.333 0 -20.333 3.66699 -27 11s-9.66699 16.333 -9 27c0 12 5 22.5 15 31.5s20.667 13.5 32 13.5c10 0 18.5 -3.66699 25.5 -11s10.5 -16 10.5 -26z" />
    <glyph glyph-name="dotlessi" unicode="&#x131;" horiz-adv-x="214" 
d="M51 0l59 486.001h55c-1.33301 -7.33301 -3.5 -23.5 -6.5 -48.5l-10.5 -88l-13 -108l-13.5 -107.5l-11 -87c-3 -24.667 -4.83301 -40.334 -5.5 -47.001h-54z" />
    <glyph glyph-name="IJ" unicode="&#x132;" horiz-adv-x="491" 
d="M61 0l84 684h57l-84 -684h-57zM396 684h57l-69 -567c-5.33301 -40.667 -13.166 -76.667 -23.499 -108s-24.5 -58.833 -42.5 -82.5s-41 -44.167 -69 -61.5s-62 -32 -102 -44l-16 45c36 14 65.667 28.833 89 44.5s42.166 33.334 56.499 53.001s25 41.667 32 66
s12.5 52.166 16.5 83.499z" />
    <glyph glyph-name="ij" unicode="&#x133;" horiz-adv-x="426" 
d="M51 0l59 486.001h55c-1.33301 -7.33301 -3.5 -23.5 -6.5 -48.5l-10.5 -88l-13 -108l-13.5 -107.5l-11 -87c-3 -24.667 -4.83301 -40.334 -5.5 -47.001h-54zM155 654.001c10 0 18.334 -3.5 25.001 -10.5s10 -15.5 10 -25.5c0 -12 -4 -22.5 -12 -31.5
s-18.333 -13.5 -31 -13.5c-9.33301 0 -17.333 3.33301 -24 10s-10 15 -10 25c0 13.333 4.16699 24.333 12.5 33s18.166 13 29.499 13zM376.001 486.001c-1.33301 -9.33301 -3.33398 -26.498 -6.00098 -51.498l-9.5 -85.5l-12 -100
c-4.33301 -34.667 -8.16602 -66.834 -11.499 -96.501s-6.33301 -54.5 -9 -74.5s-4 -31 -4 -33c-4 -33.333 -9.33301 -63.833 -16 -91.5s-16.667 -52.5 -30 -74.5s-31.166 -40.833 -53.499 -56.5s-51.166 -27.834 -86.499 -36.501l-12 40c29.333 10 52.666 22 69.999 36
s31 29.667 41 47s17.167 36.333 21.5 57s8.16602 43 11.499 67l52 453h54zM365 654.003c10 0 18.5 -3.5 25.5 -10.5s10.5 -15.5 10.5 -25.5c0 -12 -4 -22.5 -12 -31.5s-18.333 -13.5 -31 -13.5c-10 0 -18.167 3.33301 -24.5 10s-9.5 15 -9.5 25c0 13.333 4 24.333 12 33
s17.667 13 29 13z" />
    <glyph glyph-name="Jcircumflex" unicode="&#x134;" horiz-adv-x="275" 
d="M179 685h57l-69 -567c-5.33301 -40.667 -13.166 -76.667 -23.499 -108s-24.5 -58.833 -42.5 -82.5s-41 -44.167 -69 -61.5s-62 -32 -102 -44l-16 45c36 14 65.667 28.833 89 44.5s42.166 33.334 56.499 53.001s25 41.667 32 66s12.5 52.166 16.5 83.499zM352 712
l-128 100l-153 -101l-15 21l152 134h42l121 -133z" />
    <glyph glyph-name="jcircumflex" unicode="&#x135;" horiz-adv-x="234" 
d="M184 486c-1.33301 -9.33301 -3.33398 -26.498 -6.00098 -51.498l-9.5 -85.5l-12 -100c-4.33301 -34.667 -8.16602 -66.834 -11.499 -96.501s-6.33301 -54.5 -9 -74.5s-4 -31 -4 -33c-4 -33.333 -9.33301 -63.833 -16 -91.5s-16.667 -52.5 -30 -74.5
s-31.166 -40.833 -53.499 -56.5s-51.166 -27.834 -86.499 -36.501l-12 40c29.333 10 52.666 22 69.999 36s31 29.667 41 47s17.167 36.333 21.5 57s8.16602 43 11.499 67l52 453h54zM298.999 541.002l-128 101l-153 -101l-15 21l152 133h42l121 -132z" />
    <glyph glyph-name="Kcommaaccent" unicode="&#x136;" horiz-adv-x="533" 
d="M108 0h-56l83 684h57l-41 -329l351 329h68l-295 -274l217 -410h-62l-195 370l-92 -84zM244 -46c11.333 0 20.501 -3.66992 27.501 -11.0029s10.5 -17.666 10.5 -30.999c0 -22 -8.33301 -43.5 -25 -64.5s-37 -38.5 -61 -52.5l-12 17c12 10.667 21.167 20.334 27.5 29.001
s11.166 20.334 14.499 35.001c-9.33301 1.33301 -16.166 4.83301 -20.499 10.5s-6.5 12.5 -6.5 20.5c0 12.667 4.16699 23.667 12.5 33s19.166 14 32.499 14z" />
    <glyph glyph-name="kcommaaccent" unicode="&#x137;" horiz-adv-x="418" 
d="M126 263l41.999 38.5l50 46.5l65 60l87 79h63l-43.5 -40.5l-62 -57.5l-62.5 -57.5l-44 -40.5l23 -30l144 -261h-59l-17 32l-25 46.5l-29 53l-28.5 53l-25 46c-7.66699 13.667 -13.5 24.5 -17.5 32.5l-72 -65l-24 -198h-53l86 709h54l-38 -315
c-3.33301 -21.333 -6.16602 -42.333 -8.49902 -63s-5.5 -43 -9.5 -67zM192.999 -44c11.333 0 20.501 -3.66992 27.501 -11.0029s10.5 -17.666 10.5 -30.999c0 -22 -8.33301 -43.5 -25 -64.5s-37 -38.5 -61 -52.5l-12 17c12 10.667 21.167 20.334 27.5 29.001
s11.166 20.334 14.499 35.001c-9.33301 1.33301 -16.166 4.83301 -20.499 10.5s-6.5 12.5 -6.5 20.5c0 12.667 4.16699 23.667 12.5 33s19.166 14 32.499 14z" />
    <glyph glyph-name="kgreenlandic" unicode="&#x138;" horiz-adv-x="418" 
d="M151 486l-11.001 -92c-3.33301 -21.333 -6.16602 -42.333 -8.49902 -63s-5.5 -43 -9.5 -67l4 -1l42 38.5l50 46.5l65 60l87 79h63l-43.5 -40.5l-62 -57.5l-62.5 -57.5l-44 -40.5l23 -30l144 -261h-59l-17 32l-25 46.5l-29 53l-28.5 53l-25 46
c-7.66699 13.667 -13.5 24.5 -17.5 32.5l-72 -65l-24 -198h-53l59 486h54z" />
    <glyph glyph-name="Lacute" unicode="&#x139;" horiz-adv-x="507" 
d="M65 0l83 683h57l-78 -637h349l-5 -46h-406zM195 718l-18 25l151 128l29 -44z" />
    <glyph glyph-name="lacute" unicode="&#x13a;" horiz-adv-x="213" 
d="M186 719c-1.33301 -9.33301 -3.16602 -25.167 -5.49902 -47.5s-5.5 -49 -9.5 -80l-12.5 -101l-13.5 -111l-13.5 -111c-4.33301 -36.333 -8.5 -69.5 -12.5 -99.5l-10 -77.5c-2.66699 -21.667 -4.33398 -36.5 -5.00098 -44.5l65 2l4 -38
c-13.333 -6.66699 -27.333 -11.5 -42 -14.5s-27 -4.5 -37 -4.5c-16 0 -27.5 3.33301 -34.5 10s-10.5 16.667 -10.5 30c0 2.66699 0.166992 6 0.5 10s0.833008 8.33301 1.5 13l82 664h53zM140 736.999l-18 25l151 128l29 -44z" />
    <glyph glyph-name="Lcommaaccent" unicode="&#x13b;" horiz-adv-x="507" 
d="M65 0l83 683h57l-78 -637h349l-5 -46h-406zM258 -57c11.333 0 20.501 -3.66992 27.501 -11.0029s10.5 -17.666 10.5 -30.999c0 -22 -8.33301 -43.5 -25 -64.5s-37 -38.5 -61 -52.5l-12 17c12 10.667 21.167 20.334 27.5 29.001s11.166 20.334 14.499 35.001
c-9.33301 1.33301 -16.166 4.83301 -20.499 10.5s-6.5 12.5 -6.5 20.5c0 12.667 4.16699 23.667 12.5 33s19.166 14 32.499 14z" />
    <glyph glyph-name="lcommaaccent" unicode="&#x13c;" horiz-adv-x="213" 
d="M186 719c-1.33301 -9.33301 -3.16602 -25.167 -5.49902 -47.5s-5.5 -49 -9.5 -80l-12.5 -101l-13.5 -111l-13.5 -111c-4.33301 -36.333 -8.5 -69.5 -12.5 -99.5l-10 -77.5c-2.66699 -21.667 -4.33398 -36.5 -5.00098 -44.5l65 2l4 -38
c-13.333 -6.66699 -27.333 -11.5 -42 -14.5s-27 -4.5 -37 -4.5c-16 0 -27.5 3.33301 -34.5 10s-10.5 16.667 -10.5 30c0 2.66699 0.166992 6 0.5 10s0.833008 8.33301 1.5 13l82 664h53zM81 -57.001c11.333 0 20.501 -3.66992 27.501 -11.0029s10.5 -17.666 10.5 -30.999
c0 -22 -8.33301 -43.5 -25 -64.5s-37 -38.5 -61 -52.5l-12 17c12 10.667 21.167 20.334 27.5 29.001s11.166 20.334 14.499 35.001c-9.33301 1.33301 -16.166 4.83301 -20.499 10.5s-6.5 12.5 -6.5 20.5c0 12.667 4.16699 23.667 12.5 33s19.166 14 32.499 14z" />
    <glyph glyph-name="Lcaron" unicode="&#x13d;" horiz-adv-x="507" 
d="M65 0l83 683h57l-78 -637h349l-5 -46h-406zM413 676c11.333 0 20.501 -3.66992 27.501 -11.0029s10.5 -17.666 10.5 -30.999c0 -22 -8.33301 -43.5 -25 -64.5s-37 -38.5 -61 -52.5l-12 17c12 10.667 21.167 20.334 27.5 29.001s11.166 20.334 14.499 35.001
c-9.33301 1.33301 -16.166 4.83301 -20.499 10.5s-6.5 12.5 -6.5 20.5c0 12.667 4.16699 23.667 12.5 33s19.166 14 32.499 14z" />
    <glyph glyph-name="lcaron" unicode="&#x13e;" horiz-adv-x="274" 
d="M296 714c11.333 0 20.501 -3.66992 27.501 -11.0029s10.5 -17.666 10.5 -30.999c0 -22 -8.33301 -43.5 -25 -64.5s-37 -38.5 -61 -52.5l-12 17c12 10.667 21.167 20.334 27.5 29.001s11.166 20.334 14.499 35.001c-9.33301 1.33301 -16.166 4.83301 -20.499 10.5
s-6.5 12.5 -6.5 20.5c0 12.667 4.16699 23.667 12.5 33s19.166 14 32.499 14zM186.001 718.997c-1.33301 -9.33301 -3.16602 -25.167 -5.49902 -47.5s-5.5 -49 -9.5 -80l-12.5 -101l-13.5 -111l-13.5 -111c-4.33301 -36.333 -8.5 -69.5 -12.5 -99.5l-10 -77.5
c-2.66699 -21.667 -4.33398 -36.5 -5.00098 -44.5l65 2l4 -38c-13.333 -6.66699 -27.333 -11.5 -42 -14.5s-27 -4.5 -37 -4.5c-16 0 -27.5 3.33301 -34.5 10s-10.5 16.667 -10.5 30c0 2.66699 0.166992 6 0.5 10s0.833008 8.33301 1.5 13l82 664h53z" />
    <glyph glyph-name="Ldot" unicode="&#x13f;" horiz-adv-x="507" 
d="M65 0l83 683h57l-78 -637h349l-5 -46h-406zM427 393c-1.33301 -12 -6.5 -22.667 -15.5 -32s-19.5 -14 -31.5 -14c-11.333 0 -20.333 3.66699 -27 11s-9.66699 16.333 -9 27c0 12 5 22.5 15 31.5s20.667 13.5 32 13.5c10 0 18.5 -3.66699 25.5 -11s10.5 -16 10.5 -26z" />
    <glyph glyph-name="ldot" unicode="&#x140;" horiz-adv-x="265" 
d="M288 365c-1.33301 -12 -6.5 -22.667 -15.5 -32s-19.5 -14 -31.5 -14c-11.333 0 -20.333 3.66699 -27 11s-9.66699 16.333 -9 27c0 12 5 22.5 15 31.5s20.667 13.5 32 13.5c10 0 18.5 -3.66699 25.5 -11s10.5 -16 10.5 -26zM186 719
c-1.33301 -9.33301 -3.16602 -25.167 -5.49902 -47.5s-5.5 -49 -9.5 -80l-12.5 -101l-13.5 -111l-13.5 -111c-4.33301 -36.333 -8.5 -69.5 -12.5 -99.5l-10 -77.5c-2.66699 -21.667 -4.33398 -36.5 -5.00098 -44.5l65 2l4 -38c-13.333 -6.66699 -27.333 -11.5 -42 -14.5
s-27 -4.5 -37 -4.5c-16 0 -27.5 3.33301 -34.5 10s-10.5 16.667 -10.5 30c0 2.66699 0.166992 6 0.5 10s0.833008 8.33301 1.5 13l82 664h53z" />
    <glyph glyph-name="Lslash" unicode="&#x141;" horiz-adv-x="507" 
d="M64 0l31 259l-74 -41l-15 34l95 52l46 379h57l-42 -345l138 76l14 -32l-158 -89l-30 -247h349l-5 -46h-406z" />
    <glyph glyph-name="lslash" unicode="&#x142;" horiz-adv-x="260" 
d="M206 719l-41 -342l106 59l15 -33l-127 -70c-2 -16 -4.66699 -38.667 -8 -68l-10.5 -88.5l-10.5 -81.5c-3.33301 -24.667 -5.33301 -40.667 -6 -48l65 2l4 -38c-13.333 -6.66699 -27.333 -11.5 -42 -14.5s-27 -4.5 -37 -4.5c-16 0 -27.333 3.33301 -34 10
s-10 16.667 -10 30v10.5c0 3.66699 0.333008 7.5 1 11.5l30 246l-94 -53l-15 35l115 63l46 374h53z" />
    <glyph glyph-name="Nacute" unicode="&#x143;" horiz-adv-x="637" 
d="M489 99l71.002 584h57l-84 -683h-56l-246 490l-49 101c-0.666992 0 -1.33398 -0.166992 -2.00098 -0.5s-1.33398 -0.5 -2.00098 -0.5l-71 -590h-56l83 683h58l29 -56.5l40 -79l46.5 -92l48 -95.5l45 -90l38.5 -76l47 -95h3zM361.002 718l-18 25l151 128l29 -44z" />
    <glyph glyph-name="nacute" unicode="&#x144;" horiz-adv-x="481" 
d="M342 0l40.001 350.001c1.33301 5.33301 2 10.333 2 15v14c0 11.333 -1.33301 20 -4 26c-3.33301 15.333 -10.5 26.666 -21.5 33.999s-27.167 11 -48.5 11c-26 0 -53.833 -7.83301 -83.5 -23.5s-60.167 -37.5 -91.5 -65.5l-45 -361h-54c2 15.333 4.5 35.833 7.5 61.5
s6.5 53.834 10.5 84.501l12.5 96.5l12 97l10 85l7.5 62.5h52l-4.5 -38c-1.66699 -14 -3.5 -25.667 -5.5 -35c2 -2 3 -2.66699 3 -2c72 56.667 134.667 85 188 85c21.333 0 39 -2.83301 53 -8.5s25.167 -13.167 33.5 -22.5s14.166 -20.5 17.499 -33.5s5 -26.5 5 -40.5
c0 -4.66699 -0.166992 -9.33398 -0.5 -14.001s-0.833008 -9.66699 -1.5 -15l-40 -363h-54zM239.001 545.001l-28 23l126 156l43 -41z" />
    <glyph glyph-name="Ncommaaccent" unicode="&#x145;" horiz-adv-x="637" 
d="M489 99l71.002 584h57l-84 -683h-56l-246 490l-49 101c-0.666992 0 -1.33398 -0.166992 -2.00098 -0.5s-1.33398 -0.5 -2.00098 -0.5l-71 -590h-56l83 683h58l29 -56.5l40 -79l46.5 -92l48 -95.5l45 -90l38.5 -76l47 -95h3zM290.002 -52
c11.333 0 20.501 -3.66992 27.501 -11.0029s10.5 -17.666 10.5 -30.999c0 -22 -8.33301 -43.5 -25 -64.5s-37 -38.5 -61 -52.5l-12 17c12 10.667 21.167 20.334 27.5 29.001s11.166 20.334 14.499 35.001c-9.33301 1.33301 -16.166 4.83301 -20.499 10.5
s-6.5 12.5 -6.5 20.5c0 12.667 4.16699 23.667 12.5 33s19.166 14 32.499 14z" />
    <glyph glyph-name="ncommaaccent" unicode="&#x146;" horiz-adv-x="481" 
d="M342 0l40.001 350.001c1.33301 5.33301 2 10.333 2 15v14c0 11.333 -1.33301 20 -4 26c-3.33301 15.333 -10.5 26.666 -21.5 33.999s-27.167 11 -48.5 11c-26 0 -53.833 -7.83301 -83.5 -23.5s-60.167 -37.5 -91.5 -65.5l-45 -361h-54c2 15.333 4.5 35.833 7.5 61.5
s6.5 53.834 10.5 84.501l12.5 96.5l12 97l10 85l7.5 62.5h52l-4.5 -38c-1.66699 -14 -3.5 -25.667 -5.5 -35c2 -2 3 -2.66699 3 -2c72 56.667 134.667 85 188 85c21.333 0 39 -2.83301 53 -8.5s25.167 -13.167 33.5 -22.5s14.166 -20.5 17.499 -33.5s5 -26.5 5 -40.5
c0 -4.66699 -0.166992 -9.33398 -0.5 -14.001s-0.833008 -9.66699 -1.5 -15l-40 -363h-54zM211.001 -48.999c11.333 0 20.501 -3.66992 27.501 -11.0029s10.5 -17.666 10.5 -30.999c0 -22 -8.33301 -43.5 -25 -64.5s-37 -38.5 -61 -52.5l-12 17
c12 10.667 21.167 20.334 27.5 29.001s11.166 20.334 14.499 35.001c-9.33301 1.33301 -16.166 4.83301 -20.499 10.5s-6.5 12.5 -6.5 20.5c0 12.667 4.16699 23.667 12.5 33s19.166 14 32.499 14z" />
    <glyph glyph-name="Ncaron" unicode="&#x147;" horiz-adv-x="637" 
d="M489 99l71.002 584h57l-84 -683h-56l-246 490l-49 101c-0.666992 0 -1.33398 -0.166992 -2.00098 -0.5s-1.33398 -0.5 -2.00098 -0.5l-71 -590h-56l83 683h58l29 -56.5l40 -79l46.5 -92l48 -95.5l45 -90l38.5 -76l47 -95h3zM566.002 851l-153 -127h-42l-120 129l19 20
l129 -96l152 96z" />
    <glyph glyph-name="ncaron" unicode="&#x148;" horiz-adv-x="481" 
d="M342 0l40.001 350.001c1.33301 5.33301 2 10.333 2 15v14c0 11.333 -1.33301 20 -4 26c-3.33301 15.333 -10.5 26.666 -21.5 33.999s-27.167 11 -48.5 11c-26 0 -53.833 -7.83301 -83.5 -23.5s-60.167 -37.5 -91.5 -65.5l-45 -361h-54c2 15.333 4.5 35.833 7.5 61.5
s6.5 53.834 10.5 84.501l12.5 96.5l12 97l10 85l7.5 62.5h52l-4.5 -38c-1.66699 -14 -3.5 -25.667 -5.5 -35c2 -2 3 -2.66699 3 -2c72 56.667 134.667 85 188 85c21.333 0 39 -2.83301 53 -8.5s25.167 -13.167 33.5 -22.5s14.166 -20.5 17.499 -33.5s5 -26.5 5 -40.5
c0 -4.66699 -0.166992 -9.33398 -0.5 -14.001s-0.833008 -9.66699 -1.5 -15l-40 -363h-54zM438.001 685.001l-153 -132h-42l-120 133l19 22l128 -102l153 101z" />
    <glyph glyph-name="napostrophe" unicode="&#x149;" horiz-adv-x="537" 
d="M398 0l40.001 350.001c1.33301 5.33301 2 10.333 2 15v14c0 11.333 -1.33301 20 -4 26c-3.33301 15.333 -10.5 26.666 -21.5 33.999s-27.167 11 -48.5 11c-26 0 -53.833 -7.83301 -83.5 -23.5s-60.167 -37.5 -91.5 -65.5l-45 -361h-54c2 15.333 4.5 35.833 7.5 61.5
s6.5 53.834 10.5 84.501l12.5 96.5l12 97l10 85l7.5 62.5h52l-4.5 -38c-1.66699 -14 -3.5 -25.667 -5.5 -35c2 -2 3 -2.66699 3 -2c72 56.667 134.667 85 188 85c21.333 0 39 -2.83301 53 -8.5s25.167 -13.167 33.5 -22.5s14.166 -20.5 17.499 -33.5s5 -26.5 5 -40.5
c0 -4.66699 -0.166992 -9.33398 -0.5 -14.001s-0.833008 -9.66699 -1.5 -15l-40 -363h-54zM90.001 643.001c11.333 0 20.501 -3.66992 27.501 -11.0029s10.5 -17.666 10.5 -30.999c0 -22 -8.33301 -43.5 -25 -64.5s-37 -38.5 -61 -52.5l-12 17
c12 10.667 21.167 20.334 27.5 29.001s11.166 20.334 14.499 35.001c-9.33301 1.33301 -16.166 4.83301 -20.499 10.5s-6.5 12.5 -6.5 20.5c0 12.667 4.16699 23.667 12.5 33s19.166 14 32.499 14z" />
    <glyph glyph-name="Eng" unicode="&#x14a;" horiz-adv-x="638" 
d="M490 99l72.001 584.001h56l-84 -686c-2.66699 -25.333 -6.66699 -50 -12 -74c-7.33301 -35.333 -21.333 -61 -42 -77s-49.334 -24 -86.001 -24c-26.667 0 -54.667 3.33301 -84 10c1.33301 7.33301 3 14.5 5 21.5l6 21.5c13.333 -2.66699 25.5 -4.5 36.5 -5.5
s21.167 -1.5 30.5 -1.5c26 0 45.667 5.16699 59 15.5s21.333 27.833 24 52.5l8 63l-222 440l-21.5 43.5l-18 37l-17 34.5c-5.66699 11.333 -11.5 23.666 -17.5 36.999c0 -0.666992 -0.333008 -1 -1 -1h-2l-36.5 -295.5l-35.5 -294.5h-55l83 683h58l29.5 -57.5l40.5 -79.5
l47 -93l49 -97l46 -92.5l39 -78.5c2 -4 4.83301 -10 8.5 -18l12 -25l12.5 -25l9 -18h3z" />
    <glyph glyph-name="eng" unicode="&#x14b;" horiz-adv-x="480" 
d="M141 412c70.667 56 133.332 84.001 187.999 84.001c21.333 0 39 -2.66699 53 -8s25.167 -12.833 33.5 -22.5s14.166 -20.667 17.499 -33s5 -25.5 5 -39.5c0 -5.33301 -0.166992 -10.333 -0.5 -15s-0.833008 -9.66699 -1.5 -15l-44 -387
c-7.33301 -46.667 -22.666 -79.334 -45.999 -98.001s-56 -28 -98 -28c-4 0 -9.16699 0.166992 -15.5 0.5s-13.166 1 -20.499 2s-14.333 1.83301 -21 2.5s-12 1.66699 -16 3l9 44c16 -2.66699 28 -4.33398 36 -5.00098s16 -1 24 -1c56.667 0 88 26 94 78l44 375
c0.666992 5.33301 1.16699 10.333 1.5 15s0.5 9.33398 0.5 14.001c0 20.667 -4.83301 37.667 -14.5 51s-29.5 20 -59.5 20c-26 0 -53.833 -7.66699 -83.5 -23s-60.5 -37 -92.5 -65l-22 -180.5l-22 -180.5h-55l30.5 242l30.5 244h52l-10 -72z" />
    <glyph glyph-name="Omacron" unicode="&#x14c;" horiz-adv-x="656" 
d="M385 694c44 0 80.833 -7.33496 110.5 -22.002s53.5 -34.667 71.5 -60s30.667 -54.833 38 -88.5s11 -69.5 11 -107.5c0 -58 -6.66699 -112.667 -20 -164s-33 -96.166 -59 -134.499s-58.167 -68.666 -96.5 -90.999s-82.5 -33.5 -132.5 -33.5c-43.333 0 -80 6 -110 18
s-54.5 29.5 -73.5 52.5s-32.833 51 -41.5 84s-13 70.167 -13 111.5c0 53.333 5.5 106 16.5 158s29 98.5 54 139.5s57.5 74.167 97.5 99.5s89 38 147 38zM385 647.998c-50 0 -91.5 -12.001 -124.5 -36.001s-59.5 -54.833 -79.5 -92.5s-34 -79.5 -42 -125.5s-12 -91 -12 -135
c0 -72.667 14.167 -127.5 42.5 -164.5s74.5 -55.5 138.5 -55.5c44.667 0 82.667 10.833 114 32.5s57 50.334 77 86.001s34.667 76 44 121s14 90.833 14 137.5c0 29.333 -2.33301 58 -7 86s-13.334 52.833 -26.001 74.5s-30.167 39 -52.5 52s-51.166 19.5 -86.499 19.5z
M246 794.997h304l-6 -47h-304z" />
    <glyph glyph-name="omacron" unicode="&#x14d;" horiz-adv-x="477" 
d="M269 450c-34.667 0 -63.332 -9.33203 -85.999 -27.999s-40.667 -41.667 -54 -69s-22.666 -57 -27.999 -89s-8 -61.333 -8 -88c0 -18 1.83301 -35.5 5.5 -52.5s10 -32 19 -45s21.333 -23.333 37 -31s35.5 -11.5 59.5 -11.5c35.333 0 64.166 9.33301 86.499 28
s39.666 41.5 51.999 68.5s20.833 55.5 25.5 85.5s7 56.667 7 80c0 19.333 -1.66699 38.166 -5 56.499s-9.5 34.5 -18.5 48.5s-21 25.333 -36 34s-33.833 13 -56.5 13zM270.002 495.001c32 0 58.8291 -5.33203 80.4961 -15.999s39.334 -25 53.001 -43
s23.334 -38.667 29.001 -62s8.5 -48 8.5 -74c0 -32 -3.5 -65.833 -10.5 -101.5s-19.333 -68.834 -37 -99.501s-41.5 -56 -71.5 -76s-67.667 -30 -113 -30c-33.333 0 -60.833 5 -82.5 15s-39.167 23.667 -52.5 41s-22.666 37.333 -27.999 60s-8 47 -8 73
c0 34.667 4 70.5 12 107.5s21.167 70.667 39.5 101s42.333 55.333 72 75s65.834 29.5 108.501 29.5zM141.998 641.002h299l-5 -47h-300z" />
    <glyph glyph-name="Obreve" unicode="&#x14e;" horiz-adv-x="656" 
d="M385 694c44 0 80.833 -7.33496 110.5 -22.002s53.5 -34.667 71.5 -60s30.667 -54.833 38 -88.5s11 -69.5 11 -107.5c0 -58 -6.66699 -112.667 -20 -164s-33 -96.166 -59 -134.499s-58.167 -68.666 -96.5 -90.999s-82.5 -33.5 -132.5 -33.5c-43.333 0 -80 6 -110 18
s-54.5 29.5 -73.5 52.5s-32.833 51 -41.5 84s-13 70.167 -13 111.5c0 53.333 5.5 106 16.5 158s29 98.5 54 139.5s57.5 74.167 97.5 99.5s89 38 147 38zM385 647.998c-50 0 -91.5 -12.001 -124.5 -36.001s-59.5 -54.833 -79.5 -92.5s-34 -79.5 -42 -125.5s-12 -91 -12 -135
c0 -72.667 14.167 -127.5 42.5 -164.5s74.5 -55.5 138.5 -55.5c44.667 0 82.667 10.833 114 32.5s57 50.334 77 86.001s34.667 76 44 121s14 90.833 14 137.5c0 29.333 -2.33301 58 -7 86s-13.334 52.833 -26.001 74.5s-30.167 39 -52.5 52s-51.166 19.5 -86.499 19.5z
M394 729.997c-16 0 -30.667 2.83398 -44 8.50098s-25.666 13.167 -36.999 22.5s-21.5 20.166 -30.5 32.499s-17.167 25.166 -24.5 38.499l39 25c13.333 -24 29.166 -43.5 47.499 -58.5s37.5 -22.5 57.5 -22.5c7.33301 0 15.5 0.833008 24.5 2.5s19.333 5.33398 31 11.001
s24.667 13.5 39 23.5s30.5 23 48.5 39l18 -18c-32 -39.333 -62.333 -66.5 -91 -81.5s-54.667 -22.5 -78 -22.5z" />
    <glyph glyph-name="obreve" unicode="&#x14f;" horiz-adv-x="477" 
d="M269 450c-34.667 0 -63.332 -9.33203 -85.999 -27.999s-40.667 -41.667 -54 -69s-22.666 -57 -27.999 -89s-8 -61.333 -8 -88c0 -18 1.83301 -35.5 5.5 -52.5s10 -32 19 -45s21.333 -23.333 37 -31s35.5 -11.5 59.5 -11.5c35.333 0 64.166 9.33301 86.499 28
s39.666 41.5 51.999 68.5s20.833 55.5 25.5 85.5s7 56.667 7 80c0 19.333 -1.66699 38.166 -5 56.499s-9.5 34.5 -18.5 48.5s-21 25.333 -36 34s-33.833 13 -56.5 13zM270.002 495.001c32 0 58.8291 -5.33203 80.4961 -15.999s39.334 -25 53.001 -43
s23.334 -38.667 29.001 -62s8.5 -48 8.5 -74c0 -32 -3.5 -65.833 -10.5 -101.5s-19.333 -68.834 -37 -99.501s-41.5 -56 -71.5 -76s-67.667 -30 -113 -30c-33.333 0 -60.833 5 -82.5 15s-39.167 23.667 -52.5 41s-22.666 37.333 -27.999 60s-8 47 -8 73
c0 34.667 4 70.5 12 107.5s21.167 70.667 39.5 101s42.333 55.333 72 75s65.834 29.5 108.501 29.5zM280.998 556.002c-16 0 -30.667 3 -44 9s-25.5 13.833 -36.5 23.5s-21 20.667 -30 33s-16.833 25.166 -23.5 38.499l39 25c13.333 -24 28.833 -43.5 46.5 -58.5
s36.834 -22.5 57.501 -22.5c6.66699 0 14.5 0.833008 23.5 2.5s19.333 5.16699 31 10.5s24.5 13 38.5 23s29.667 23 47 39l18 -18c-30.667 -39.333 -60.334 -66.666 -89.001 -81.999s-54.667 -23 -78 -23z" />
    <glyph glyph-name="Ohungarumlaut" unicode="&#x150;" horiz-adv-x="656" 
d="M385 694c44 0 80.833 -7.33496 110.5 -22.002s53.5 -34.667 71.5 -60s30.667 -54.833 38 -88.5s11 -69.5 11 -107.5c0 -58 -6.66699 -112.667 -20 -164s-33 -96.166 -59 -134.499s-58.167 -68.666 -96.5 -90.999s-82.5 -33.5 -132.5 -33.5c-43.333 0 -80 6 -110 18
s-54.5 29.5 -73.5 52.5s-32.833 51 -41.5 84s-13 70.167 -13 111.5c0 53.333 5.5 106 16.5 158s29 98.5 54 139.5s57.5 74.167 97.5 99.5s89 38 147 38zM385 647.998c-50 0 -91.5 -12.001 -124.5 -36.001s-59.5 -54.833 -79.5 -92.5s-34 -79.5 -42 -125.5s-12 -91 -12 -135
c0 -72.667 14.167 -127.5 42.5 -164.5s74.5 -55.5 138.5 -55.5c44.667 0 82.667 10.833 114 32.5s57 50.334 77 86.001s34.667 76 44 121s14 90.833 14 137.5c0 29.333 -2.33301 58 -7 86s-13.334 52.833 -26.001 74.5s-30.167 39 -52.5 52s-51.166 19.5 -86.499 19.5z
M442 718.997l-21 22l142 139l33 -41zM323 718.997l-21 22l143 139l33 -41z" />
    <glyph glyph-name="ohungarumlaut" unicode="&#x151;" horiz-adv-x="477" 
d="M269 450c-34.667 0 -63.332 -9.33203 -85.999 -27.999s-40.667 -41.667 -54 -69s-22.666 -57 -27.999 -89s-8 -61.333 -8 -88c0 -18 1.83301 -35.5 5.5 -52.5s10 -32 19 -45s21.333 -23.333 37 -31s35.5 -11.5 59.5 -11.5c35.333 0 64.166 9.33301 86.499 28
s39.666 41.5 51.999 68.5s20.833 55.5 25.5 85.5s7 56.667 7 80c0 19.333 -1.66699 38.166 -5 56.499s-9.5 34.5 -18.5 48.5s-21 25.333 -36 34s-33.833 13 -56.5 13zM270.002 495.001c32 0 58.8291 -5.33203 80.4961 -15.999s39.334 -25 53.001 -43
s23.334 -38.667 29.001 -62s8.5 -48 8.5 -74c0 -32 -3.5 -65.833 -10.5 -101.5s-19.333 -68.834 -37 -99.501s-41.5 -56 -71.5 -76s-67.667 -30 -113 -30c-33.333 0 -60.833 5 -82.5 15s-39.167 23.667 -52.5 41s-22.666 37.333 -27.999 60s-8 47 -8 73
c0 34.667 4 70.5 12 107.5s21.167 70.667 39.5 101s42.333 55.333 72 75s65.834 29.5 108.501 29.5zM209.998 545.002l-27 22l125 156l42 -38zM317.998 545.002l-25 21l124 156l42 -38z" />
    <glyph glyph-name="OE" unicode="&#x152;" horiz-adv-x="758" 
d="M382 694c15.333 0 30.3281 -0.998047 44.9951 -2.99805s27.667 -5 39 -9h296l-5 -45h-296l-31 -254h257l-5 -45h-257l-36 -293h323l-5 -45h-345c-10.667 -1.33301 -21.167 -2.83301 -31.5 -4.5s-21.166 -2.5 -32.499 -2.5c-44 0 -81.167 6.16699 -111.5 18.5
s-54.666 30.166 -72.999 53.499s-31.666 51.666 -39.999 84.999s-12.5 71 -12.5 113c0 55.333 5.66699 108.833 17 160.5s29.833 97.5 55.5 137.5s58.834 72.167 99.501 96.5s90.334 36.5 149.001 36.5zM404.995 646.002c-4 0.666992 -8.49902 1.00098 -13.499 1.00098
h-15.5c-50 0 -91.5 -11.5 -124.5 -34.5s-59.167 -52.833 -78.5 -89.5s-33 -77.834 -41 -123.501s-12 -91.167 -12 -136.5c0 -74 13.667 -130 41 -168s73.666 -57 138.999 -57c5.33301 0 10.333 0.166992 15 0.5s9.66699 0.833008 15 1.5z" />
    </font>
</defs>
</svg>
